<svg xmlns="http://www.w3.org/2000/svg" viewBox="0 0 480 480">
  <path fill="#fff" d="M291.99 352h-96a8 8 0 00-8 8v48a8 8 0 008 8h96a8 8 0 008-8v-48a8 8 0 00-8-8zm-8 48h-80v-32h80v32z"/>
  <path fill="#fff" d="M395.99 0c-17.673 0-32 14.327-32 32a8 8 0 01-16 0v-8a8 8 0 00-8-8h-192a8 8 0 00-8 8v8a8 8 0 01-16 0c0-17.673-14.327-32-32-32s-32 14.327-32 32v20.8c0 45.95 37.25 83.2 83.2 83.2h4.8a8 8 0 010 16h-16v16h16a23.92 23.92 0 0021.232-13.048c3.56 7.616 7.32 15.152 11.512 22.48l19.352 33.856c-11.461 6.499-15.483 21.059-8.984 32.519a23.857 23.857 0 0017.216 11.825L182.574 320H155.99a8 8 0 00-8 8v110.112l-15.16 30.312A8 8 0 00139.99 480h208a8 8 0 007.2-11.576l-15.2-30.312V328a8 8 0 00-8-8h-26.584l-25.744-64.368c13.03-1.953 22.009-14.099 20.057-27.128a23.857 23.857 0 00-11.825-17.216l19.352-33.856c4.192-7.328 7.952-14.864 11.512-22.48A23.92 23.92 0 00339.99 168h16v-16h-16a8 8 0 010-16h4.8c45.95 0 83.2-37.25 83.2-83.2V32c0-17.673-14.327-32-32-32zm-248 120h-4.76c-37.114.022-67.218-30.046-67.24-67.16V32c0-8.837 7.163-16 16-16s16 7.163 16 16c0 13.255 10.745 24 24 24a23.747 23.747 0 009.6-2.048 309.704 309.704 0 0014.168 67.456A23.774 23.774 0 00147.99 120zm187.056 344H152.934l8-16h166.112l8 16zM323.99 336v96h-160v-96h160zm-42.216-32l6.4 16h-88.368l25.6-64h37.168l12.8 32H227.99v16h53.784zm-5.784-64h-64a8 8 0 010-16h64a8 8 0 010 16zm54.96-192H179.99v16h149.152a293.537 293.537 0 01-35.784 105.496L271.35 208h-54.72l-22.008-38.504A293.76 293.76 0 01156.102 32h175.776c-.144 5.344-.496 10.68-.928 16zm81.04 4.8c0 37.114-30.086 67.2-67.2 67.2h-4.8a23.75 23.75 0 00-7.792 1.408 309.724 309.724 0 0014.192-67.456 23.747 23.747 0 009.6 2.048c13.255 0 24-10.745 24-24 0-8.837 7.163-16 16-16s16 7.163 16 16v20.8z"/>
  <path fill="#fff" d="M211.19 115.472l-15.2 4.824a163.34 163.34 0 0020.48 44.304l13.072-9.2a148.556 148.556 0 01-18.352-39.928zM203.862 86.6l-15.744 2.8c.048.296 1.32 7.392 4 17.672l15.464-4.08c-2.488-9.592-3.704-16.328-3.72-16.392zM131.856 206.666a8 8 0 00-6.554-6.554 30.944 30.944 0 01-25.424-25.424 8 8 0 00-15.776 0 30.944 30.944 0 01-25.424 25.424 8 8 0 000 15.776 30.944 30.944 0 0125.424 25.424 8 8 0 0015.776 0 30.944 30.944 0 0125.424-25.424 8.001 8.001 0 006.554-9.222zM91.99 219.424A46.958 46.958 0 0080.566 208a46.958 46.958 0 0011.424-11.424A46.958 46.958 0 00103.414 208a46.94 46.94 0 00-11.424 11.424z"/>
</svg>
