<svg xmlns="http://www.w3.org/2000/svg" width="458.79837" height="200"><path fill="#fff" d="M99.6276.001535c-26.08-.144868-50.6855 9.965679-70.0798 29.335804C16.1076 42.760747 7.7173 58.266682 2.8183 78.733713c-3.5863 14.98319-3.7232 24.67707-.5633 40.0233 4.9657 24.11612 18.7878 46.3749 37.8071 60.88332 13.6907 10.44363 27.9053 16.30755 46.4246 19.15316 3.4306.52717 7.583.97978 9.2268 1.00523l2.9887.0461v-27.47041c0-26.16344-.2633-35.42448-1.0075-35.42448-.4813 0-3.1455 5.55841-3.986 8.31612-.5562 1.82546-.7127 7.25946-.7184 24.74822l-.01 22.40945-4.5482-.71287c-21.2179-3.32434-40.6767-13.26312-54.4652-27.81785-26.1806-27.6356-32.9153-69.06026-16.7998-103.339847C29.7738 33.736995 53.1019 15.37284 82.647 9.004671c7.335-1.580985 25.1839-1.737592 32.4245-.284475 33.8521 6.793672 60.1355 29.791859 70.6848 61.85031 6.4194 19.507807 6.4202 39.063607 0 58.527687-2.3769 7.20709-8.2464 18.86671-12.4562 24.74485-13.9385 19.46221-34.512 32.36304-59.2091 37.12907-3.0643.59137-5.6896 1.07606-5.8346 1.07606-.1449 0-.1915-8.36265-.1034-18.58309.1853-21.53941-.2333-19.60205 6.2809-29.0547 6.1709-8.95433 7.5203-12.19565 9.4327-22.65233l1.1458-6.26295 1.266 4.09959c1.9964 6.46264 1.7474 9.65754-1.2672 16.25782-1.3566 2.97036-2.2769 5.56938-2.0453 5.77496.6984.61986 31.2859 8.19313 35.908 8.89069 3.7799.57042 4.6349.54252 7.0838-.22938 3.315-1.04498 6.2552-3.2626 8.1789-6.1685 2.2792-3.44265 2.5687-5.62272 1.5742-11.84901l-.8714-5.45788 4.5055-4.41779c3.9636-3.88738 4.6101-4.78316 5.3825-7.45708 1.458-5.04714.4771-8.60784-4.1816-15.18401l-2.2297-3.14834 2.5288-4.34246c2.9296-5.02971 3.6438-7.70839 3.0516-11.45435-.7789-4.92692-3.2701-7.990645-9.7003-11.929967-1.5009-.91952-2.7257-1.826087-2.7199-2.016061.01-.189894.3572-2.450892.7826-5.023854.9195-5.561117.4393-8.921534-1.7406-12.167221-2.5569-3.80717-6.1343-5.658134-12.7204-6.581161-1.3722-.192294-2.8061-.660706-3.1866-1.041201-.3805-.380501-1.1041-2.398829-1.6079-4.485264-1.6996-7.038752-3.9589-10.233513-8.7906-12.428082-2.8969-1.315755-9.1897-1.153755-14.4206.369931-.6203.18066-1.6831-.841821-3.679-3.538512-4.8739-6.585075-7.4674-8.201182-13.1748-8.207054-3.4825-.0038-5.3954.693809-10.024 3.653202l-3.8388 2.454582-4.1715-2.534415c-6.1516-3.736268-9.1157-4.316969-14.2474-2.79303-3.1127.92439-5.7852 3.395602-8.9896 8.313873-1.2106 1.858108-2.2764 3.378846-2.368 3.378846-.092 0-1.643-.334922-3.4475-.744358-6.8141-1.546069-9.9519-1.270957-13.7919 1.210987-3.7663 2.434208-5.3998 5.327648-6.7128 11.887242-.719 3.592246-1.0399 4.333546-1.9542 4.518995-10.0952 2.046877-12.0056 2.880803-14.6994 6.412496-.9346 1.2254-1.9676 3.21255-2.2949 4.415555-.5653 2.077362-.4064 7.447618.3508 11.834394.3161 1.831217.2728 1.885759-4.1749 5.11718-5.215 3.788937-6.8229 5.937367-7.6033 10.159027-.7569 4.09458-.061 6.72615 3.2035 12.1155l2.5996 4.29299-2.2994 3.24391c-3.6838 5.19877-4.5064 7.19264-4.4931 10.89102.017 4.74997 1.3231 7.1997 6.363 11.93221l4.2424 3.98379-.6297 4.35932c-1.2048 8.33286-.5245 11.42906 3.3687 15.32231 4.0428 4.0427 8.7669 5.09239 16.0509 3.5655 2.266-.47498 12.6833-2.98971 23.1494-5.58831l19.0295-4.72476.3271-4.9935c.6071-9.25648 1.1209-10.47364 10.285-24.32994 6.086-9.20215 8.3096-13.42685 9.5282-18.10521 1.6206-6.22204.8906-8.52565-4.4481-14.03149l-3.6971-3.81287 2.5682-1.302068c1.4124-.715735 4.0198-1.790515 5.7941-2.388238 3.0901-1.040969 3.3049-1.049472 5.0924-.201269 2.8948 1.373705 3.6483 3.717678 4.0704 12.656335.1958 4.14535.8107 11.16205 1.3661 15.59329.5553 4.43124 1.1402 11.21547 1.3009 15.07494.4798 11.52205-.8238 15.71577-8.4364 27.12747-7.3039 10.94903-6.6847 7.80156-6.8803 34.93535l-.1675 23.33822 4.2615-.35532c14.2354-1.18715 30.6477-6.32536 42.4037-13.27589 25.3443-14.98434 41.4574-38.08555 48.0662-68.91159 1.5185-7.08276 1.6709-8.6299 1.6788-16.8931.01-9.32739-.5651-14.02437-2.8234-23.13133-4.2142-16.994482-10.61-29.774481-21.2907-42.54422-12.2743-14.675129-30.6692-26.540734-48.5002-31.286653C117.172 1.237673 108.3154.049826 99.6221.001536zm-.9602 26.388731c1.2266.01522 2.5227 1.028609 5.6647 3.827485l3.2248 2.872863L105.3936 34.73c-1.19.901737-2.8837 2.165511-3.7634 2.808771-2.8578 2.089642-6.2075 1.25807-7.8686-1.954221-1.6444-3.179896-.2507-7.068197 3.109-8.67031.6958-.331803 1.2392-.530891 1.7968-.523974zm24.8078 4.789978c1.7266-.000007 3.4636.982668 5.1071 2.93583 2.0463 2.432008 1.6123 5.179478-1.2392 7.839372-2.4935 2.325894-4.2061 2.496485-6.8724.684764-3.508-2.38374-3.9515-6.871348-.9557-9.669908 1.2801-1.195849 2.6172-1.790052 3.9602-1.790058zm-48.5317.344069c1.9454.127229 3.7512 1.52739 5.0778 4.127702l1.0424 2.043049-2.3534 3.236046c-1.2943 1.779731-2.6724 3.644273-3.0629 4.144571-.3905.500315-.815.909642-.9434.909642-.3799 0-4.8867-5.358437-5.5445-6.592403-1.1079-2.078145-.7276-3.999883 1.1514-5.82106 1.5222-1.475359 3.1195-2.146503 4.6326-2.047547zm69.5738 11.602766l3.0821 3.261905c3.7629 3.983287 4.0335 5.646752 1.3931 8.573612-2.5422 2.818065-5.6365 3.014717-8.279.52735-3.3893-3.19042-3.0938-5.613235 1.1975-9.812708zm210.77145 1.853025c-8.82847-.004-17.11366 2.092491-25.53531 6.325919-5.75784 2.894379-8.71216 4.97782-13.36021 9.42254-10.8078 10.33502-16.67927 24.21037-16.70195 39.47122-.0219 14.75628 4.95516 26.96115 15.15364 37.16281 8.27937 8.28194 17.57901 13.45357 28.95688 16.10377 3.87142.90175 6.34885 1.06699 13.38608.89278 8.32819-.20618 13.05523-1.05832 22.88395-4.12546.92737-.28939 1.00747-1.56988 1.00747-16.10714 0-12.32182-.16012-15.79231-.72637-15.79231-.39917 0-2.5154 1.2004-4.7034 2.66822-6.15716 4.13052-10.18536 5.90815-14.86242 6.55867-18.22039 2.53422-32.52095-10.87565-31.32713-29.37628.68089-10.55185 5.81784-19.06885 14.00337-23.21678 10.43438-5.287499 20.79398-4.134148 32.16369 3.58012 2.38449 1.61785 4.58622 2.94145 4.89343 2.94145.3473 0 .55883-5.94837.55883-15.727096V50.035442l-3.88596-1.251467c-7.84265-2.527373-15.038-3.800935-21.90459-3.803871zm-83.30402.07646c-5.82339-.02049-8.534.245489-12.21556 1.196373-21.11007 5.452362-35.90837 19.49848-41.73467 39.614016-1.1604 4.00654-1.3108 5.73983-1.2661 14.62068.046 9.19038.1856 10.51927 1.5899 15.14465 2.6902 8.86017 6.6712 15.44816 13.3164 22.03727 8.17 8.10109 18.38822 13.54011 30.23534 16.09365 2.59932.56024 6.29114.73491 12.08963.57232 7.11591-.19952 9.45189-.51887 15.83167-2.16448l7.48406-1.93061.28785-16.00932c.15831-8.80489.0884-16.13126-.15517-16.28143-.2436-.15017-1.66845.62357-3.16633 1.71922-9.5124 6.95797-16.41287 9.12217-25.23509 7.91471-13.62485-1.86479-23.33237-13.22986-23.38994-27.38383-.0552-13.57062 8.66328-24.8652 21.38287-27.702039 9.05325-2.019147 16.54655-.08813 25.65787 6.612639 2.20965 1.62506 4.28216 2.95474 4.60557 2.95495.39007.00023.53321-5.4214.42615-16.10602l-.16079-16.107148-4.73263-1.436991c-8.65072-2.626202-13.02694-3.331091-20.85103-3.35861zm-218.97063.591442c1.9022-.103544 3.9125.739276 5.3871 2.491686 2.0174 2.397605 1.5401 6.000373-1.0997 8.304876-1.6301 1.42306-4.9131 1.515851-6.9713.196774-2.8055-1.797954-3.4479-6.411502-1.2549-9.017751 1.0448-1.241652 2.4594-1.895056 3.9388-1.975585zm332.09507.724118v25.330661h23.60358v81.748958h28.78484V71.702785h21.30079V46.372122h-36.8446zM113.4567 54.436377c.4414.0058.8849.214268 1.6563.629668 2.4634 1.326659 3.123 2.86385 2.0869 4.867563-.4593.888122-1.2862 1.855494-1.8362 2.149866-1.5357.821876-3.934.636525-4.8451-.374428-2.1106-2.342085-1.5554-5.213833 1.2931-6.686852.7645-.395285 1.2036-.591597 1.645-.585817zm-10.0882 1.16601l1.0367 1.298692c1.6792 2.104805 1.7653 3.090318.5026 5.786203-.6519 1.391764-1.3323 2.531045-1.5123 2.531045-.5106 0-2.6142-4.589127-2.6142-5.702997 0-.548196.5826-1.652452 1.2941-2.454587zm17.9737 5.459c1.0372.02775 2.1715.449596 2.8447 1.168262 1.3332 1.423312 1.0592 3.825782-.5936 5.19814-1.3385 1.111227-2.4814 1.152228-3.9242.141673-1.9705-1.380274-1.9525-4.786805.033-6.112283.4307-.287613 1.0182-.412424 1.6405-.395792zm37.3191 4.806845c2.1013.03045 3.4544.948454 4.474 2.947073 1.5775 3.092217 1.3779 4.525282-.9569 6.860018-2.5625 2.56247-4.9506 2.75343-7.3401.58806-2.4413-2.212305-2.7785-4.240721-1.2234-7.361499 1.1741-2.356097 1.4876-2.620118 3.4666-2.915588.5697-.08507 1.0949-.125094 1.5798-.118064zm-118.8983.477874c.3173-.02021.6593.01808 1.0817.08658 4.149.673278 6.3143 4.989231 4.1074 8.18569-.3128.453229-1.5378 1.919487-2.7221 3.258537l-2.1533 2.43547-3.4339-3.83761c-1.8889-2.11048-3.4351-4.069019-3.4351-4.352584 0-.283571 1.3027-1.747712 2.8942-3.252912 1.9829-1.875396 2.7093-2.462463 3.6611-2.523171zm67.939 9.498997c-.095.012-.1856.042-.2688.0933-.228.14096-.4149.59326-.4149 1.00521 0 .88208 1.3395 1.00654 1.8553.17204.3429-.55475-.508-1.35475-1.1716-1.27058zm55.0859 14.76797c.4013-.008.8118.0407 1.2256.15292 2.0688.56099 4.8608 3.69031 4.8608 5.44776 0 1.61989-1.2326 3.78262-2.8347 4.97326-2.6334 1.95718-5.6471 1.28371-7.7606-1.73384-2.4277-3.46602.6293-8.76731 4.5089-8.8401zm-127.2099.59482c2.154 0 4.6327 2.01212 5.4207 4.39981.4965 1.50433.4217 2.08458-.506 3.90281-.6108 1.1973-1.6661 2.35367-2.4017 2.63337-1.5628.59447-3.7071.59694-5.1431.006-1.3832-.5697-3.3788-3.35081-3.3788-4.70903 0-2.90758 3.2061-6.23259 6.0089-6.23259zm55.0364 17.67232c.1531 0-.5258 1.25664-1.5079 2.7919-2.5748 4.02513-5.7296 10.45665-7.0455 14.36207-.6261 1.85826-1.5298 5.48296-2.0082 8.05526l-.8703 4.67641-1.301-2.33764c-.7155-1.28582-1.8466-3.61282-2.5141-5.17116-1.1067-2.58316-1.1603-3.07603-.5993-5.58268.7576-3.38573 3.8163-8.02821 7.1726-10.88765 2.3902-2.03633 8.0734-5.90651 8.6737-5.90651zm69.0881 7.2468c1.3133-.0111 2.6865.35501 3.6374 1.10305 2.6418 2.07813 2.6693 6.38833.056 8.67369-2.8015 2.44852-7.4163.96054-8.3319-2.68734-.4827-1.92329.1342-4.61036 1.3617-5.92788.7099-.76204 1.9632-1.15042 3.2765-1.16152zm-120.4579.7781c.5333.0267 1.0731.19704 1.6574.49923 2.0989 1.08538 3.2214 3.01764 3.2214 5.54446 0 1.75139-.3275 2.47628-1.7675 3.91631-2.4767 2.47672-4.6753 2.22743-7.2412-.82194-2.0196-2.40009-1.9079-5.02778.3025-7.12649 1.5127-1.43633 2.6543-2.07035 3.8274-2.01157z"/></svg>