<svg xmlns="http://www.w3.org/2000/svg" width="400" height="174"><path fill="#fff" d="M106.56 15c-18.77-.1-36.49 7.18-50.45 21.12-9.68 9.67-15.72 20.83-19.25 35.57-2.58 10.79-2.68 17.77-.4 28.82 3.57 17.36 13.52 33.38 27.22 43.83 9.85 7.52 20.09 11.74 33.42 13.8 2.47.37 5.46.7 6.65.72l2.15.03V139.1c0-18.84-.2-25.5-.73-25.5-.34 0-2.26 4-2.87 5.98-.4 1.32-.51 5.23-.51 17.82l-.01 16.14-3.28-.52c-15.27-2.4-29.28-9.55-39.21-20.03-18.85-19.9-23.7-49.72-12.1-74.4 9.08-19.3 25.88-32.53 47.15-37.12 5.28-1.13 18.13-1.25 23.34-.2 24.38 4.89 43.3 21.45 50.9 44.53a65.76 65.76 0 010 42.14c-1.71 5.19-5.94 13.58-8.97 17.82-10.04 14.01-24.85 23.3-42.63 26.73-2.2.43-4.1.77-4.2.77-.1 0-.14-6.02-.08-13.38.14-15.5-.17-14.1 4.53-20.91 4.44-6.45 5.41-8.79 6.79-16.31l.82-4.51.91 2.95c1.44 4.65 1.26 6.95-.9 11.7-.99 2.14-1.65 4.01-1.48 4.16.5.45 22.52 5.9 25.85 6.4 2.72.41 3.34.4 5.1-.16 2.39-.75 4.5-2.35 5.9-4.44 1.63-2.48 1.84-4.05 1.12-8.53l-.62-3.93 3.24-3.19c2.85-2.8 3.32-3.44 3.88-5.36 1.05-3.64.34-6.2-3.01-10.94l-1.61-2.26 1.82-3.13c2.11-3.62 2.62-5.55 2.2-8.25-.56-3.54-2.36-5.75-6.99-8.59-1.08-.66-1.96-1.31-1.95-1.45 0-.14.25-1.76.56-3.62.66-4 .32-6.42-1.25-8.76-1.85-2.74-4.42-4.07-9.16-4.73a5.4 5.4 0 01-2.3-.75c-.27-.28-.8-1.73-1.15-3.23-1.23-5.07-2.86-7.37-6.33-8.95-2.09-.95-6.62-.83-10.39.26-.44.13-1.2-.6-2.65-2.54-3.5-4.74-5.37-5.9-9.48-5.91-2.5 0-3.89.5-7.22 2.63l-2.76 1.77-3-1.83c-4.44-2.69-6.57-3.1-10.26-2.01-2.25.67-4.17 2.44-6.48 5.99a23.05 23.05 0 01-1.7 2.43c-.07 0-1.19-.24-2.48-.54-4.91-1.11-7.17-.91-9.93.87-2.72 1.76-3.9 3.84-4.84 8.56-.52 2.59-.75 3.12-1.4 3.26-7.27 1.47-8.65 2.07-10.59 4.61a11.3 11.3 0 00-1.65 3.18c-.4 1.5-.3 5.37.25 8.52.23 1.32.2 1.36-3 3.69-3.76 2.73-4.92 4.27-5.48 7.31-.54 2.95-.04 4.85 2.3 8.73l1.88 3.09-1.66 2.33c-2.65 3.75-3.24 5.18-3.23 7.84.01 3.42.95 5.19 4.58 8.6l3.06 2.86-.46 3.14c-.87 6-.38 8.23 2.43 11.03 2.9 2.92 6.3 3.67 11.55 2.57 1.64-.34 9.14-2.15 16.67-4.02l13.7-3.4.24-3.6c.44-6.66.8-7.54 7.4-17.52 4.39-6.62 5.99-9.66 6.86-13.03 1.17-4.48.65-6.14-3.2-10.1l-2.66-2.75 1.85-.94c1.02-.51 2.9-1.29 4.17-1.72 2.22-.75 2.38-.75 3.67-.14 2.08.99 2.62 2.67 2.93 9.11.14 2.98.58 8.04.98 11.23.4 3.19.82 8.07.94 10.85.34 8.3-.6 11.32-6.08 19.53-5.26 7.89-4.81 5.62-4.95 25.16l-.12 16.8 3.07-.26c10.25-.85 22.06-4.55 30.53-9.55 18.25-10.8 29.85-27.43 34.6-49.62 1.1-5.1 1.2-6.21 1.21-12.16.01-6.72-.4-10.1-2.03-16.66-3.03-12.23-7.64-21.44-15.33-30.63-8.84-10.57-22.08-19.11-34.92-22.53A75.56 75.56 0 00106.56 15zm-.69 19c.89.01 1.82.74 4.08 2.76l2.32 2.07-1.55 1.18-2.71 2.02c-2.06 1.5-4.47.9-5.67-1.4a4.6 4.6 0 012.24-6.25c.5-.24.9-.38 1.3-.38zm17.86 3.45c1.25 0 2.5.7 3.68 2.11 1.48 1.75 1.16 3.73-.89 5.65-1.8 1.67-3.03 1.8-4.95.5-2.52-1.73-2.84-4.96-.69-6.97a4.2 4.2 0 012.85-1.29zm-34.94.25c1.4.09 2.7 1.1 3.66 2.97l.75 1.47-1.7 2.33a180.1 180.1 0 01-2.2 2.98c-.28.36-.59.66-.68.66-.27 0-3.52-3.86-4-4.75-.79-1.5-.52-2.88.84-4.19 1.1-1.06 2.24-1.54 3.33-1.47zm50.1 8.35l2.21 2.35c2.71 2.87 2.9 4.07 1 6.17-1.82 2.03-4.05 2.17-5.95.38-2.44-2.3-2.23-4.04.86-7.06zm151.75 1.34a40 40 0 00-18.38 4.55 33.9 33.9 0 00-9.62 6.78 38.8 38.8 0 00-12.03 28.42c-.02 10.63 3.57 19.42 10.91 26.76a41.86 41.86 0 0020.85 11.6c2.79.65 4.57.76 9.64.64 6-.15 9.4-.76 16.47-2.97.67-.21.73-1.13.73-11.6 0-8.87-.12-11.37-.52-11.37-.3 0-1.81.86-3.39 1.92-4.43 2.98-7.33 4.26-10.7 4.72-13.12 1.83-23.42-7.83-22.56-21.15.5-7.6 4.2-13.73 10.09-16.71 7.5-3.81 14.97-2.98 23.15 2.57 1.72 1.17 3.3 2.12 3.53 2.12.25 0 .4-4.28.4-11.32V51.03l-2.8-.9c-5.64-1.83-10.83-2.74-15.77-2.74zm-59.98.05c-4.2-.01-6.14.18-8.8.86-15.2 3.93-25.85 14.04-30.04 28.52-.84 2.89-.95 4.14-.91 10.53.03 6.62.13 7.57 1.14 10.9a35.51 35.51 0 009.59 15.87 43.39 43.39 0 0021.77 11.59c1.87.4 4.53.53 8.7.41 5.13-.14 6.8-.37 11.4-1.56l5.39-1.39.2-11.52c.12-6.34.07-11.62-.1-11.73-.18-.1-1.2.45-2.28 1.24-6.85 5.01-11.82 6.57-18.17 5.7-9.81-1.34-16.8-9.53-16.84-19.72-.04-9.77 6.23-17.9 15.4-19.94 6.5-1.46 11.9-.07 18.46 4.76 1.6 1.17 3.09 2.13 3.32 2.13.28 0 .38-3.9.3-11.6l-.1-11.6-3.42-1.03c-6.22-1.9-9.38-2.4-15-2.42zM73 47.87a4.78 4.78 0 013.88 1.8c1.45 1.72 1.11 4.31-.79 5.97-1.17 1.02-3.54 1.1-5.02.14-2.02-1.3-2.48-4.61-.9-6.5A3.94 3.94 0 0173 47.88zm239.11.52v18.24h17v58.86h20.72V66.63h15.34V48.39h-26.53zm-195.59 5.8c.32 0 .64.16 1.2.46 1.77.95 2.24 2.06 1.5 3.5a4.24 4.24 0 01-1.33 1.55c-1.1.6-2.83.46-3.48-.27-1.52-1.69-1.12-3.75.93-4.81.55-.29.86-.43 1.18-.43zm-7.26.84l.74.94c1.21 1.51 1.28 2.22.37 4.16-.47 1-.96 1.83-1.1 1.83-.36 0-1.87-3.3-1.87-4.1 0-.4.41-1.2.93-1.78zm12.94 3.93c.75.02 1.56.33 2.05.85.96 1.02.76 2.75-.43 3.74-.96.8-1.79.83-2.83.1-1.41-1-1.4-3.45.03-4.4.3-.2.73-.3 1.18-.29zm26.87 3.47c1.51.02 2.49.68 3.22 2.12 1.14 2.22 1 3.26-.69 4.94-1.84 1.84-3.56 1.98-5.28.42-1.76-1.6-2-3.05-.88-5.3.84-1.7 1.07-1.89 2.5-2.1.4-.06.78-.09 1.13-.08zm-85.6.34c.22-.02.47.01.77.06 2.99.49 4.55 3.6 2.96 5.9-.23.32-1.1 1.38-1.96 2.34l-1.55 1.75-2.47-2.76c-1.36-1.52-2.48-2.93-2.48-3.13 0-.2.94-1.26 2.09-2.34 1.42-1.35 1.95-1.78 2.63-1.82zm48.9 6.84a.48.48 0 00-.19.07c-.16.1-.3.42-.3.72 0 .63.97.72 1.34.12.25-.4-.36-.97-.84-.91zm39.67 10.63c.29 0 .58.03.88.11 1.5.4 3.5 2.66 3.5 3.92 0 1.17-.89 2.73-2.04 3.58-1.9 1.41-4.06.93-5.59-1.24-1.74-2.5.46-6.32 3.25-6.37zm-91.6.43c1.56 0 3.34 1.45 3.91 3.17.36 1.08.3 1.5-.36 2.8-.44.87-1.2 1.7-1.73 1.9a5.51 5.51 0 01-3.7 0c-1-.4-2.44-2.4-2.44-3.38 0-2.1 2.31-4.49 4.33-4.49zm39.63 12.72c.12 0-.37.9-1.08 2.01a57.1 57.1 0 00-5.07 10.34 52.2 52.2 0 00-1.45 5.8l-.63 3.37-.93-1.68c-.52-.93-1.33-2.6-1.81-3.72-.8-1.86-.84-2.22-.43-4.02.54-2.44 2.74-5.78 5.16-7.84 1.72-1.47 5.81-4.26 6.24-4.26zm49.75 5.22c.94 0 1.93.26 2.62.8 1.9 1.5 1.92 4.6.04 6.24-2.02 1.76-5.34.7-6-1.93-.35-1.39.1-3.32.98-4.27.51-.55 1.41-.83 2.36-.84zm-86.73.56c.38.02.77.14 1.2.36a4.23 4.23 0 012.31 4c0 1.25-.23 1.78-1.27 2.81-1.78 1.79-3.37 1.6-5.21-.59-1.46-1.73-1.38-3.62.21-5.13 1.1-1.03 1.91-1.5 2.76-1.45z"/></svg>