<svg xmlns="http://www.w3.org/2000/svg" width="400" height="174"><path fill="#fff" d="M137.36 142.934c-15.577-1.44-28.534-11.295-33.75-25.673-1.035-2.854-1.915-6.791-2.246-10.045-.16-1.565-.264-10.036-.264-21.404V66.997l-4.54-.164c-7.05-.256-30.333-.19-32.845.092-3.28.368-5.921 1.114-8.753 2.47-5.66 2.713-9.74 7.179-11.554 12.653-.569 1.716-.665 2.445-.681 5.126-.02 3.435.218 4.457 1.753 7.53 2.627 5.258 8.694 9.904 15.234 11.664l2.5.674 14.317.08 14.317.08v32.487l-14.317-.002c-7.874 0-15.33-.114-16.567-.251-14.984-1.663-28.906-8.804-38.264-19.627-7.033-8.135-10.964-17.831-11.582-28.57-.578-10.03.958-18.437 4.831-26.446 5.443-11.256 15.003-20.21 27.357-25.625 5.578-2.445 12.706-4.238 18.86-4.745 2.043-.169 15.722-.264 37.817-.264H133.6l.067 35.448.068 35.447.527 1.126c.75 1.6 2.686 3.406 4.185 3.904 2.525.84 5.808-.124 7.438-2.181 1.65-2.084 1.574-1.064 1.733-23.105.14-19.389.161-20.08.692-22.454.742-3.318 1.6-5.779 3.171-9.083 4.688-9.859 12.65-16.879 23.08-20.347 3.767-1.253 6.575-1.747 10.965-1.93 6.689-.278 12.436.908 18.48 3.813 11.132 5.354 18.817 15.234 21.555 27.717l.664 3.029.143 19.88.144 19.881.584 1.126c1.238 2.382 3.117 3.714 5.552 3.935 2.823.256 5.359-1.22 6.665-3.88l.702-1.43.066-35.448.066-35.448h32.521l-.079 37.073c-.088 41.58.039 38.672-1.96 44.78-4.87 14.886-18.295 25.492-34.045 26.897-1.66.148-3.947.153-6.002.012-13.928-.953-26.228-9.067-32.416-21.383-1.808-3.599-2.853-6.72-3.844-11.482-.159-.766-.32-9.01-.415-21.256l-.155-20.006-.665-1.25c-1.362-2.56-3.461-3.866-6.212-3.866-3.095 0-5.525 1.775-6.564 4.794-.196.568-.333 6.997-.446 20.828-.154 18.963-.19 20.13-.682 22.407-1.69 7.82-5.103 14.063-10.795 19.74-5.488 5.472-11.014 8.613-18.398 10.456-3.875.967-8.891 1.377-12.63 1.031zm148.91-56.01l-.007-52.765h36.401v12.989c0 7.92.093 13.046.238 13.135.324.2 3.654-4.272 10.047-13.495 2.955-4.264 6.184-8.85 7.174-10.19l1.801-2.44h21.644c17.25 0 21.606.064 21.455.313-.104.172-3.47 4.983-7.478 10.691-14.849 21.141-27.703 39.648-27.804 40.031-.063.237 7.915 11.088 19.948 27.133a21241.021 21241.021 0 0020.304 27.05c.201.25-4.053.313-21.11.313H347.52l-7.364-9.899-11.183-15.033c-4.42-5.942-5.853-7.637-6.117-7.233-.101.155-.186 7.455-.188 16.223l-.004 15.942H286.28l-.008-52.765zm30.393 25.007c0-12.653.084-23.003.187-22.999.103.004.693.707 1.312 1.563 3.77 5.22 30.99 41.554 31.96 42.661 1.027 1.175 1.334 1.37 2.426 1.548 1.478.241 22.908.302 24.832.07.91-.109 1.289-.257 1.207-.47-.15-.392-16.568-22.45-27.54-37.002-4.562-6.052-8.442-11.239-8.622-11.527-.301-.483.727-2.035 13.171-19.88 19.35-27.75 18.37-26.307 18.017-26.53-.17-.109-6.508-.199-14.084-.2l-13.775-.005-7.595 10.816a5779.489 5779.489 0 00-14.195 20.318c-3.63 5.227-6.757 9.668-6.95 9.87-.302.314-.351-2.556-.351-20.322V39.155l-12.066.065-12.066.065-.064 47.514c-.036 26.132-.011 47.654.054 47.826.093.244 2.751.313 12.13.313h12.012z"/></svg>