<svg xmlns="http://www.w3.org/2000/svg" width="677.89996" height="200.00003"><path fill="#fff" d="M227.2051758 199.78406c-27.79091-2.56888-50.90495-20.15123-60.20845-45.79926-1.84732-5.09271-3.41823-12.11571-4.00851-17.92058-.28386-2.79161-.46978-17.9029-.46978-38.184V64.31617l-8.10159-.29345c-12.57512-.4555-54.110145-.33865-58.592668.16484-5.849903.65707-10.562493 1.9873-15.614041 4.40739-10.099077 4.83827-17.374256 12.80491-20.611386 22.57041-1.014895 3.06163-1.187688 4.36157-1.21566 9.14536-.03582 6.12838.388576 7.95152 3.127211 13.43344 4.685944 9.37985 15.510083 17.66771 27.176028 20.80823l4.461155 1.20096 25.540111.14373 25.54011.14372v57.95417l-25.54011-.004c-14.04706-.0018-27.346879-.20369-29.55515-.44868-26.730042-2.96568-51.566572-15.70531-68.260321-35.0135C8.3252484 144.01692 1.3131755 126.71993.2101125 107.56087-.8200346 89.66829 1.9197132 74.6714 8.8288615 60.38339c9.7094593-20.079 26.7637433-36.05335 48.8028503-45.71248 9.951636-4.36153 22.668063-7.56138 33.644082-8.46591 3.646093-.30048 28.049132-.47075 67.466032-.47075h61.75376l.12046 63.23686.12046 63.23687.94035 2.00752c1.33714 2.85457 4.79141 6.07732 7.46614 6.96573 4.50506 1.49633 10.36174-.22131 13.26849-3.89138 2.94475-3.71806 2.80818-1.89739 3.09191-41.21722.2496-34.58894.28765-35.8239 1.23394-40.05698 1.32343-5.92014 2.85627-10.30971 5.65822-16.20339 8.36164-17.58803 22.56642-30.11141 41.17276-36.29919 6.72078-2.23509 11.73004-3.11666 19.56168-3.44264 11.93193-.49664 22.18456 1.61911 32.96495 6.80273 19.86124 9.55003 33.56953 27.1764 38.45413 49.44503l1.18526 5.40355.2555 35.46618.2555 35.46617 1.04269 2.00752c2.2076 4.25031 5.56018 6.6267 9.90462 7.02064 5.03583.45664 9.55927-2.17649 11.88891-6.92059l1.25401-2.55368.11755-63.23687.11754-63.23686h58.01615l-.14111 66.13662c-.15824 74.17709.0688 68.98898-3.49639 79.88623-8.68783 26.55475-32.63793 45.47555-60.73544 47.98152-2.95998.264-7.0413.27215-10.70677.0214-24.84667-1.69982-46.78959-16.17417-57.82921-38.14626-3.22553-6.41976-5.08893-11.98654-6.85655-20.48346-.28406-1.36551-.57127-16.07157-.74057-37.91981l-.27656-35.68923-1.18698-2.23058c-2.42908-4.56471-6.17435-6.89518-11.08119-6.89518-5.52102 0-9.85655 3.16623-11.71064 8.5523-.34883 1.01333-.59423 12.48079-.79509 37.15494-.27539 33.82977-.33875 35.91242-1.21593 39.97304-3.01393 13.95183-9.10388 25.08739-19.25856 35.21451-9.78987 9.76331-19.64752 15.36588-32.82181 18.65418-6.91223 1.7253-15.86068 2.45599-22.52883 1.83962zm265.6475-99.91948l-.0143-94.13033h64.9383v23.17168c0 14.12977.16516 23.27373.42319 23.43322.57857.35756 6.51926-7.6222 17.92403-24.07607 5.27214-7.60627 11.0314-15.78691 12.79833-18.1792l3.21262-4.34963h38.61169c30.7717 0 38.54321.11323 38.27452.55764-.18541.30671-6.1886 8.88885-13.34042 19.07144-26.48944 37.71509-49.42044 70.72994-49.60121 71.41326-.11175.42243 14.12094 19.78113 35.58663 48.40353 19.67508 26.23476 35.97493 47.9505 36.22194 48.2572.35859.44527-7.23068.55765-37.66044.55765h-38.10959l-13.1368-17.65965c-7.22525-9.71281-16.2026-21.78122-19.94971-26.81869-7.88482-10.60015-10.44182-13.62317-10.91336-12.90239-.18028.27556-.33084 13.29895-.33459 28.94087l-.007 28.43986-32.4549-.00003-32.4549-.00004-.0143-94.13032zm54.21725 44.61157c0-22.57344.15057-41.03676.33459-41.02961.18402.007 1.23681 1.26185 2.33956 2.78822 6.72653 9.31067 55.28566 74.12956 57.01463 76.10573 1.83295 2.09498 2.3802 2.44412 4.32879 2.76163 2.63592.42952 40.86591.53728 44.2998.12487 1.62319-.19494 2.29807-.45837 2.15166-.83988-.26834-.69926-29.55533-40.04988-49.12748-66.00871-8.13983-10.79599-15.06202-20.04949-15.38264-20.56333-.53744-.86133 1.29672-3.62985 23.4965-35.46618 34.51871-49.50274 32.77057-46.92866 32.1415-47.32823-.30349-.19274-11.60989-.35351-25.12536-.35727l-24.5736-.007-13.54946 19.29449c-7.45223 10.61197-18.84744 26.92307-25.32272 36.24688-6.47527 9.32381-12.05506 17.24635-12.39951 17.60563-.53784.56099-.62626-4.5583-.62626-36.25117v-36.9044l-21.52507.11581-21.52507.11582-.11443 84.76193c-.0629 46.61906-.0192 85.01288.0975 85.31958.1655.43544 4.90793.55764 21.63949.55764h21.42755z"/></svg>