<svg xmlns="http://www.w3.org/2000/svg" width="400" height="174"><path d="M37.872 47.155v13.117H23.118V47.155H10v35.91h13.118V69.39h14.754v13.675h13.119v-35.91H37.872m44.805 0v23.164c0 3.546-1.209 3.906-6.38 3.906-5.312 0-7.467-.133-7.467-3.487V47.155H55.712v23.768c0 8.635 1.947 12.42 20.586 12.42 12.349 0 19.497-2.031 19.497-12.42V47.155H82.677m51.094 0l.702 25.995-12.612-25.995h-21.27v35.91h13.132l-.704-25.98 12.43 25.98h21.453v-35.91h-13.131m16.952 0v9.12h11.607v26.79h13.119v-26.79h12.213v-9.12h-36.94m39.09 10.886c0 10.11 6.384 10.447 16.961 11.004l4.329.226c5.435.265 5.435.31 5.435 2.723 0 2.293-1.054 2.696-7.044 2.696-6.177 0-7.106-.456-7.106-3.487v-.513h-12.636v.513c0 12.14 8.712 12.14 19.742 12.14 9.538 0 15.25-1.27 17.977-3.998 2.188-2.19 2.186-4.992 2.184-7.701v-.254c0-8.409-3.673-9.807-17.232-10.56l-5.019-.278c-3.478-.202-4.473-.358-4.473-2.558 0-1.431 0-2.464 6.563-2.464 5.062 0 6.256.113 6.256 3.068v.513h12.636v-1.954c0-10.28-9.177-10.28-18.892-10.28-12.246 0-19.682.75-19.682 11.164m80.233-10.886s-7.596 20.236-8.085 21.543l-8.503-21.543h-20.028v35.91h13.143l-1.15-25.432 11.04 25.432h11.132s9.846-22.918 10.983-25.57l-1.156 25.57h13.143v-35.91h-20.519m56.545 0h-19.08l-14.002 35.91h13.683l2.235-6h15.56l2.358 6h13.438zm-15.651 23.12l5.873-16.143h.838l6.004 16.142h-12.715m65.929-23.12l.705 25.999-12.613-25.998h-21.27v35.91h13.131l-.703-25.98 12.428 25.98H390v-35.91h-13.132M10 32.263v7.442h379.998v-7.442H10m0 58.26v7.44h379.998v-7.44H10m0 26.57h13.205v1.554H11.822v6.911h10.66v1.553h-10.66v7.554h11.516v1.554H10v-19.126m15.535 5.304h1.687v2.384h.054c.616-1.66 2.464-2.785 4.42-2.785 3.883 0 5.062 2.035 5.062 5.33v8.893H35.07v-8.626c0-2.383-.777-4.177-3.509-4.177-2.678 0-4.286 2.035-4.34 4.74v8.063h-1.687v-13.822m14.41 0H41.5v3.242h.052c.858-2.223 2.733-3.537 5.224-3.429v1.687c-3.054-.161-5.143 2.09-5.143 4.955v7.367h-1.687v-13.822m8.462-5.304h1.689v2.705h-1.689zm0 5.304h1.689v13.822h-1.689v-13.822m14.679 4.34c-.455-2.063-1.714-3.322-3.91-3.322-3.242 0-4.849 2.946-4.849 5.893 0 2.946 1.607 5.893 4.848 5.893 2.089 0 3.804-1.634 4.018-3.938h1.688c-.456 3.322-2.626 5.358-5.706 5.358-4.232 0-6.535-3.348-6.535-7.312 0-3.965 2.303-7.313 6.535-7.313 2.947 0 5.223 1.58 5.599 4.74h-1.688m4.125-9.643h1.687v7.688h.054c.615-1.66 2.464-2.785 4.42-2.785 3.883 0 5.062 2.035 5.062 5.33v8.893h-1.688v-8.626c0-2.383-.777-4.177-3.508-4.177-2.68 0-4.285 2.035-4.34 4.74v8.063h-1.687v-19.126m14.436 0h1.688v2.705h-1.688zm0 5.304h1.688v13.822h-1.688v-13.822m4.902 0h1.687v2.384h.054c.616-1.66 2.464-2.785 4.42-2.785 3.884 0 5.062 2.035 5.062 5.33v8.893h-1.688v-8.626c0-2.383-.777-4.177-3.509-4.177-2.678 0-4.285 2.035-4.339 4.74v8.063H86.55v-13.822m26.089 12.697c-.027 4.125-1.608 6.643-6.134 6.643-2.759 0-5.492-1.232-5.732-4.178h1.687c.374 2.035 2.17 2.758 4.045 2.758 3.106 0 4.446-1.848 4.446-5.223v-1.876h-.054c-.777 1.688-2.41 2.84-4.392 2.84-4.42 0-6.24-3.16-6.24-7.098 0-3.803 2.249-6.964 6.24-6.964 2.008 0 3.723 1.258 4.393 2.784h.053v-2.383h1.688zm-1.688-5.947c0-2.706-1.259-5.731-4.446-5.731-3.214 0-4.555 2.865-4.555 5.731 0 2.787 1.448 5.491 4.555 5.491 2.919 0 4.446-2.678 4.446-5.49m12.375-12.055h1.687v19.126h-1.687v-19.126m4.955 0h1.687v2.705h-1.687zm0 5.304h1.687v13.822h-1.687v-13.822m3.375 0h1.875l4.339 12.135h.054l4.285-12.135h1.742l-5.17 13.822h-1.795l-5.33-13.822m14.946 7.366c.027 2.464 1.313 5.438 4.553 5.438 2.464 0 3.804-1.446 4.34-3.535h1.687c-.723 3.133-2.545 4.954-6.027 4.954-4.392 0-6.24-3.374-6.24-7.311 0-3.644 1.848-7.313 6.24-7.313 4.446 0 6.216 3.884 6.08 7.767zm8.947-1.42c-.081-2.543-1.661-4.928-4.393-4.928-2.76 0-4.287 2.41-4.554 4.929h8.947m12.24-1.903c-.081-2.088-1.688-3.026-3.617-3.026-1.5 0-3.266.59-3.266 2.385 0 1.5 1.714 2.035 2.865 2.33l2.25.509c1.93.294 3.938 1.42 3.938 3.83 0 3-2.974 4.152-5.545 4.152-3.215 0-5.412-1.5-5.68-4.875h1.69c.134 2.277 1.82 3.455 4.07 3.455 1.58 0 3.776-.696 3.776-2.625 0-1.607-1.5-2.143-3.027-2.517l-2.17-.483c-2.195-.589-3.856-1.339-3.856-3.696 0-2.813 2.76-3.885 5.197-3.885 2.758 0 4.955 1.447 5.063 4.446h-1.688m14.73-4.044h2.812v1.42h-2.812v9.321c0 1.098.161 1.741 1.366 1.822a12.8 12.8 0 001.446-.08v1.446c-.508 0-.99.053-1.499.053-2.25 0-3.026-.75-3-3.106v-9.456h-2.41v-1.42h2.41v-4.152h1.687v4.152m5.224-5.304h1.687v7.688h.055c.615-1.66 2.463-2.786 4.418-2.786 3.884 0 5.063 2.036 5.063 5.332v8.892h-1.687v-8.626c0-2.383-.778-4.177-3.51-4.177-2.678 0-4.284 2.035-4.339 4.74v8.063h-1.687v-19.126m14.411 5.304h1.553v3.242h.054c.856-2.223 2.73-3.537 5.224-3.429v1.687c-3.056-.161-5.145 2.09-5.145 4.955v7.367h-1.686v-13.822m20.334 6.912c0 3.964-2.303 7.312-6.536 7.312-4.231 0-6.536-3.348-6.536-7.312 0-3.965 2.305-7.313 6.536-7.313 4.233 0 6.536 3.348 6.536 7.313zm-11.384 0c0 2.946 1.608 5.892 4.848 5.892 3.241 0 4.848-2.947 4.848-5.893 0-2.947-1.607-5.893-4.848-5.893-3.24 0-4.848 2.946-4.848 5.893m25.097 6.91h-1.553v-2.49h-.054c-.883 1.848-2.704 2.892-4.768 2.892-3.482 0-4.849-2.035-4.849-5.25v-8.973h1.687v9.001c.08 2.49 1.02 3.803 3.699 3.803 2.893 0 4.15-2.732 4.15-5.545v-7.259h1.688v13.822m14.865-1.125c-.026 4.125-1.607 6.643-6.135 6.643-2.758 0-5.489-1.232-5.73-4.178h1.687c.375 2.035 2.168 2.758 4.043 2.758 3.108 0 4.448-1.848 4.448-5.223v-1.876h-.054c-.777 1.688-2.41 2.84-4.394 2.84-4.416 0-6.24-3.16-6.24-7.098 0-3.803 2.251-6.964 6.24-6.964 2.01 0 3.724 1.258 4.393 2.784h.055v-2.383h1.687zm-1.687-5.947c0-2.706-1.257-5.731-4.448-5.731-3.212 0-4.551 2.865-4.551 5.731 0 2.787 1.446 5.491 4.551 5.491 2.921 0 4.448-2.678 4.448-5.49m4.874-12.055h1.686v7.688h.057c.616-1.66 2.463-2.786 4.418-2.786 3.885 0 5.063 2.036 5.063 5.332v8.892h-1.688v-8.626c0-2.383-.777-4.177-3.51-4.177-2.678 0-4.283 2.035-4.34 4.74v8.063h-1.686v-19.126m21.884 0h1.69v2.705h-1.69zm0 5.304h1.69v13.822h-1.69v-13.822m4.903 0h1.686v2.384h.054c.616-1.66 2.464-2.785 4.42-2.785 3.883 0 5.063 2.035 5.063 5.33v8.893h-1.687v-8.626c0-2.383-.777-4.177-3.51-4.177-2.679 0-4.285 2.035-4.34 4.74v8.063h-1.686v-13.822m14.382 0h1.687v2.384h.054c.616-1.66 2.462-2.785 4.42-2.785 3.882 0 5.06 2.035 5.06 5.33v8.893h-1.686v-8.626c0-2.383-.776-4.177-3.509-4.177-2.68 0-4.285 2.035-4.338 4.74v8.063h-1.688v-13.822m26.783 6.912c0 3.964-2.303 7.312-6.534 7.312s-6.536-3.348-6.536-7.312c0-3.965 2.305-7.313 6.536-7.313s6.534 3.348 6.534 7.313zm-11.383 0c0 2.946 1.61 5.892 4.849 5.892 3.24 0 4.848-2.947 4.848-5.893 0-2.947-1.608-5.893-4.848-5.893-3.24 0-4.85 2.946-4.85 5.893m12.35-6.91h1.874l4.339 12.134h.054l4.286-12.135h1.74l-5.168 13.822H328.5l-5.332-13.822m13.797 4.233c.16-3.242 2.438-4.634 5.597-4.634 2.438 0 5.09.749 5.09 4.446v7.34c0 .643.322 1.017.99 1.017.189 0 .402-.054.537-.107v1.42c-.375.08-.643.107-1.1.107-1.713 0-1.981-.964-1.981-2.41h-.054c-1.178 1.794-2.382 2.812-5.035 2.812-2.544 0-4.634-1.26-4.634-4.045 0-3.884 3.778-4.017 7.421-4.447 1.393-.16 2.168-.347 2.168-1.875 0-2.277-1.632-2.838-3.616-2.838-2.088 0-3.643.964-3.696 3.214zm9 2.035h-.053c-.214.402-.966.535-1.42.616-2.868.51-6.43.482-6.43 3.188 0 1.687 1.5 2.732 3.082 2.732 2.57 0 4.848-1.634 4.82-4.34v-2.196m7.741-6.268h2.813v1.42h-2.813v9.321c0 1.098.16 1.741 1.366 1.822.481 0 .964-.026 1.447-.08v1.446c-.511 0-.992.053-1.5.053-2.25 0-3.027-.75-3-3.106v-9.456h-2.41v-1.42h2.41v-4.152h1.687v4.152m5.275-5.304h1.689v2.705h-1.689zm0 5.304h1.689v13.822h-1.689v-13.822m17.304 6.912c0 3.964-2.302 7.312-6.536 7.312-4.231 0-6.534-3.348-6.534-7.312 0-3.965 2.303-7.313 6.534-7.313 4.234 0 6.536 3.348 6.536 7.313zm-11.384 0c0 2.946 1.61 5.892 4.848 5.892 3.242 0 4.85-2.947 4.85-5.893 0-2.947-1.609-5.893-4.85-5.893-3.239 0-4.848 2.946-4.848 5.893m13.876-6.91h1.687v2.383h.053c.616-1.66 2.465-2.785 4.42-2.785 3.884 0 5.06 2.035 5.06 5.33v8.893h-1.683v-8.626c0-2.383-.777-4.177-3.51-4.177-2.68 0-4.286 2.035-4.34 4.74v8.063h-1.687v-13.822" fill="#fff"/></svg>