<svg xmlns="http://www.w3.org/2000/svg" width="600.107" height="130.007"><path fill="#fff" d="M599.907 87.7h-11.4c-.7 0-1.4-.3-1.8-1-7-10.1-14.1-20.2-21.1-30.3-.8-1.2-1.7-2.4-2.5-3.6-.3-.6-.9-.9-1.5-.7-1.1.1-2.4-.4-3.1.2-.7.6-.2 2.1-.2 3.1v31c0 1.1-.3 1.4-1.4 1.3-2.7-.1-5.4 0-8.1 0-.7 0-1-.2-1-.9V5.1c0-1.1.3-1.4 1.4-1.4 5.5.1 10.9-.1 16.4.1 5.5.2 11.1.7 16.2 3.4 6.4 3.5 10 8.9 11.4 16 1.3 6.4 0 13-3.8 18.4-3.4 5.1-8.9 8.6-15 9.4-.8.1-.9.3-.4 1 6 8.2 12 16.5 18 24.7 2.5 3.5 5.1 7 7.6 10.4.1.2.2.4.5.5zm-41.7-59.6v14.3c0 .5-.1 1 .8 1.1 4.9 0 9.7 0 14.5-1.4 3.5-.8 6.5-3 8.4-5.9 1.5-2.6 2.2-5.5 2-8.5.2-5.9-3.6-11.1-9.2-12.9-5.1-1.8-10.5-1.9-15.8-1.9-.9 0-.7.6-.7 1.1zM41.907 46.1V5.3c0-1 .2-1.2 1.2-1.2h81.5c1.1 0 1.3.3 1.3 1.3v81.3c0 1.2-.3 1.4-1.5 1.4h-81c-1.1 0-1.5-.2-1.5-1.4V46.1zM306.007 0l62.9 65.9c.2-.4.3-.8.2-1.2v-59c0-1.2.3-1.5 1.5-1.4 2.6.1 5.3 0 7.9 0 .8 0 1 .2 1 1v85.8c-1-1-1.9-1.8-2.7-2.7-3-3.2-6-6.3-9.1-9.5-5-5.3-10.1-10.6-15.1-15.9l-12.6-13.2-17.4-18.1c-1.8-1.9-3.6-3.9-5.4-5.8-.2-.2-.3-.5-.7-.3-.3.1-.1.4-.2.6v60.3c0 1-.2 1.4-1.3 1.4-2.6-.1-5.3-.1-7.9 0-1 0-1.2-.3-1.2-1.2V40.1zM490.707 89.3c-24.3.1-44.6-19.1-43.9-45 .9-24.3 21.4-43.2 45.6-42.3 24.3.9 43.2 21.4 42.3 45.6-1 23.2-19.6 41.7-44 41.7zm33.6-43.7c.1-4.4-.6-8.8-2.3-12.9-3-8.2-9.2-14.8-17.2-18.3-6.6-2.9-14-3.7-21-2.2-9.1 1.7-17 7.3-21.7 15.2-4.2 6.9-5.8 15-4.6 22.9.9 7.7 4.5 14.8 10.2 20.1 7.2 7.1 17.4 10.4 27.4 8.9 7.5-.9 14.5-4.4 19.7-9.9 6.2-6.4 9.6-14.9 9.5-23.8z"/><path fill="#fff" d="M.007 67.1V5.6c0-1.1.3-1.4 1.4-1.4 2.6.1 5.2.1 7.8 0 1.1 0 1.3.3 1.3 1.3v112.6c0 1.2.3 1.5 1.5 1.5 23.5 0 47-.1 70.6-.1 1.2 0 1.4.3 1.4 1.4-.1 2.6-.1 5.1 0 7.7 0 1-.2 1.4-1.3 1.4h-81.1c-1.8 0-1.6.2-1.6-1.5zM294.307 87.9h-10.5c-.5 0-.7-.3-.9-.7-1.9-4.3-3.9-8.6-5.8-12.9-1-2.2-2-4.4-3-6.7-.2-.6-.7-.9-1.3-.9h-36.9c-.7 0-.9.3-1.2.9-2.9 6.4-5.8 12.8-8.7 19.3-.2.7-.9 1.2-1.6 1-3.3-.1-6.5 0-9.9 0 13.3-29.1 26.6-58.1 40-87.3 13.2 29.1 26.4 58.1 39.8 87.3zm-39.9-64.5c-.2.2-.3.2-.3.3-4.8 10.9-9.6 21.9-14.5 32.8-.4 1 0 1 .7 1h27.8c1 0 1-.3.7-1.1-2.7-6.1-5.4-12.3-8.1-18.4z"/><path fill="#fff" d="M21.007 56.7V6.2c0-1.9 0-1.9 1.9-1.9 2.4 0 4.9.1 7.2 0 1.1 0 1.3.3 1.3 1.3v91.7c0 1.1.3 1.3 1.4 1.3h70.6c1.5 0 1.5 0 1.5 1.5 0 2.6-.1 5.1 0 7.7 0 1.1-.4 1.2-1.3 1.2h-79.8c-2.7 0-2.7 0-2.7-2.7zM422.707 51v35.7c0 1.1-.3 1.4-1.4 1.4-2.5-.1-5-.1-7.6 0-1.1 0-1.3-.3-1.3-1.4V15.6c0-2.3.3-1.9-1.9-2h-16.8c-1 0-1.3-.2-1.3-1.2.1-2.4 0-4.7 0-7.1 0-.8.3-1.1 1.1-1.1h48.2c.9 0 1 .4 1 1.1 0 2.4-.1 4.7 0 7.1 0 1-.3 1.2-1.2 1.2h-17.6c-1 0-1.3.3-1.3 1.3.1 12 .1 24.1.1 36.1zM167.907 46.2V5.7c0-1.2.3-1.5 1.5-1.5 2.5.1 5 .1 7.6 0 1.1 0 1.3.3 1.3 1.3v72c-.1.9.2 1.2 1.2 1.2h23.2c1 0 1.3.3 1.3 1.3-.1 2.4 0 4.7 0 7.1 0 .7-.2 1-1 1h-33.9c-1.1 0-1-.6-1-1.3z"/></svg>