<svg xmlns="http://www.w3.org/2000/svg" width="400" height="174"><path d="M203.77 45.838l-.064 25.392v29.508c0 .57.127.76.76.76a65.919 65.919 0 015.003 0c.696 0 .822-.253.822-.886V62.428c.064-.126-.062-.316.128-.38.253-.126.316.064.442.191 1.14 1.203 2.28 2.469 3.42 3.672L225.3 77.373l7.979 8.358c3.166 3.356 6.395 6.713 9.561 10.069a505.716 505.716 0 015.762 6.015c.507.57 1.077 1.076 1.71 1.71v-54.33c0-.507-.126-.633-.633-.633-1.646 0-3.356.063-5.002 0-.76-.064-.95.125-.95.885v37.36c.063.254 0 .508-.127.76zm-32.611.38a39503.818 39503.818 0 00-25.329 55.28c2.153 0 4.178-.063 6.268 0 .443.127.888-.19 1.014-.633 1.837-4.115 3.672-8.169 5.509-12.221.19-.38.316-.57.76-.57h23.365c.38 0 .697.19.824.57.633 1.456 1.266 2.85 1.9 4.243 1.203 2.723 2.468 5.445 3.671 8.168.127.253.254.444.57.444h6.65a13830.058 13830.058 0 01-25.202-55.281zm149.214.87c-14.694.198-26.894 11.896-27.446 26.803-.444 16.4 12.411 28.558 27.798 28.494 15.45 0 27.229-11.715 27.862-26.406.57-15.324-11.398-28.304-26.786-28.874a28.174 28.174 0 00-1.428-.018zm37.396 1.093c-.697 0-.887.19-.887.887v51.734c0 .444.19.57.633.57 1.71 0 3.42-.064 5.13 0 .696.063.886-.127.886-.823v-19.63c0-.633-.316-1.583.127-1.963.444-.38 1.266-.064 1.963-.127.38-.127.76.064.95.444.506.76 1.076 1.52 1.583 2.28 4.432 6.395 8.928 12.79 13.36 19.185.254.443.698.633 1.14.633h7.219l.127-.063c-.19-.063-.253-.19-.317-.316-1.583-2.153-3.229-4.37-4.812-6.586-3.8-5.193-7.598-10.448-11.398-15.64-.316-.443-.254-.57.252-.633 3.863-.507 7.346-2.723 9.499-5.953 2.406-3.42 3.23-7.599 2.407-11.651-.887-4.496-3.167-7.916-7.22-10.132-3.229-1.71-6.774-2.025-10.257-2.152-3.483-.127-6.902 0-10.385-.064zm-320.473.253c-.633 0-.76.128-.76.76v51.544c0 .76.252.887.949.887h51.29c.76 0 .95-.127.95-.887v-51.48c0-.633-.125-.824-.822-.824zm-26.406.063c-.697 0-.886.19-.886.887V127.207c0 1.077-.127.95 1.013.95h51.354c.697 0 .824-.253.824-.887a62.586 62.586 0 010-4.875c0-.697-.127-.887-.887-.887-14.944 0-29.824.063-44.705.063-.76 0-.95-.19-.95-.95v-71.3c0-.633-.127-.824-.824-.824a64.247 64.247 0 01-4.94 0zm106.38 0c-.759 0-.949.19-.949.95v25.646l.127 25.71c0 .443-.063.822.634.822h21.466c.507 0 .633-.19.633-.633 0-1.52-.063-2.976 0-4.496 0-.633-.19-.824-.823-.824h-14.69c-.634 0-.825-.19-.761-.759V49.321c0-.633-.126-.824-.823-.824-1.646.064-3.23.064-4.813 0zm141.907 0c-.507 0-.698.191-.698.698 0 1.52.064 2.976 0 4.496 0 .633.19.759.824.759h10.639c1.393.063 1.202-.19 1.202 1.266v45.022c0 .697.127.887.823.887a60.99 60.99 0 014.813 0c.696 0 .886-.19.886-.887V78.133c0-7.599 0-15.26-.063-22.86 0-.633.19-.823.823-.823h11.145c.57 0 .76-.126.76-.76-.064-1.52 0-2.975 0-4.495 0-.443-.064-.698-.634-.698zm-234.673.065c-1.203 0-1.202-.001-1.202 1.202V81.74l.063 31.41c0 1.709 0 1.708 1.71 1.708h50.53c.57 0 .823-.062.823-.759-.063-1.646 0-3.23 0-4.876 0-.95 0-.95-.95-.95H30.773c-.696 0-.887-.126-.887-.823V49.384c0-.633-.126-.822-.822-.822-1.456.063-3.04 0-4.56 0zm296.058 4.534a22.022 22.022 0 019.092 1.861 20.215 20.215 0 0110.892 11.587c1.076 2.596 1.519 5.383 1.455 8.169a21.256 21.256 0 01-6.015 15.071 20.56 20.56 0 01-12.474 6.27c-6.332.95-12.792-1.14-17.35-5.637a20.618 20.618 0 01-6.46-12.727 21.623 21.623 0 012.913-14.501c2.977-5.003 7.979-8.55 13.74-9.626a21.24 21.24 0 014.207-.467zm43.349.911c3.356 0 6.775.064 10.005 1.203 3.546 1.14 5.952 4.432 5.825 8.168a9.423 9.423 0 01-1.266 5.382c-1.203 1.837-3.102 3.23-5.318 3.737-3.04.886-6.08.886-9.182.886-.57-.063-.507-.38-.507-.696V54.703c0-.316-.127-.696.443-.696zm-192.816 6.649l3.99 9.245c1.71 3.862 3.419 7.789 5.128 11.651.19.507.19.697-.442.697h-17.604c-.444 0-.697 0-.443-.634 3.103-6.902 6.142-13.868 9.181-20.77 0-.063.063-.062.19-.19z" fill="#fff"/></svg>