<svg xmlns="http://www.w3.org/2000/svg" width="400" height="174"><path fill="#fff" d="M218.72 138.254c-4.087-.471-8.936-2.119-12.363-4.2-2.721-1.652-4.385-2.98-6.764-5.397-5.303-5.385-8.739-12.004-10.48-20.19-.595-2.796-.656-3.564-.656-8.331 0-4.023.1-5.744.425-7.354.678-3.356 1.558-6.424 2.482-8.656.472-1.14.858-2.126.858-2.191 0-.066-2.748-.12-6.107-.12h-6.107l.001 18.26c0 16.9.032 18.32.427 19.096.888 1.74 1.235 1.84 6.673 1.924l4.868.076v15.848h-9.84c-8.055 0-10.103-.068-11.28-.374-4.05-1.055-7.035-4.139-8.71-8.996-1.378-4-1.432-5.004-1.434-26.353l-.001-19.48h-19.797l.067 18.38c.065 17.978.077 18.4.563 19.236.89 1.532 1.592 1.71 6.77 1.71h4.58v15.877l-9.831-.002c-7.48-.002-10.124-.081-11.053-.332-4.673-1.262-7.594-4.489-9.256-10.225-1.009-3.48-1.125-6.174-1.125-26V81.817h-9.283V64.474h9.283v-28.58h19.296v28.58h19.786v-28.58h19.297v28.58h12.457v8.06c0 5.07.089 8.061.238 8.061.131 0 .422-.357.647-.794.669-1.299 2.765-4.336 4.275-6.194 3.666-4.512 8.83-8.183 14.137-10.053 3.968-1.397 5.564-1.647 10.382-1.623 4.109.02 4.588.071 7.328.79 13.64 3.576 23.917 16.49 25.795 32.412.408 3.458.145 10.305-.515 13.43-3.63 17.188-16.324 29.132-31.648 29.777-1.469.062-3.442.024-4.385-.085zm6.176-17.808c9.039-2.813 13.85-17.286 9.798-29.47-1.646-4.952-4.58-8.77-8.043-10.465-7.97-3.904-15.876 2.047-18.445 13.884-.628 2.894-.587 8.546.085 11.635 2.29 10.517 9.373 16.667 16.605 14.416zm64.132 17.793c-3.406-.498-7.284-2.21-10.634-4.694-1.047-.776-1.958-1.41-2.024-1.41-.067 0-.121 1.098-.121 2.442v2.443h-19.297V35.65h19.297V51.77c0 8.867.082 16.12.183 16.12.1-.002.678-.399 1.282-.883 3.505-2.803 7.399-4.6 11.356-5.237 2.234-.36 6.25-.183 8.386.37 17.472 4.527 27.632 29.014 21.381 51.528-2.794 10.064-9.28 18.816-16.574 22.367-4.372 2.128-8.757 2.858-13.235 2.203zm2.05-18.921c2.007-.918 3.537-2.181 4.966-4.097 5.319-7.13 6.086-18.868 1.8-27.525-.92-1.857-1.524-2.687-3.124-4.295-2.2-2.21-3.504-2.958-5.865-3.362-3.74-.64-7.541 1.407-10.254 5.524-4.207 6.385-5.196 15.515-2.557 23.61 2.754 8.448 9.217 12.809 15.035 10.145zm61.87 18.913c-6.96-.848-12.932-3.753-18.263-8.884-6-5.774-9.786-13.168-11.456-22.372-.624-3.439-.565-10.661.117-14.431 2.894-15.986 14.151-28.112 28.217-30.393 16.188-2.625 31.702 8.348 36.78 26.016 2.838 9.87 1.998 20.951-2.268 29.918-4.23 8.891-11.053 15.371-19.551 18.57-3.593 1.352-9.647 2.055-13.576 1.576zm7.701-18.396c7.624-3.62 11.717-15.93 8.925-26.842-2.323-9.085-8.562-14.72-15.011-13.56-5.133.922-9.565 6.121-11.568 13.569-.575 2.139-.639 2.812-.651 6.89-.012 3.882.062 4.817.525 6.645 1.227 4.846 3.126 8.413 5.829 10.952 2.734 2.568 4.885 3.458 8.058 3.334 1.683-.066 2.26-.212 3.893-.988zM10 86.335V35.65l10.198.006 10.198.006 3.762 7.383c5.795 11.373 25.169 48.803 25.758 49.764l.525.855.122-29.068.122-29.067h20.274l.062 50.749.061 50.748-10.402-.063-10.402-.064-12.7-24.427a28275.108 28275.108 0 00-15.063-28.945l-2.363-4.52-.062 29.007-.062 29.007H10zm78.653 14.411V64.473h19.297v72.547H88.653zm0-53.369V35.65h19.302l-.063 11.663-.064 11.664-9.587.064-9.588.064z"/></svg>