<svg xmlns="http://www.w3.org/2000/svg" width="200.00005" height="54.180412" viewBox="0 0 200.00004 54.180413"><path fill="#fff" d="M109.8523895 54.06617c-2.15094-.248-4.70315-1.11503-6.50661-2.2104-1.43217-.86986-2.3078-1.56846-3.56022-2.84043-2.79106-2.83461-4.59902-6.31793-5.515803-10.62703-.312992-1.47115-.344775-1.87517-.344925-4.38452-.000125-2.11731.05218-3.02291.223533-3.87035.35716-1.76635.820203-3.38107 1.30636-4.5555.248311-.59986.451475-1.1189.451475-1.15343 0-.0345-1.446303-.0628-3.214014-.0628h-3.214014l.000257 9.6099c.000128 8.89502.01693 9.6427.224982 10.05073.4671.91605.64965.9687 3.512089 1.01298l2.562143.0396v8.34145h-5.179696c-4.238836 0-5.317129-.0358-5.9363-.19707-2.131225-.55511-3.70274-2.17838-4.583929-4.73487-.725464-2.10471-.754243-2.63341-.755075-13.87004l-.000714-10.25271h-10.419686l.03529 9.67418c.0345 9.4618.04102 9.68407.296778 10.12415.468554.80626.837829.8995 3.563183.89972l2.41051.00027v8.35643l-5.17456-.001c-3.937079-.001-5.32829-.043-5.817368-.17508-2.459265-.66404-3.9969-2.36252-4.871725-5.38136-.53074-1.83147-.5921-3.24959-.5921-13.68416v-9.81256h-4.885304v-9.12781h4.885304V.19288h10.156285v15.04158h10.413408V.19288h10.156285v15.04158h6.556593v4.2425c0 2.66809.04648 4.2425.125261 4.2425.06889 0 .222036-.18801.340321-.41782.352011-.68389 1.455086-2.28241 2.249766-3.26025 1.92993-2.37475 4.6473-4.30699 7.44093-5.29102 2.0881-.73551 2.92817-.86688 5.46383-.85441 2.1628.0106 2.41495.0378 3.85682.41586 7.17926 1.88232 12.58808 8.67864 13.57646 17.05915.21464 1.82001.0766 5.4238-.27083 7.06868-1.91051 9.04612-8.59172 15.33219-16.65702 15.67191-.77295.0325-1.81151.0124-2.30791-.0449zm3.25073-9.37254c4.75721-1.48061 7.28983-9.09795 5.15706-15.51087-.86669-2.60601-2.41099-4.61519-4.23346-5.50785-4.19459-2.05457-8.35578 1.07781-9.7079 7.3077-.33057 1.52312-.30864 4.49798.0451 6.12363 1.20459 5.53521 4.9328 8.77206 8.73916 7.58739zm33.75357 9.36463c-1.79265-.2621-3.83347-1.16288-5.59677-2.47028-.55097-.40852-1.03036-.74276-1.06532-.74276-.035 0-.0636.57852-.0636 1.28561v1.2856h-10.15628V.06379h10.15628v8.485c0 4.66675.0434 8.48444.0964 8.48375.053-.00072.35676-.2095.67495-.46402 1.84462-1.47555 3.89393-2.42084 5.97658-2.7568 1.17575-.18967 3.28993-.0963 4.41386.19494 9.19566 2.38284 14.5432 15.27031 11.25328 27.1202-1.47055 5.29676-4.884 9.9031-8.72339 11.77191-2.30101 1.12002-4.60878 1.50415-6.96605 1.15949zm1.0795-9.9584c1.05579-.48335 1.86122-1.14793 2.6135-2.15642 2.79909-3.7524 3.20287-9.93026.94686-14.48662-.48407-.97765-.80159-1.41429-1.64382-2.26053-1.15779-1.16333-1.84423-1.55687-3.08672-1.7697-1.96845-.33718-3.96916.74059-5.39693 2.9073-2.2144 3.36047-2.7349 8.1661-1.34594 12.42664 1.44947 4.44609 4.85091 6.74122 7.91305 5.33933zm32.56288 9.95445c-3.66291-.44637-6.80614-1.9754-9.61221-4.67589-3.15807-3.03925-5.15074-6.93066-6.02954-11.77494-.32834-1.8099-.29744-5.61103.0618-7.59546 1.52282-8.41325 7.44801-14.79533 14.85086-15.99598 8.51999-1.38184 16.68542 4.39368 19.35817 13.69228 1.49338 5.19549 1.05113 11.02736-1.19407 15.74641-2.22655 4.67986-5.81694 8.09016-10.28993 9.77378-1.89071.71167-5.07742 1.08176-7.14503.8298zm4.05314-9.68244c4.01238-1.90547 6.16656-8.38409 4.69749-14.12748-1.22296-4.78115-4.50642-7.74722-7.90082-7.13709-2.70128.48553-5.03428 3.22218-6.08838 7.14177-.30279 1.1259-.33625 1.48009-.3427 3.62616-.006 2.04369.0328 2.53589.27644 3.49779.64605 2.55058 1.64511 4.42769 3.06778 5.76405 1.43905 1.35172 2.57145 1.82028 4.2411 1.75484.88573-.0347 1.18946-.1118 2.04909-.52004zM0 26.74011V.06379l5.3674048.003 5.3674047.003 1.980074 3.8862c3.049803 5.98572 13.246519 25.68543 13.556895 26.19147l.275983.44996.06428-15.29871L26.6763215 0h10.670527l.03247 26.70984.03243 26.70985-5.47493-.0335-5.474933-.0335-6.683986-12.85606c-3.676195-7.07109-7.243712-13.92658-7.927817-15.23469l-1.243828-2.37837-.03266 15.26657-.03266 15.26657H0zm41.3965105 7.58508V15.23394h10.156286v38.18249h-10.156286zm0-28.089V.06379h10.158779l-.03339 6.13877-.03339 6.13877-5.046004.0336-5.046003.0336z"/></svg>