<svg xmlns="http://www.w3.org/2000/svg" width="472.70084" height="199.99997"><path fill="#fff" d="M152.8048288 199.71241c-9.8899-.43238-19.7103-1.81759-23.51357-3.31671-1.07017-.4218-3.20482-.77336-6.08013-1.00135-28.90336-2.29163-57.773102-9.72265-78.909848-20.31116-12.020037-6.02149-20.575518-12.08692-28.932228-20.51163-4.167631-4.20154-8.995207-10.11329-11.133684-13.63407-1.446399-2.38133-.387014-1.2387 1.534605 1.65519 5.512951 8.30235 17.264579 17.73973 30.622083 24.59169 4.75291 2.4381 4.77063 2.40991.250921-.39886-6.984446-4.34047-11.947729-8.78599-13.515228-12.10533-.632141-1.33864-1.412183-2.27539-2.814111-3.37952-2.6538-2.09011-6.800717-6.26631-9.213931-9.27906-5.292733-6.60758-8.816945-13.91241-10.4606754-21.68237-.9578592-4.52782-.8211418-12.75968.2908567-17.51269 2.0160057-8.61698 6.7954317-18.5296 13.3869277-27.76467.947234-1.32713 1.832934-2.41542 1.968219-2.41841.135285-.003-.148491.85767-.630615 1.9126-7.363945 16.11297-9.789399 25.17076-9.789399 36.55831 0 9.73896 2.418484 18.47686 7.245258 26.17684 2.819399 4.49769 4.244788 6.24369 8.772955 10.74625 4.00208 3.97945 4.353214 4.24334 7.277473 5.4696 1.689876.70865 4.232299 2.0221 5.649829 2.91881 2.243156 1.41897 10.204521 5.66261 9.749188 5.1966-.09173-.0939-1.736892-1.34864-3.655909-2.78835-4.345609-3.26023-11.62197-10.28846-14.988609-14.47749-2.434911-3.0297-5.706458-7.69558-5.706458-8.13853 0-.11542.846107.80545 1.880235 2.04631 2.30983 2.77158 7.287037 7.89523 8.582287 8.83477l.955636.69321-1.02185-1.41066c-.562019-.77583-1.201186-1.95398-1.420371-2.61813-.219189-.66415-1.22337-2.17988-2.231517-3.36827-1.008147-1.1884-2.793051-3.62597-3.966451-5.41686-8.411995-12.83864-10.424839-26.94479-5.739181-40.22058 2.142809-6.07117 5.991367-12.65867 10.681789-18.28378 2.532433-3.03708 7.432854-7.83901 7.999808-7.83901.422703 0-.403966 1.54274-3.038661 5.67078-4.248918 6.65721-6.447384 10.78771-8.433413 15.8448-1.265891 3.22341-3.029925 9.29117-2.646521 9.10327 2.515596-1.23283 2.573031-1.29384 3.176148-3.37368 1.137264-3.92181 2.641661-7.75135 4.871647-12.40109 5.2003-10.84308 10.504486-17.85926 19.003171-25.13666 7.78768-6.66858 32.403967-26.1529 32.690472-25.87522.07271.0705-.285884.75992-.796885 1.53209-1.66126 2.51034-5.59423 6.40205-23.993869 23.7422l-1.360309 1.28199 1.374242-1.02542c1.652364-1.23294 5.379495-3.039 6.272279-3.03937.382617-.00016 3.074591-2.39439 6.671501-5.93362 11.945422-11.75387 22.292513-20.37094 32.237583-26.8475 9.67714-6.30208 36.53327-22.36066 37.08696-22.17609.54949.18316-3.56262 4.39321-7.25388 7.42664-4.65406 3.82465-10.46109 8.01105-21.51559 15.511-16.06562 10.89976-21.34417 14.78307-32.35678 23.80418-10.067808 8.24716-10.777706 8.93494-11.448002 11.0913-1.117132 3.59384-5.614551 10.17115-10.952786 16.01807-3.217518 3.52413-7.267676 7.23441-8.961534 8.20959-1.048499.60363-1.343703 1.12525-2.765767 4.8869-3.556764 9.40842-4.810072 14.82118-5.050483 21.81198-.102194 2.97162-.06434 3.79975.116268 2.54367.361098-2.51138 1.686945-5.29443 3.282258-6.88976 1.167302-1.16731 1.400491-1.68585 2.077926-4.62068 2.507773-10.86447 8.078904-21.51822 14.964576-28.61698 3.558682-3.66882 34.749304-29.52438 34.748934-28.80524-.00066 1.00853-4.065133 5.34485-17.113148 18.25705-10.107454 10.00225-14.695205 14.78617-16.534251 17.24122-4.259249 5.68592-8.540452 13.82875-11.757606 22.3629l-1.285942 3.41121.810821 1.1948c.44595.65717 1.056325 2.34943 1.356386 3.76066.300064 1.41122.58887 2.71593.641795 2.8994.05293.18346.196389-.41697.318811-1.3343.743692-5.57261 1.515442-8.1408 4.028219-13.40495 2.252879-4.71965 7.2547-12.48194 7.734124-12.00253.08957.0896-.657423 2.24029-1.659986 4.77936-3.112158 7.88185-3.972158 11.04314-4.546925 16.71415-.631474 6.23051.476646 12.68712 3.146854 18.33562 1.990752 4.21118 4.41169 7.62245 8.230994 11.59807 3.137764 3.26616 3.281288 3.36851 5.311949 3.78794 1.147879.23707 3.149176.95823 4.447326 1.60253l2.360277 1.17148-1.3343-1.10383c-2.241821-1.85461-5.517134-5.05193-6.617288-6.45971-1.002227-1.28247-.968625-1.26736.865013.38858 4.094854 3.69798 10.268107 7.17133 18.53828 10.43046l1.778027.70067-.69735-.97934c-.41988-.58966-2.095042-1.71912-4.210095-2.83853-6.678916-3.53496-13.052151-8.24484-16.77656-12.39808-4.127804-4.60304-7.344612-10.62753-7.858274-14.7171-.258087-2.05479.217785-5.4328 1.188988-8.44018.810037-2.50828 3.427938-7.93915 4.180713-8.67295.460874-.44923.49211-.32994.305735 1.16751-.486603 3.9097-.608254 10.7665-.233769 13.17622 1.080356 6.95183 4.151028 12.71754 9.870155 18.53286 3.973623 4.04046 6.819635 6.26497 12.008702 9.3863 3.017085 1.81485 3.573465 2.02964 5.824125 2.24843 3.85157.37447 26.24018 6.90393 29.56127 8.62135.56258.29091 1.23144.78023 1.48635 1.08738.40194.48432.37918.62009-.17145 1.02271-.3492.25535-1.09408.47485-1.65528.48772-.5612.013-1.30795.13617-1.65944.27397-1.00011.39201 12.16414 2.44086 23.65576 3.6817 3.48586.3764 6.88813.7449 7.5606.81892.67247.074 2.32367 0 3.66932-.16065 6.05848-.73096 24.8077-1.68221 35.63737-1.80804 11.11393-.12916 25.05652-.67269 53.03843-2.06763 10.09848-.50343 11.39992-.62385 8.83974-.81806-1.65119-.12529-3.82777-.39899-4.83684-.60831-1.51682-.31459-3.42385-.2347-11.00797.4611-19.8738 1.82339-33.58662 2.34177-55.66567 2.10436-16.81516-.1808-24.62409-.5598-35.73389-1.73432-6.72889-.71135-16.74484-2.18238-17.34591-2.54758-.32689-.19861.02-.24468 1.00073-.1329 1.45442.16576 12.79869.66995 22.6831 1.00813 4.28628.14668 4.70395.11472 3.66933-.28057-.75675-.28914-3.63215-.52331-8.17259-.66555-30.2115-.94648-54.34572-9.12504-67.22428-22.7808-3.27538-3.47302-4.317245-5.12678-1.636559-2.59769 10.165119 9.59025 32.386639 17.42553 60.855039 21.45745 11.74427 1.66334 14.34292 1.86058 18.59681 1.41159 22.60903-2.38636 47.06806-2.15813 48.06834.44853.30713.80038-1.33018 1.77382-3.89204 2.31394-1.31782.27784-2.69625.58139-3.06318.67452-1.17635.29862 16.99123-.12088 28.0203-.647 15.1736-.72382 18.39919-1.01016 24.02909-2.13325 9.96937-1.98874 18.89376-2.70099 33.81123-2.69852 11.19317.003 13.22145.17323 14.06374 1.1881.58896.70964-.0473 1.28766-2.35954 2.14342l-1.82878.67685 1.66787-.16058c7.71855-.74304 13.25259-.90682 25.79467-.76332 11.72931.13423 14.17211.24565 15.63771.71328 2.03634.64974 2.36408 1.02558 1.61553 1.85271-1.50272 1.66047-10.65952 2.96592-26.03558 3.71176-11.24536.5455-21.16271.0829-25.71006-1.19917-1.50406-.42407-2.58194-.40349-9.67368.18474-19.68839 1.63301-45.34014 3.34949-59.85193 4.00493-5.8285.26326-8.42541.50513-9.05402.84321-.48478.26076-1.68565.69043-2.6686.95486l-1.78717.48075 2.00145.023c6.44961.0743 21.28227-.72455 24.35097-1.31148 1.83467-.35092 6.11277-.97677 9.50689-1.39084 5.6141-.68486 7.64654-.75401 22.51632-.76609 16.98392-.0137 18.9349.12589 19.42016 1.39048.12892.33597-.0945.78126-.60094 1.19756l-.80617.66272 2.6686-.24775c1.46773-.13623 12.0504-.29882 23.51704-.36123 19.18705-.10451 21.16092-.16785 24.7694-.79511 8.4161-1.46296 13.52267-1.82852 25.76724-1.8446l11.67512-.0153-.72492-.70979c-1.89711-1.85741-1.63178-5.24933.52408-6.70008 1.69566-1.14106 3.42495-1.02748 4.89341.3214 2.03021 1.86481 2.10923 4.9296.17176 6.66069-1.1941 1.06694-1.48197.92203 3.44323 1.73332 1.63368.2691 3.20038.71932 3.48155 1.00049.45924.45924.38875.56241-.6933 1.0145-2.17317.90803-8.15084 1.70958-19.60197 2.62844-.8256.0663 1.35098.0714 4.83684.0113 8.91606-.15354 9.58284-.15047 13.54141.062 3.51148.1885 3.53777.18423 4.0912-.66038.80862-1.23413 2.90947-2.19296 4.80491-2.19296 1.79744 0 4.85816 1.31779 5.51917 2.37629.25188.40329.77596.62589 1.47367.62589.93524 0 1.15377-.16986 1.60356-1.24637 1.16605-2.79072 3.93318-4.42051 7.494-4.41383 2.50985.005 4.33577.70717 5.89754 2.26894l1.04589 1.04589.36576-1.04926c.55227-1.58425 1.94535-3.23731 3.6267-4.30362 1.26541-.80248 1.40612-.98941.8736-1.16071-2.83005-.91026-4.75705-2.41465-5.45112-4.25558-.54072-1.43431-.4092-4.24488.26833-5.73245.70404-1.54589 2.86711-3.61265 4.49122-4.29125 3.19658-1.3356 6.55578-.80918 8.86719 1.38958l1.31712 1.25297.19414-1.03481c.29322-1.56287 1.98331-4.0027 3.56782-5.15054 3.34993-2.42669 7.12873-2.47436 9.65547-.12182l.86175.80235.4145-1.42687c.9173-3.15785 3.49504-5.91825 6.31371-6.76113 1.18323-.35379 2.92105.0929 4.0468 1.04012.72813.61268 1.04596.72533 1.13923.40369.0712-.24531.30962-1.12151.52995-1.94711 1.25581-4.70627 4.46343-6.57916 6.60498-3.85663l.67906.8633.22143-1.75571c.29635-2.34963 1.06894-4.69767 1.8886-5.73972.86082-1.09436 2.32752-1.14277 3.09888-.10225.53409.72039.5495.65905.38431-1.52787-.31856-4.21749.43789-6.53754 1.42513-4.3708 1.43448 3.14832 2.15697 20.49985.99913 23.99512-.68396 2.06476-1.59616 6.57326-1.95729 9.67368-.31626 2.71553-2.1215 8.08953-4.11798 12.25888-.76872 1.60533-1.39324 2.92345-1.38784 2.92919.005.006 1.76068.21869 3.90063.47328 4.17302.49642 5.37229.89558 5.06864 1.68692-.26947.70221-3.83098 1.71991-8.20482 2.34456-3.11926.44546-3.84175.65875-4.25718 1.25681-4.42711 6.37319-10.4462 13.04322-15.34445 17.00379-7.54807 6.10319-16.89788 10.68371-26.94173 13.1989-5.73172 1.43534-9.21898 1.82122-14.42158 1.59582-4.6917-.20324-4.86462-.20711-7.37941-.16612-1.68592.0274-3.0764-.52951-2.87252-1.15067.17633-.53715 2.40778-.68636 3.67226-.24557.56725.19774 1.11641.23233 1.22032.0769.10391-.15548.48916-.45293.85609-.66101.59563-.33774.54196-.37954-.50036-.38972-.64214-.006-1.62615-.29104-2.18669-.63289-.99435-.60637-1.03785-.60634-1.78823 0-1.86151 1.50739-7.36664-.0513-7.36664-2.08581 0-.33204.32511-.7777.72243-.99035 1.03922-.55614 4.38344-.17279 5.804.66535 1.43004.84374 1.36466.83971 1.55903.0964.0866-.33118.66702-.85316 1.2898-1.15994.85713-.42221.96584-.55964.4473-.56538-1.18813-.013-3.97408-1.61817-4.57519-2.63578-.93587-1.58428-.74911-2.93753.5902-4.27683.64213-.64213 1.16751-1.21084 1.16751-1.26382 0-.053-.50096-.19027-1.11324-.30515-.61228-.11485-1.73469-.7408-2.49427-1.39094-2.9797-2.55052-2.55369-6.03277.95716-7.82387 2.60238-1.32763 7.38228-.52692 8.90495 1.49175.54213.71872.5523.71188 1.36445-.91794.5468-1.09726 1.29151-1.94217 2.2447-2.54664l1.4264-.90459-1.16388-.42087c-1.38574-.5011-3.34052-2.14489-3.62806-3.05088-.30742-.9685-1.82776-.88214-1.82939.10394-.003 1.84644-2.26491 4.01762-4.65588 4.46924-2.53493.47885-5.99044-1.20137-7.3141-3.55647-.696-1.23854-.84891-1.32984-2.22708-1.32984h-1.47974v1.26008c0 2.33383-1.83626 3.81824-4.60096 3.71933-.8636-.031-2.62094.17923-3.9052.46697-5.38474 1.20638-17.31792 2.17415-30.18854 2.44831-9.75614.20779-15.40911-.0958-19.0245-1.02184-1.4724-.3771-3.39913-.41523-9.99655-.19771-4.49492.14818-17.70449.54133-29.3546.87367-19.7602.56367-20.98525.63256-18.25064 1.02601 3.14759.45283 4.24049.85825 4.24049 1.57297 0 1.4747-8.10516 3.03176-22.68311 4.35756l-5.17041.47021 4.83684-.16843c12.09379-.4211 20.67836-1.13252 23.48654-1.94627 3.17041-.91877 9.37462-1.99568 14.87459-2.58194 4.94536-.52712 24.5681-.51601 28.17152.016 2.55321.37694 4.18526 1.04523 4.18526 1.71381 0 1.53191-6.86684 2.99444-19.01378 4.04963-6.77967.58896-25.45591.58833-28.64838 0-2.07575-.38314-3.51728-.38374-9.17332-.004l-6.71057.45086 4.67005.24988c9.49081.50783 14.51052 1.40515 14.51052 2.59388 0 1.04739-5.63845 2.55218-13.00943 3.47194-10.33228 1.28924-16.52549 1.66034-28.0203 1.67892-9.73821.0157-11.81619-.0666-13.50979-.53525-1.67375-.46321-2.65686-.50597-6.00435-.26113-6.07878.44459-24.60572 1.30815-29.42283 1.37143-2.34754.0307-3.66782.11088-2.93395.17786 2.68886.24538 7.18364 1.11047 8.49418 1.63485 1.83973.73614 1.81375 1.63212-.0714 2.46259-4.23347 1.86495-20.96873 2.73832-38.11095 1.98887zm252.16704-2.03731c1.0161-.46294 1.05223-.66018.21669-1.18199-.50807-.3173-.86353-.27774-1.80167.20054l-1.16868.59584.8843.35088c.48639.19298.9148.36684.95203.38638.0373.0194.45006-.13873.91733-.35165zm8.47914-1.24727c.25168-.15945.39796-.46888.32504-.68763-.0857-.25699-.35449-.15258-.75952.29498-.63696.70387-.39789.91993.43448.39265zm-277.22419-3.25463c3.32489-.12045 5.967-.34561 5.87135-.50036-.0957-.15478-.96283-.2814-1.92707-.2814-2.37864 0-14.83878-1.17436-21.39093-2.01606-11.69899-1.50289-22.91589-3.76243-31.522838-6.34994-4.780764-1.43724-11.487051-3.94196-11.23345-4.19557.08342-.0834 1.031401.0709 2.10663.34295 9.988027 2.52709 31.666788 5.90084 49.566398 7.71375 9.55908.96817 11.80609 1.02675 7.09487.18494-1.83467-.32784-4.38652-.90446-5.67078-1.2814-1.53076-.44929-3.77122-.74984-6.50471-.87257-13.58939-.61007-33.250484-4.40982-46.675542-9.0206-3.05971-1.05086-3.082493-1.05046-1.489212.0257 1.394514.94178 1.784673 1.3863 1.792712 2.04251.0086.70344-4.696846.49486-9.142334-.40526-2.233469-.45223-5.914576-1.35578-8.180238-2.00792-2.265665-.65211-4.179588-1.12548-4.253162-1.0519-.07358.0736 1.787365.84411 4.135427 1.71231 16.327674 6.03707 36.427129 11.09641 58.141569 14.63511 3.94453.64283 7.54714 1.23292 8.0058 1.31135 1.4.23937 4.94117.24391 11.27551.0143zm268.62152-.71361c.50564-.88915.49153-.9631-.33357-1.74917l-.86149-.8208-1.20047 1.23506-1.20044 1.23503 1.36723.47418c.75201.26079 1.44231.49216 1.53404.51411.0917.022.40436-.37781.6947-.88841zm11.314-3.29779c-.40252-.31717-.67532-.22764-1.39507.45773-.72993.69503-.8265.96119-.52428 1.44511.34084.54576.45232.5092 1.39507-.4577.88354-.90619.95573-1.10516.52428-1.44514zm-202.14649.91809c2.84373-.19053 7.34833-.71591 10.01024-1.16754 2.6619-.45163 9.11658-1.34861 14.34372-1.99331 5.22715-.64467 9.95423-1.23516 10.50463-1.31219 1.2834-.17956-2.98522.0274-9.17331.44453-8.75277.59016-29.67118 1.63418-40.02901 1.99781-5.59572.19644-13.55148.53058-17.67948.74254-4.12799.21195-13.58484.47064-21.01522.57485-12.80027.17953-13.22949.20495-8.17259.48391 2.93546.16196 8.18927.41024 11.67512.5517 8.40311.34112 42.99331.11606 49.5359-.3223zm-69.467-.92056c-.32107-.0839-.84645-.0839-1.16752 0-.32106.0839-.0584.15254.58376.15254.64213 0 .90482-.0687.58376-.15254zm-3.99902-.33281c-.31892-.0835-.91936-.0865-1.3343-.007-.41493.0798-.15399.14807.57987.15177.73387.004 1.07336-.0616.75443-.14507zm286.83224-1.33814c-.10064-.10064-.43151-.0876-.7353.029-.45863.176-.47948.29972-.12282.72943.38688.46617.4598.46331.73527-.029.16822-.30055.22349-.62879.12285-.72943zm-23.69233-1.96492c.31246-.65848.82947-1.36045 1.14886-1.55993.51011-.31857.41988-.44225-.74167-1.01697-.72732-.35983-1.55566-1.0102-1.8407-1.44525l-.51827-.79097-.57815 1.08712c-.318.5979-1.13886 1.40562-1.82419 1.7949l-1.24607.70785 1.1586.21732c.63723.11955 1.73896.65387 2.44828 1.18743.70934.53352 1.32019.98031 1.35745.99288.0373.0127.3234-.51594.63586-1.17438zm-149.55691-.3719c-.41027-.0792-1.16082-.0812-1.66787-.005-.50705.0767-.17137.14147.74596.14397.91733.003 1.33219-.0602.92191-.1394zm-39.78341-.7752c7.06346-.17869 13.96846-.35022 15.34446-.38121 1.37599-.031-.35026-.16508-3.83612-.29801-3.48586-.1329-6.8633-.41037-7.50544-.61662-.84837-.27246-2.39846-.28097-5.67077-.031-6.20697.47394-23.99327 1.32389-28.85424 1.37883-2.38219.027-3.5302.13437-2.83539.26539 1.40182.26433 15.76444.12773 33.3575-.31729zm-73.88687-.90402c.36693-.11488-2.25997-.47835-5.83756-.80769-19.49099-1.7943-37.46587-5.50692-50.142275-10.35667-1.43431-.54873-2.547346-1.0582-2.473419-1.13212.07393-.0739 2.298215.30322 4.942858.83808 10.929496 2.21047 28.310096 4.88133 41.417296 6.36458 7.20399.81522 7.94454.82046 5.58839.0394-1.21293-.40209-3.8129-.7351-7.67223-.98268-21.07364-1.35194-43.042437-6.8987-59.107214-14.92358-11.114604-5.55209-20.650237-12.80044-27.323412-20.76938-2.60286-3.10825-6.63681-8.86593-6.63681-9.4727 0-.16215.883844.80242 1.9641 2.14342 5.287845 6.56426 16.328269 15.57725 25.222267 20.59049l1.3343.75211-1.000725-.75141c-2.084341-1.56504-5.73556-5.53705-6.444323-7.01052-.593424-1.23369-1.269914-1.88369-3.461025-3.32567-7.380161-4.85679-13.477002-12.84851-16.05899-21.05002-2.513364-7.98355-2.513274-15.4579.00027-22.95967 1.223857-3.65261 4.428293-10.02513 6.933992-13.78929 1.201494-1.80494 2.184536-3.34356 2.184536-3.41915 0-.0756-.366759-.13746-.815024-.13746-1.0159 0-1.853577-1.14056-1.853577-2.5238 0-2.93319 3.885843-10.49368 7.74658-15.07215.964743-1.1441.917665-1.12272-.550742.25005-5.942303 5.5553-13.5933 17.24813-18.692476 28.56726l-1.842889 4.09086.714568 1.21108c.609258 1.03262.752071 1.98134.969055 6.43747.139972 2.87448.591432 7.02762 1.003252 9.22922 1.017904 5.44177 1.072097 10.56395.128817 12.17549-.526036.89871-.935103 1.19203-1.776749 1.27395-.973616.0948-1.346349-.15471-3.402923-2.27758-1.270247-1.31122-2.309543-2.28879-2.309543-2.17241 0 .11642.538026 1.5166 1.195613 3.11152 1.473838 3.57476 3.796331 7.68034 6.438924 11.38248l2.007061 2.81178 3.435182 1.53974c2.564292 1.14937 5.211116 2.81101 10.440259 6.55425 9.865762 7.06235 16.794389 11.72914 20.722616 13.95775 3.604188 2.04478 5.12945 3.24248 5.12945 4.02782 0 1.28153-7.723173-.14237-14.424119-2.65936-1.68854-.63423-3.135322-1.08789-3.215069-1.00816-.235508.2355 12.45804 6.27414 16.80525 7.99469 14.831871 5.87012 32.086968 9.82905 50.036258 11.48012 3.43828.31626 17.49435.14911 18.6802-.22213zm99.99547.0273c-.22584-.0914-.67617-.0969-1.00073-.0123-.32455.0846-.13977.15932.41062.16612.5504.007.81595-.0624.59011-.15378zm176.32694-1.18976l1.31389-1.40852-.88488-.53772c-.8699-.52862-.90515-.51488-2.08594.81165l-1.20111 1.34935.70074.58579c.38542.3222.73284.59079.7721.5969.0392.006.66258-.62275 1.3852-1.39745zm-204.27096-1.25437c2.56811-.20365 5.64534-.65858 6.83829-1.01097 2.72173-.80398 8.41589-1.87566 11.60387-2.18395 1.33638-.12923 2.38714-.2741 2.33502-.32197-.0521-.0478-6.39933.11552-14.10492.36303-7.70558.24752-15.66135.43702-17.67948.42114l-3.66932-.029 3.83611-.44199c8.92474-1.02831 31.58071-2.80049 45.36328-3.5484l7.84194-.42558-8.0058-.20625c-4.4596-.11491-8.52295-.37427-9.17331-.58555-.8382-.2723-2.10842-.28718-4.50327-.0528-12.18078 1.19226-34.02077 2.32094-46.03335 2.37895l-7.33865.0355 3.1993.43672c5.30265.72379 7.2403 1.53965 6.31233 2.65779-1.02163 1.23099-7.40722 2.10819-17.68422 2.42936l-7.83902.24495 4.67006.20271c7.20096.31259 38.79254.0515 44.03114-.36383zm218.11346-3.44664c-.30989-.17792-.81199.0127-1.45229.55154l-.97867.82349.73546.48832c.68663.4559.78304.41931 1.45229-.5515.5952-.86339.63649-1.08602.24321-1.31185zm-286.3288-2.53113c3.39413-.12833 5.79587-.32544 5.33721-.43802-.45867-.11261-3.76106-.44655-7.33866-.7421-6.91072-.57092-15.80764-1.73713-21.84916-2.86398-5.00774-.93404-13.60403-3.00491-13.99973-3.37261-.19445-.18066.0713-.2318.66715-.12836 4.2824.74348 38.71645 3.42215 39.09716 3.04144.10927-.10925-.16409-.19918-.60746-.19981-.44338 0-2.15712-.37561-3.80832-.83334-2.576-.71408-3.90187-.85328-9.3401-.98064-12.70857-.29762-25.42933-2.45952-36.33886-6.17581-1.63975-.55857-3.06578-1.01417-3.16896-1.01243-.10319.003.48788.39925 1.31348.8834 2.05307 1.20397 2.6686 1.77933 2.6686 2.49454 0 .88858-1.23559 1.07922-5.46526.84325-4.104493-.22897-9.390974-1.28764-14.201032-2.8439-1.734881-.5613-3.201981-.9729-3.260223-.91466-.145625.14564 7.674955 3.23321 11.766396 4.6454 10.166189 3.50891 23.577309 6.49644 36.178249 8.05924 7.3506.91163 9.77182 1.08402 13.00942.92617 1.74293-.085 5.94598-.25945 9.3401-.38778zm298.78339-.99702c.21679-.34715.30262-.72273.1907-.83464-.2328-.2328-1.42513.75778-1.42513 1.18396 0 .52348.83734.28654 1.23443-.34932zm-168.68912-1.06938c4.49493-.1852 17.7045-.40492 29.35461-.48828 16.59646-.11872 21.72361-.25592 23.68383-.63376 6.25564-1.20581 16.631-2.17681 23.28655-2.17932 2.87435 0 4.36687-.11928 4.2334-.33527-.13073-.21149-4.25808-.33408-11.27784-.33498-14.32642 0-48.56168-.58836-50.93392-.87263-1.70754-.20458-1.76532-.23937-.83394-.50216 3.15395-.88982 16.14677-1.78833 34.19145-2.36452 10.38584-.33164 12.61108-.47608 10.50762-.68199-1.46773-.14367-3.35456-.4589-4.19297-.70051-1.19776-.34512-3.34206-.38198-10.00726-.17192-4.66559.14704-24.0942.72209-43.17469 1.27789-19.08049.5558-42.49746 1.2459-52.03771 1.53351-21.03704.63426-24.62431.57528-16.17839-.26593 3.21066-.31976 9.88824-.91589 14.83905-1.32472 7.51549-.62062 8.75452-.79291 7.50544-1.04356-.92639-.18587-3.97289-.15708-8.00076.0757-26.28027 1.51863-57.22887 1.21001-81.5591-.81329-12.16583-1.0117-31.47065-3.66532-32.84355-4.5146-.36185-.22387-.16842-.26656.65356-.14431 2.12151.3156 12.57044 1.17499 13.88627 1.14213.72124-.018-.6968-.37771-3.21187-.81469-6.43927-1.11878-15.85931-3.35283-18.65472-4.42411-.26118-.1001-.13922.15368.27103.56391.41025.41026.68752.92417.61614 1.14203-.28546.87136-2.66722 1.29967-6.06096 1.08992-1.8225-.11265-3.24519-.13636-3.16153-.0527.2348.2348 10.3889 3.06068 14.31419 3.98365 9.71342 2.28392 25.29009 4.93197 29.3546 4.99028 1.376.0197 7.23024-.14624 13.00943-.36886 17.48032-.67336 27.02994-.47438 36.63692.76335 4.53307.58402 6.17889.99752 6.92005 1.73869.51869.51871.5083.59427-.15561 1.13189-1.35862 1.10013-6.88664 1.88016-16.14907 2.27872-4.38485.18867-.37427.26089 14.44459.26015 27.98917 0 40.35803-.56694 45.59629-2.08494 7.81534-2.26481 17.38821-3.27728 31.12597-3.29199 12.78521-.0137 16.34518.42721 16.34518 2.02454 0 1.53644-10.0025 3.40089-24.68455 4.60113l-5.83757.47721 5.00363-.16445c2.75199-.0905 8.68129-.316 13.17621-.5012zm143.7334-2.18141c1.10264-1.01861 1.11324-1.05286.39649-1.28033-.40503-.12856-1.24377-.67919-1.86385-1.22362l-1.12742-.98988-.5098.98581c-.28037.54223-1.14119 1.52631-1.91289 2.18685-.77169.66055-1.18105 1.20097-.90969 1.20097.27136 0 1.16151.43232 1.9781.96067l1.48471.96066.66572-.87727c.36613-.48248 1.17551-1.34824 1.79863-1.92386zm-43.99444.0294c0-.10084-.22904-.62622-.50894-1.16751-.48405-.93608-.61441-.98415-2.6686-.98415-2.06042 0-2.15966.037-2.15966.80482 0 .7307.19197.83427 2.08484 1.12498 2.65709.4081 3.25236.44869 3.25236.22186zm78.90421-1.17315c.35902-.58088-.0499-.70391-.50737-.15264-.26313.31703-.28844.50843-.0673.50843.19511 0 .45369-.16011.57462-.35579zm-90.12514-.47814c-.15075-.39289-.82934-.50037-3.15849-.50037-2.41448 0-2.96648.0931-2.96648.50037 0 .40953.57331.50036 3.15848.50036 2.67051 0 3.12884-.0773 2.96649-.50036zm67.7619-.16679c.11495-.18604-.13457-.33134-.56408-.32847-.61965.004-.67242.0683-.26986.32847.62068.40112.58602.40112.83394 0zm15.74938-7.54637c.17062-.52068-1.27503-.84471-1.80528-.40463-.23887.19825-.43431.5017-.43431.67433 0 .43962 2.08958.188 2.23959-.2697zm-317.54753-1.68936c-.31893-.0835-.91936-.0865-1.3343-.007-.41494.0798-.154.14811.57986.15181.73387.004 1.07337-.0616.75444-.14507zm327.89776-3.83394c-.64397-.40896-.73497-.35806-1.85841 1.03992l-1.05534 1.31325 1.08022.10444c.94075.0909 1.15564-.044 1.66404-1.04502.45229-.89055.49049-1.20874.16949-1.41259zm-25.51466-.64253c.5052-.71295 1.51804-1.73052 2.2507-2.26124l1.33213-.965-1.16884-.21929c-.68887-.12923-1.71962-.74321-2.51005-1.49512l-1.34121-1.27586-.68013 1.58105c-.72759 1.69129-2.20062 3.28601-3.7733 4.08496l-.96923.49239 1.2913.24224c1.53728.28841 2.85577.93087 3.49773 1.7044.43745.52708.48859.52615.80966-.0147.1885-.31759.75605-1.16077 1.26124-1.87369zm-141.61077-2.50095c-.11084-.11085-.39855-.12269-.63935-.0263-.2661.10648-.18706.18553.20153.20154.35165.0144.54867-.0644.43782-.17522zm-215.249026-.41507c-.174293-.15564-1.667875-1.2-3.319072-2.32081-6.075906-4.12416-11.402799-8.79678-16.554232-14.52096-1.811416-2.01282-3.293483-3.79518-3.293483-3.96083 0-.16562.847921.69834 1.884269 1.91992 3.655098 4.30842 11.482713 10.1161 18.630596 13.82285 1.834663.95142 2.885424 1.38367 2.335025.9605-2.386219-1.83453-4.880366-4.4977-5.64009-6.02227-.618231-1.24063-1.381107-2.04091-3.094209-3.24602-4.193145-2.94963-7.633434-6.68737-10.41489-11.31526-.889644-1.48024-1.710976-2.59792-1.825182-2.4837-.114203.11421-.207644.62145-.207644 1.12718 0 1.22759-1.493706 2.97219-2.544754 2.97219-2.782653 0-7.962246-5.63485-10.358202-11.26863l-.811265-1.90759.217995 1.66788c.465344 3.56035 2.929189 9.99431 5.233275 13.6659 2.052361 3.27047 5.214892 7.05845 8.667424 10.38149 3.380193 3.25346 3.568039 3.37975 5.628896 3.78521 1.446278.28454 4.274063 1.48191 8.791894 3.7227 6.520244 3.23401 7.316468 3.59437 6.673649 3.02025zm390.555916-1.43857c.85846-2.68451.25302-3.02339-1.1571-.64764-1.21458 2.04635-1.20101 2.17128.25325 2.33056.1943.0213.60103-.73604.90385-1.68292zm-18.02596-2.50882l1.01097-1.0615-1.12759-.47695c-.62018-.26235-1.41182-.79597-1.75921-1.18589l-.63159-.70891-.74527 1.58021c-.40993.86909-1.23179 2.06806-1.82642 2.66433-.89742.89988-.97521 1.08558-.4578 1.09286.34285.005 1.22378.2795 1.95765.61041l1.3343.60166.61698-1.02737c.33935-.56508 1.07191-1.50506 1.62798-2.08885zm11.02018-4.98765l1.14827-1.71264-1.09046-.52001c-.59973-.28601-1.18846-.82877-1.30821-1.20614-.24781-.78076-.83998-.92884-.83998-.21002 0 .26186-.51427 1.46273-1.14279 2.6686l-1.1428 2.19249.89262.005c.49092.003 1.11777.15048 1.39297.32814.70041.4522.80065.37811 2.09038-1.54552zm7.96868-6.69598c.76929-2.22885.79034-2.43257.25131-2.43257-.32353 0-.89938-.39552-1.27962-.87893l-.69137-.87894-.009 1.12912c-.005.62102-.34248 2.10482-.75055 3.29736l-.74193 2.16823 1.19056.014c1.18242.014 1.19636-.003 2.0302-2.41842zm4.5153-10.44847c-.45182-.64504-.49792-.56411-.70928 1.24456-.12429 1.06398-.38918 2.45222-.58859 3.08497-.32313 1.02531-.28481 1.20214.35232 1.62518.39322.26106.73617.71906.76212 1.01774.026.29872.1866-.99269.35693-2.86971.25485-2.80824.22413-3.53503-.1735-4.10274zm-431.315311-11.06048c-.106484-.2661-.185528-.18704-.201533.20154-.01448.35166.06435.54867.1752.43782.110844-.11085.122692-.39856.02632-.63936zm11.341551-2.66861c-.106484-.26609-.185528-.18703-.201533.20155-.01448.35166.06435.54866.175201.43782.110843-.11085.122692-.39856.02632-.63937zm339.10136 86.44811c-1.20784-.48552-.86572-.99075.66715-.98524 1.58622.006 2.45308.39982 2.1079.95832-.271.43852-1.71618.45253-2.77505.027zm-4.75344-2.2076c-1.7973-.62051-3.66933-1.96529-3.66933-2.63584 0-.77816 2.00319-.58346 3.94319.38328 1.91106.95232 2.77211 2.02486 2.0122 2.50641-.56481.35793-.49013.3662-2.28606-.25385zm-6.50471-1.5683c-.91734-.42768-1.8739-1.02664-2.12568-1.33103-.40129-.48512-.37157-.55347.24064-.55347.94922 0 4.11245 1.42974 4.67786 2.1143.40443.48965.3655.55393-.33358.55107-.43524 0-1.54191-.35319-2.45924-.78087zm7.35346-3.41537c-2.44391-.89485-4.12506-3.1733-3.44413-4.66779 1.4289-3.13607 9.26688-.83497 9.26688 2.72064 0 2.20213-2.67941 3.09811-5.82275 1.94715zm-7.18885-.10905c-1.59545-.49686-2.90643-1.3344-3.95122-2.52433-1.16645-1.32853-1.22819-1.52867-.64994-2.10696 1.54939-1.54939 8.17896 2.41552 7.05031 4.21659-.40109.64006-1.25902.78533-2.44915.4147zm-8.96639-2.37382c-1.36102-.98592-2.35531-2.45304-1.94234-2.86601.43111-.43111 1.93713.26613 3.22867 1.49475 2.35641 2.24159 1.36866 3.29455-1.28633 1.37126zm-5.052-1.59836c-.4133-.33467-.68903-.79578-.61271-1.02467.0979-.29385.40593-.20595 1.04806.29915.89935.70741 1.18716 1.334.61275 1.334-.16316 0-.6348-.2738-1.0481-.60848zm17.65156-3.83761c-3.52125-1.30802-5.54632-4.56321-4.29421-6.9028.47207-.88208 2.51879-1.39195 3.99356-.99483 2.09742.56478 4.1869 2.13929 4.96096 3.73825.90139 1.86201.89625 2.35347-.0359 3.43709-.91416 1.0628-2.88085 1.36996-4.62445.72229zm-11.13644-1.11181c-2.94243-1.55122-4.55453-4.86359-2.81904-5.7924 1.46533-.7842 4.93051 1.32807 5.87092 3.57876.57348 1.37253.56588 1.60433-.0735 2.24373-.65907.65908-1.69089.64864-2.97836-.03zm-9.03611-1.74436c-1.18596-.72319-2.47222-2.2462-2.47222-2.92722 0-1.31155 2.27611-.57015 3.79638 1.23656 1.65473 1.96656.83811 3.00921-1.32416 1.69066zm-7.13053-2.68305c-.18994-.35489-.34532-.80521-.34532-1.00072 0-.70128.65978-.33668 1.16751.6452.45383.87763.45633 1.00072.0204 1.00072-.27346 0-.65261-.29034-.84251-.6452zm33.11439-19.0559c-1.53531-.46508-3.29842-2.27202-3.77764-3.87161-1.46439-4.88771 3.86274-8.94245 8.56204-6.51699 3.87321 1.99908 3.94099 7.79081.11402 9.74316-1.59059.81146-3.51378 1.06487-4.89842.64544zm15.44756-1.11818c-1.6564-.61581-3.75579-2.66116-4.2412-4.13203-1.06321-3.2215.4674-6.86174 3.47361-8.26142 4.94662-2.30313 10.23595.72343 10.23595 5.85701 0 2.75707-1.34407 4.97127-3.78331 6.23268-1.39974.72383-4.15868.87124-5.68505.30376zm-43.26215-1.17098c-.79367-.79368-.97507-1.25915-.97507-2.50182 0-2.71313 1.77549-3.64974 3.68467-1.94374 1.39414 1.24577 1.68129 3.20689.65934 4.50326-.95118 1.20671-2.12463 1.1866-3.36894-.0577zm-10.62616-1.98494c-.53676-1.0029-.43412-2.36822.19617-2.61009.75595-.29011 1.84367 1.1098 1.71591 2.2084-.12839 1.10396-1.39397 1.36982-1.91208.40169zm35.99832-12.67238c-4.30399-2.30131-2.55813-8.93364 2.33272-8.86173.92944.0137 1.9833.26813 2.49264.60187 2.948 1.9316 2.87888 6.47173-.12422 8.15958-1.57638.88594-3.16823.91994-4.70114.10028zm-14.29953-.25606c-1.18506-.83003-1.7457-2.45638-1.34591-3.90426.40933-1.48247 1.41009-2.22328 3.00351-2.22328 2.81474 0 4.08212 3.61272 1.99838 5.69646-1.11314 1.11311-2.45615 1.27149-3.65598.43108zm29.26484-.77736c-3.36181-1.82836-3.8584-6.51899-.96667-9.13148 3.75349-3.39106 9.35681-.80969 9.35681 4.31055 0 1.87696-.79617 3.39053-2.41395 4.5889-1.32636.98254-4.3783 1.10103-5.97619.23203zm-42.46114-.42077c-1.5696-2.24089.81579-5.28797 2.59798-3.31864 1.17576 1.29918.30356 4.06001-1.28259 4.06001-.44452 0-1.02545-.3274-1.31539-.74137zm-10.51262-1.7437c-.34304-.4133-.34581-.61751-.014-1.01747.2284-.2752.53092-.50036.67232-.50036.51171 0 .67553 1.13015.2286 1.57707-.38811.38812-.52324.37908-.88701-.0592zm69.18911-.14337c-6.2016-2.81701-4.23157-12.12582 2.56619-12.12582 5.18262 0 8.08332 6.43863 4.70791 10.45011-1.08048 1.28406-3.1685 2.28805-4.75848 2.28805-.64213 0-1.77415-.27556-2.51562-.61234zm-203.63378-2.05726c0-.72656 1.33269-8.42624 1.4857-8.58368.0498-.0512 1.41108-.24321 3.02507-.42661 6.86483-.78003 12.06688-3.75649 14.24959-8.15318.47142-.94958.2357-2.16833-4.61291-23.85061-2.81034-12.56744-5.11674-23.04056-5.12532-23.27362-.0122-.33225 1.47636-.40427 6.89505-.33357l6.91065.0902 1.87965 16.69722c1.03381 9.18349 1.94366 16.88924 2.02187 17.12391.0782.23463 2.97867-7.129 6.44544-16.36366 3.46678-9.23469 6.44558-16.97796 6.61957-17.20729.23472-.30939 2.05581-.41697 7.05819-.41697 3.70801 0 6.82362.0818 6.92357.18172.1489.1489-17.23254 37.37825-22.15502 47.45392-3.09967 6.3446-7.24653 11.28278-11.61725 13.83409-4.0785 2.38076-10.67566 3.90503-16.91828 3.909-2.88741.003-3.08557-.0419-3.08557-.68083zm218.82762-1.83156c-2.5789-1.15924-4.00527-3.41184-4.00527-6.32538 0-7.8157 10.32772-8.98254 12.37013-1.39758 1.32943 4.93711-3.87427 9.74153-8.36486 7.72296zm13.35057-5.00302c-1.54245-.6902-2.28539-1.40012-3.06602-2.92966-1.85454-3.6337-.64697-8.18329 2.6172-9.86028 2.78845-1.4326 6.72944 1.36086 7.30149 5.17552.77936 5.19727-2.96258 9.35518-6.85267 7.61442zm-60.48716-5.016c-1.15651-1.15651-1.41129-2.50372-.7408-3.91671.98007-2.06533 3.28875-2.50221 4.86949-.92147.76472.76472.97507 1.27399.97507 2.36068 0 2.86641-3.17406 4.40719-5.10376 2.4775zm-13.72431-.21669c-1.06304-1.51767-.25579-3.92868 1.31538-3.92868 1.56654 0 2.50075 2.95557 1.31049 4.14587-.75235.75234-2.02023.64747-2.62587-.21719zm84.54236-.51004c-.85275-.42601-1.43731-1.12281-2.16824-2.58471-2.3948-4.78957-.31663-10.95373 3.38008-10.02593 4.24942 1.06654 5.2338 11.06822 1.25304 12.73146-1.3468.56274-1.06927.57635-2.46488-.12082zm-96.68256-.0426c-.72609-.45973-.33658-1.85855.55264-1.98454.69006-.0978.76215.008.66715.97504-.11329 1.15387-.49406 1.469-1.21979 1.0095zm40.56276-.22887c-2.50075-1.35688-2.46979-5.42446.0527-6.91451 2.27678-1.34494 5.20357-.24047 6.03447 2.27722.81866 2.48056-1.15877 5.17128-3.7819 5.14613-.76566-.007-1.80301-.23631-2.30524-.50884zm14.82861-1.79563c-1.08392-.50203-1.58555-1.00683-2.0775-2.09078-.79498-1.75154-.8178-2.5302-.12493-4.26189 1.02998-2.5741 3.65882-3.59984 6.0715-2.36895 3.2635 1.66491 3.46281 6.14966.37467 8.42977-1.27375.94049-2.64031 1.03445-4.24374.29185zm-257.25849-1.52934c-6.14507-1.69627-10.05014-5.73309-11.50154-11.88965-.73769-3.12914-.65938-9.59712.16519-13.64335 2.39268-11.74108 8.4361-19.68805 17.14775-22.5489 2.29923-.75505 3.43282-.90645 7.72321-1.03145 3.92555-.11437 5.49856-.0273 7.17186.39669 4.8796 1.23662 8.35314 3.90883 10.23513 7.87396 1.51675 3.19558 1.85608 5.5205 1.66428 11.40307-.19194 5.88716-1.01953 9.67024-3.19281 14.59514-3.34774 7.58636-7.75125 11.88421-14.56898 14.2194-2.37256.81266-3.2422.92611-7.83902 1.02278-3.87325.0815-5.63069-.0183-7.00507-.39769zm10.51438-9.61504c4.45388-2.07403 8.02273-8.99445 9.201-17.84176.74116-5.56513-.19579-10.22174-2.37421-11.79968-1.25362-.90806-3.87672-1.10787-6.09149-.46404-3.58582 1.04242-6.73312 4.98024-8.55825 10.70783-1.34081 4.20771-1.78765 7.46174-1.63099 11.87744.15926 4.48888.87535 6.53537 2.66958 7.62926 1.58011.96336 4.58514.91506 6.78436-.10905zm160.05338 9.52981c-4.03896-1.44451-5.83947-4.1904-6.04909-9.22515-.10944-2.62911.18094-4.70992 2.23907-16.0453 1.30064-7.16345 2.36481-13.28039 2.36481-13.59318 0-.50296-.44369-.56874-3.83611-.56874h-3.83612v-.91734c0-.92323.88297-6.42724 1.20097-7.49531.14724-.49447.72819-.58655 4.20899-.66715l4.03816-.0935 1.38187-5.17008 1.38191-5.17008 6.24332-1.96647c3.43382-1.08155 6.30961-1.90016 6.39067-1.81912.12519.12521-1.80031 11.30892-2.33156 13.542l-.17856.75054h5.34353c4.05541 0 5.34228.10052 5.33811.41697-.003.22933-.57345 2.21827-1.26766 4.41986l-1.26218 4.0029-4.82009.0923-4.82009.0923-2.29323 12.95645c-2.44037 13.78776-2.62113 15.31623-1.91222 16.17038.62689.75539 2.93609.70045 7.21583-.17169 1.93023-.39332 3.56195-.65601 3.62599-.58375.20042.22603-1.49738 9.45595-1.7955 9.76104-.73883.75614-5.72011 1.6141-10.17807 1.75303-3.94894.12303-4.93622.0503-6.39381-.47097zm-231.64892-.32073c-.0203-.1376-.01-.62545.0229-1.08412.0756-1.05226 10.64022-61.39654 10.84781-61.96155.19702-.53626 17.88718-.58711 21.74898-.0625 8.55756 1.16248 12.97358 4.73785 14.64514 11.85726.76355 3.25207.49347 10.66162-.51523 14.13527-1.1551 3.97775-2.8407 6.86451-5.66832 9.70747-4.94911 4.976-11.47761 7.40303-21.94724 8.15904-1.69707.12256-3.08709.31947-3.08895.43759-.002.11811-.7524 4.40505-1.66787 9.52653-.91548 5.12148-1.6645 9.36205-1.6645 9.4235 0 .23637-12.67784.0983-12.71278-.13847zm22.79564-28.92436c3.24213-.6871 5.01482-1.57677 7.1328-3.57986 3.11701-2.94797 4.54006-6.64428 4.59853-11.94464.0433-3.9202-.24899-5.36241-1.35234-6.67367-1.46521-1.7413-2.5492-2.09018-7.03546-2.26432-2.24746-.0872-4.08629-.0454-4.08629.093 0 .30362-3.94409 23.03856-4.18195 24.10606-.15328.6879-.0483.75008 1.25681.74478.78323-.003 2.43378-.2198 3.6679-.48132zm76.43352 28.09042c1.66058-9.2467 11.2211-63.76733 11.2211-63.99037 0-.17542 2.77824-.30621 6.50472-.30621 3.80982 0 6.50471.12914 6.50471.31171 0 .7239-11.33519 64.45528-11.51597 64.74779-.11603.1877-2.8397.3212-6.55389.3212h-6.35537zm68.89266.83394c-.10228-.69304.38004-3.62076 4.06237-24.6588 2.1892-12.50743 3.98036-22.90246 3.98036-23.10008 0-.24061 1.64056-.35931 4.96586-.35931h4.96585l.24542 5.06763.24543 5.06764.68044-.98135c.37424-.53972 1.96951-2.27024 3.54506-3.84562 2.31503-2.31475 3.43579-3.14673 5.84165-4.33647l2.97703-1.47219h4.52841c4.10424 0 4.67879.0747 6.1338.7971 2.12555 1.05538 3.4893 2.46925 4.53806 4.70484.78875 1.68135.85942 2.18939.83549 6.00639-.0231 3.6907-.35706 6.03924-2.90668 20.44374-1.5843 8.95076-2.9699 16.41867-3.07912 16.59536-.22603.36573-12.83505.45423-12.83505.0901 0-.12719 1.2654-7.52005 2.81201-16.42857 1.5466-8.90856 2.90557-16.80454 3.01993-17.54662.23119-1.50018-.22316-3.04016-1.09161-3.69998-.9992-.75911-3.75426-.54839-5.73503.43865-2.24351 1.11802-6.24481 5.09113-8.65024 8.58933l-1.80593 2.62637-2.10091 12.04189c-1.15549 6.62303-2.18846 12.52975-2.29548 13.12601l-.19457 1.08412h-6.32281c-3.47755 0-6.33943-.11258-6.35974-.25018zm163.72842-2.3439c-1.03752-.64283-2.24503-2.85877-2.23382-4.09934.0127-1.40838 1.20965-3.56958 2.28493-4.12562.5557-.28737 1.63591-.52251 2.40047-.52251 1.16174 0 1.59572.20565 2.64191 1.25181 1.6538 1.6538 1.99331 3.42928 1.0595 5.54038-1.05846 2.39287-3.95913 3.31463-6.15299 1.95528zm34.71022-.39585c-2.01506-1.58502-3.28231-7.73504-2.15056-10.43646.43328-1.03415.69037-1.25091 1.48371-1.25091 1.21848 0 2.25227 1.08358 3.05878 3.20616 1.27693 3.36066 1.27446 7.21309-.006 8.49302-.81295.81295-1.34124.81035-2.38643-.0117zm-22.17724-3.66973c-3.37197-2.05602-3.33475-8.56187.0554-9.68071 4.35022-1.43571 7.48636 6.39163 3.80276 9.49117-1.20314 1.01241-2.41132 1.07175-3.8582.18954zm25.65282-5.27876c-2.24832-4.21825-2.80866-9.65049-.82743-8.02141.75131.61782 2.27105 4.07759 2.75997 6.28325.85909 3.87578-.25779 4.88031-1.93254 1.73816zm-80.49569-.0354c-.67115-.54346-.73403-.76592-.44776-1.58448.59647-1.70567 3.15609-1.37803 3.15609.404 0 .67589-1.06938 1.81271-1.70514 1.81271-.12232 0-.57375-.28451-1.00319-.63223zm64.54864-.004c-1.53291-.93475-2.63074-3.40407-2.63074-5.91729 0-2.45695.67499-3.45417 2.33803-3.45417 2.63874 0 5.21004 5.01123 4.17712 8.14093-.63175 1.91432-2.0344 2.35864-3.88441 1.23053zm-77.18476-.34522c0-.89822.63102-1.1995 1.239-.59156.60794.60797.30668 1.23899-.59153 1.23899-.41854 0-.64747-.22893-.64747-.64743zm25.3517-1.02044c-.36693-.36693-.66715-1.10674-.66715-1.64403 0-2.47816 3.46635-3.14638 4.34418-.8375.85682 2.25363-1.98624 4.17235-3.67703 2.48153zm13.46446-1.39088c-1.58362-.76678-1.94501-3.48739-.637-4.7954 1.31486-1.31486 3.20219-1.06227 4.03042.53939.75225 1.45465.60277 2.5813-.48705 3.67112-1.02067 1.02068-1.71701 1.16081-2.90637.58489zm11.70528-3.76436c-1.07295-1.07297-1.1549-3.51514-.15161-4.51844 1.37526-1.37526 3.65024-.57818 4.34328 1.52174.96687 2.92959-2.08031 5.10807-4.19167 2.9967zm33.10472.14364c-1.94564-1.53044-3.35783-6.47673-2.23529-7.82931.66422-.80031 1.35098-.59463 2.68028.80275 3.31343 3.48313 2.92132 9.67448-.44499 7.02656zm9.34491-2.24366c-1.39015-2.98913-1.80665-4.41987-1.28664-4.41987.43105 0 2.62751 4.47121 2.92349 5.95121.3715 1.85742-.39385 1.14143-1.63685-1.53134zm-30.96564-1.25194c-1.77506-.9646-2.64252-4.7836-1.35192-5.95161.81576-.73824 1.45259-.69557 2.55439.17109 1.68849 1.32816 2.3438 4.07882 1.31995 5.54055-.59556.85028-1.27966.91536-2.52242.23997zm25.17634-2.95244c-1.04332-.8779-2.64708-3.56715-3.12863-5.24617-.22337-.77886-.17556-1.05226.20982-1.20013.67412-.25869 1.85487.91102 2.94923 2.92171 1.78586 3.28125 1.77069 5.04012-.0303 3.52459zm-17.54408-2.20786c-1.78016-1.40029-2.62894-5.07692-1.27149-5.50776 1.90792-.60554 4.78707 3.05721 4.21012 5.35598-.25805 1.02828-1.72785 1.1042-2.93863.15178zm-44.47256-1.37537c-.29408-.47584.67946-1.44938 1.15527-1.1553.63573.39288.42665 1.52087-.28187 1.52087-.35609 0-.74914-.16449-.8734-.36557zm11.23758-1.6093c-.23924-.14784-.38431-.62712-.3224-1.06504.14584-1.03144 1.40168-1.11253 1.54639-.0999.11975.83821-.61742 1.53982-1.22399 1.16491zm49.56268-2.09375c-1.79013-2.39073-2.50952-4.61804-1.27883-3.95937.71772.38412 2.60112 3.2147 2.76614 4.15728.18727 1.06964-.61845.96243-1.48731-.19791zm-11.33128-.51804c-.98915-1.03268-1.90571-3.03837-1.67685-3.66933.43135-1.18902 2.76087.39946 3.64161 2.48317.87623 2.07314-.38555 2.83489-1.96476 1.18616zm-28.74373-.274c-.6949-.6949-.66578-1.71451.0596-2.08761 1.2005-.61745 2.40604.72119 1.75127 1.94464-.42908.80178-1.09913.85469-1.81085.14297zm8.52008-3.33972c-.84538-1.07471-.9099-2.08271-.15195-2.37355.7263-.2787 2.18722 1.39871 2.05029 2.3541-.14868 1.03736-1.09006 1.047-1.89834.0194zm22.20192-1.80164c-1.9333-1.69746-2.10139-3.56315-.22096-2.45237 1.21805.71952 2.29529 2.61759 1.77875 3.13413-.26465.26466-.69377.0769-1.55779-.68176zm-16.16108-1.85881c-.95949-.67205-1.0158-2.14932-.0819-2.14932.78567 0 1.82946 1.45288 1.55593 2.16566-.24421.63643-.54683.6331-1.474-.0163zm15.79224-3.00925c-.69023-.69026-1.28766-1.82136-1.07454-2.03448.52498-.52498 2.55398 1.35159 2.55398 2.36212 0 .39889-.9671.1847-1.47944-.32764zm-12.46399-1.20786c-.48472-.48472-.53126-1.60115-.0667-1.60115.53255 0 1.71197 1.32668 1.49358 1.68004-.27229.44059-.94458.40343-1.42686-.0789zm8.93981-4.10296c-.34012-.4098-.3173-.50037.12596-.50037.29764 0 .54119.22517.54119.50037s-.0567.50036-.12596.50036c-.0693 0-.31279-.22516-.54119-.50036zm-7.79285-.33358c-.10561-.2752-.065-.50036.0902-.50036.15525 0 .46914.22516.69754.50036.33805.40733.32127.50036-.0903.50036-.27804 0-.5919-.22516-.69751-.50036z"/></svg>