<svg xmlns="http://www.w3.org/2000/svg" width="400" height="174"><path fill="#fff" d="M139.847 158.793c-7.12-.311-14.191-1.309-16.93-2.388-.77-.304-2.307-.557-4.377-.721-20.81-1.65-41.597-7-56.815-14.624-8.655-4.336-14.815-8.703-20.832-14.768-3-3.026-6.476-7.282-8.016-9.817-1.041-1.715-.279-.892 1.105 1.192 3.97 5.977 12.43 12.772 22.048 17.706 3.422 1.755 3.435 1.735.18-.287-5.028-3.125-8.602-6.326-9.73-8.716-.456-.964-1.017-1.638-2.027-2.433-1.91-1.505-4.896-4.512-6.634-6.681-3.81-4.758-6.348-10.017-7.531-15.612-.69-3.26-.592-9.187.21-12.609 1.45-6.204 4.892-13.341 9.638-19.99.682-.956 1.32-1.74 1.417-1.742.097-.002-.107.618-.454 1.377-5.302 11.602-7.049 18.123-7.049 26.322 0 7.012 1.742 13.304 5.217 18.848 2.03 3.238 3.056 4.495 6.317 7.737 2.881 2.865 3.134 3.055 5.24 3.938 1.216.51 3.047 1.456 4.067 2.102 1.615 1.021 7.347 4.077 7.02 3.741-.066-.067-1.251-.97-2.633-2.007-3.128-2.348-8.367-7.408-10.791-10.424-1.754-2.182-4.11-5.541-4.11-5.86 0-.083.61.58 1.355 1.473 1.663 1.996 5.246 5.685 6.179 6.361l.688.5-.736-1.016c-.404-.559-.865-1.407-1.022-1.885-.158-.478-.881-1.57-1.607-2.425-.726-.856-2.011-2.611-2.856-3.9-6.057-9.244-7.506-19.4-4.132-28.96 1.543-4.37 4.314-9.114 7.69-13.164 1.824-2.186 5.352-5.644 5.76-5.644.305 0-.29 1.111-2.187 4.083-3.06 4.793-4.642 7.767-6.072 11.409-.912 2.32-2.182 6.69-1.906 6.554 1.811-.888 1.853-.932 2.287-2.43.819-2.823 1.902-5.58 3.508-8.928 3.744-7.807 7.563-12.859 13.682-18.098 5.607-4.802 23.33-18.83 23.537-18.63.052.05-.206.547-.574 1.103-1.196 1.807-4.028 4.61-17.275 17.094l-.98.923.99-.738c1.19-.888 3.873-2.188 4.516-2.189.275 0 2.213-1.724 4.803-4.272 8.601-8.463 16.05-14.667 23.211-19.33 6.968-4.538 26.304-16.1 26.703-15.967.396.132-2.565 3.163-5.223 5.347-3.35 2.754-7.532 5.768-15.491 11.168-11.567 7.848-15.368 10.644-23.297 17.14-7.249 5.937-7.76 6.432-8.243 7.985-.804 2.588-4.042 7.323-7.886 11.533-2.316 2.537-5.232 5.209-6.452 5.91-.755.436-.967.811-1.991 3.52-2.561 6.774-3.463 10.67-3.637 15.704-.073 2.14-.046 2.736.084 1.832.26-1.809 1.215-3.812 2.363-4.961.84-.84 1.009-1.214 1.496-3.327 1.806-7.822 5.817-15.493 10.775-20.604 2.562-2.642 25.02-21.258 25.02-20.74-.001.726-2.928 3.848-12.322 13.145-7.278 7.202-10.58 10.646-11.905 12.414-3.067 4.094-6.149 9.957-8.465 16.101l-.926 2.456.584.86c.32.474.76 1.692.976 2.708.216 1.016.424 1.956.462 2.088.038.132.142-.3.23-.961.535-4.012 1.09-5.861 2.9-9.652 1.622-3.398 5.223-8.987 5.569-8.641.064.064-.474 1.613-1.196 3.44-2.24 5.676-2.86 7.952-3.273 12.035a25.229 25.229 0 002.265 13.202c1.434 3.032 3.177 5.488 5.927 8.35 2.259 2.352 2.362 2.426 3.824 2.728.827.17 2.268.69 3.202 1.153l1.7.844-.96-.795c-1.615-1.335-3.973-3.637-4.765-4.65-.722-.924-.698-.913.622.279 2.949 2.662 7.394 5.163 13.348 7.51l1.28.504-.502-.705c-.302-.424-1.508-1.238-3.031-2.044-4.809-2.545-9.398-5.936-12.08-8.926-2.971-3.314-5.287-7.652-5.657-10.597-.186-1.479.157-3.911.856-6.076.583-1.806 2.468-5.717 3.01-6.245.332-.323.354-.238.22.84-.35 2.816-.438 7.752-.168 9.487.778 5.006 2.989 9.157 7.106 13.344 2.861 2.91 4.91 4.51 8.647 6.758 2.172 1.307 2.572 1.462 4.193 1.62 2.773.269 18.893 4.97 21.284 6.207.405.209.887.561 1.07.782.29.35.273.447-.123.737-.252.184-.788.342-1.192.35-.404.01-.942.099-1.195.198-.72.282 8.758 1.758 17.032 2.651 2.51.271 4.96.536 5.444.59.484.053 1.673 0 2.642-.116 4.362-.526 17.861-1.211 25.659-1.302 8.002-.093 18.04-.484 38.188-1.488 7.27-.363 8.207-.45 6.364-.59-1.189-.09-2.756-.287-3.482-.437-1.093-.227-2.466-.17-7.926.332-14.31 1.312-24.183 1.686-40.08 1.515-12.106-.13-17.729-.403-25.728-1.25-4.845-.511-12.056-1.57-12.489-1.833-.235-.143.014-.176.72-.096 1.048.12 9.216.482 16.332.726 3.087.105 3.387.082 2.642-.202-.545-.208-2.615-.377-5.884-.48-21.752-.68-39.129-6.57-48.401-16.402-2.359-2.5-3.109-3.69-1.179-1.87 7.32 6.905 23.319 12.546 43.816 15.45 8.456 1.197 10.327 1.34 13.39 1.016 16.278-1.718 33.889-1.554 34.609.323.221.576-.958 1.277-2.802 1.666-.95.2-1.942.418-2.206.485-.847.215 12.234-.087 20.175-.465 10.925-.522 13.247-.728 17.3-1.536 7.179-1.432 13.604-1.945 24.345-1.943 8.059.002 9.52.124 10.126.855.424.511-.034.927-1.7 1.543l-1.316.488 1.201-.116c5.557-.535 9.542-.653 18.572-.55 8.445.097 10.204.177 11.26.514 1.465.468 1.701.739 1.162 1.334-1.081 1.196-7.674 2.136-18.745 2.673-8.097.392-15.237.06-18.511-.864-1.083-.305-1.86-.29-6.965.133-14.176 1.176-32.645 2.412-43.094 2.884-4.196.19-6.066.363-6.519.607-.349.188-1.213.497-1.921.687l-1.287.346 1.441.017c4.644.054 15.323-.522 17.533-.944 1.32-.253 4.401-.703 6.845-1.002 4.042-.493 5.505-.543 16.212-.551 12.228-.01 13.633.09 13.982 1 .093.243-.068.563-.433.863l-.58.477 1.921-.178c1.057-.098 8.677-.215 16.933-.26 13.814-.075 15.235-.121 17.834-.573 6.06-1.053 9.736-1.316 18.552-1.328l8.406-.01-.522-.512c-1.366-1.337-1.175-3.78.378-4.824 1.22-.821 2.465-.74 3.523.232 1.462 1.342 1.518 3.549.123 4.795-.86.768-1.067.664 2.48 1.248 1.176.194 2.304.518 2.506.72.33.331.28.406-.499.731-1.565.654-5.869 1.231-14.113 1.893-.595.047.972.051 3.482.008 6.42-.111 6.9-.109 9.75.044 2.528.136 2.547.133 2.946-.475.582-.889 2.095-1.58 3.46-1.58 1.293 0 3.497.95 3.973 1.712.181.29.559.45 1.061.45.673 0 .83-.122 1.155-.897.84-2.01 2.832-3.183 5.395-3.178 1.807.004 3.122.51 4.247 1.634l.753.753.263-.756c.398-1.14 1.4-2.33 2.611-3.098.911-.578 1.013-.713.63-.836-2.038-.656-3.426-1.739-3.926-3.064-.389-1.033-.294-3.056.194-4.128.506-1.113 2.064-2.6 3.233-3.09 2.302-.96 4.72-.582 6.385 1.001l.948.902.14-.745c.21-1.125 1.428-2.882 2.569-3.708 2.411-1.747 5.132-1.782 6.951-.088l.62.578.3-1.027c.66-2.274 2.516-4.262 4.545-4.868.852-.255 2.103.066 2.914.748.524.442.753.523.82.291.051-.176.223-.807.382-1.402.904-3.388 3.213-4.737 4.755-2.777l.49.622.159-1.264c.213-1.692.77-3.382 1.36-4.133.62-.788 1.675-.822 2.23-.073.385.518.396.474.277-1.1-.229-3.037.316-4.707 1.027-3.147 1.032 2.266 1.553 14.76.719 17.276-.493 1.487-1.15 4.733-1.41 6.965-.227 1.955-1.527 5.825-2.964 8.827a142.834 142.834 0 00-1 2.109c.004.004 1.268.157 2.809.34 3.004.358 3.868.645 3.65 1.215-.195.506-2.759 1.238-5.908 1.688-2.246.32-2.766.474-3.065.905-3.188 4.589-7.522 9.391-11.048 12.243-5.435 4.394-12.167 7.692-19.398 9.503-4.127 1.033-6.638 1.311-10.384 1.149-3.378-.146-3.502-.15-5.313-.12-1.214.02-2.215-.38-2.068-.828.127-.387 1.733-.494 2.644-.177.408.142.804.167.878.055.075-.112.353-.326.617-.476.429-.243.39-.273-.36-.28-.463-.004-1.171-.21-1.575-.456-.716-.436-.747-.436-1.287 0-1.34 1.086-5.304-.037-5.304-1.502 0-.239.234-.56.52-.713.748-.4 3.156-.124 4.179.48 1.03.607.982.604 1.122.069.062-.239.48-.614.929-.835.617-.304.695-.403.322-.407-.856-.01-2.862-1.166-3.294-1.898-.674-1.14-.54-2.115.425-3.08.462-.462.84-.871.84-.91 0-.038-.36-.136-.801-.22-.441-.082-1.25-.533-1.796-1-2.146-1.837-1.839-4.344.689-5.634 1.874-.956 5.315-.38 6.411 1.074.39.518.398.513.983-.66.394-.79.93-1.4 1.616-1.834l1.027-.652-.838-.303c-.998-.36-2.405-1.544-2.612-2.196-.221-.698-1.316-.635-1.317.075-.002 1.33-1.631 2.892-3.353 3.218-1.825.344-4.313-.865-5.266-2.561-.5-.892-.61-.958-1.603-.958h-1.066v.908c0 1.68-1.322 2.749-3.312 2.678-.622-.023-1.887.129-2.812.336-3.877.868-12.469 1.565-21.736 1.763-7.024.15-11.094-.07-13.697-.736-1.06-.272-2.448-.3-7.198-.143-3.236.107-12.747.39-21.135.63-14.228.405-15.11.455-13.14.738 2.266.326 3.052.618 3.052 1.133 0 1.062-5.835 2.183-16.331 3.137l-3.723.339 3.482-.121c8.708-.304 14.889-.816 16.91-1.402 2.283-.661 6.75-1.437 10.71-1.859 3.561-.38 17.69-.371 20.284.012 1.838.271 3.013.752 3.013 1.234 0 1.103-4.944 2.156-13.69 2.915-4.881.424-18.328.424-20.626 0-1.495-.275-2.533-.276-6.605-.003l-4.832.325 3.363.18c6.833.366 10.447 1.012 10.447 1.868 0 .754-4.06 1.837-9.367 2.5-7.439.928-11.898 1.195-20.174 1.208-7.012.011-8.508-.048-9.727-.385-1.205-.334-1.913-.365-4.323-.188-4.377.32-17.717.942-21.185.987-1.69.022-2.64.08-2.112.128 1.936.177 5.172.8 6.115 1.177 1.325.53 1.306 1.175-.05 1.773-3.049 1.343-15.098 1.972-27.44 1.432zm181.56-1.467c.732-.333.758-.475.157-.85-.366-.23-.622-.2-1.298.144l-.841.429.637.252c.35.14.658.264.685.278.027.014.324-.1.66-.253zm6.105-.898c.182-.115.287-.337.235-.495-.062-.185-.256-.11-.547.212-.459.507-.287.663.313.283zm-199.601-2.343c2.394-.087 4.296-.249 4.227-.36-.069-.112-.693-.203-1.387-.203-1.713 0-10.684-.846-15.402-1.452-8.423-1.082-16.5-2.709-22.696-4.572-3.442-1.034-8.27-2.838-8.088-3.02.06-.06.742.05 1.517.247 7.191 1.819 22.8 4.248 35.687 5.553 6.883.697 8.5.74 5.109.134-1.321-.236-3.159-.652-4.083-.923-1.102-.324-2.716-.54-4.684-.628-9.784-.44-23.94-3.175-33.606-6.495-2.203-.757-2.22-.756-1.072.018 1.004.678 1.285.999 1.29 1.471.007.506-3.381.356-6.582-.292a91.338 91.338 0 01-5.89-1.446c-1.631-.469-3.01-.81-3.062-.757-.053.053 1.287.608 2.977 1.233 11.756 4.347 26.228 7.99 41.862 10.537 2.84.463 5.434.888 5.765.944 1.008.173 3.557.176 8.118.01zm193.408-.514c.364-.64.353-.693-.24-1.26l-.62-.59-.865.889-.865.89.985.34c.541.188 1.038.355 1.104.37.066.017.292-.271.5-.639zm8.146-2.374c-.29-.229-.487-.164-1.005.33-.525.5-.595.691-.377 1.04.245.393.325.366 1.004-.33.636-.652.688-.796.378-1.04zm-145.546.66c2.048-.137 5.29-.515 7.207-.84 1.917-.325 6.564-.971 10.328-1.435 3.764-.464 7.167-.89 7.563-.945.924-.13-2.15.02-6.604.32-6.302.425-21.364 1.177-28.821 1.439-4.03.14-9.757.382-12.73.534-2.972.153-9.78.339-15.13.414-9.217.13-9.526.148-5.885.348 2.114.117 5.896.296 8.406.398 6.05.245 30.955.083 35.666-.232zm-50.016-.662a1.97 1.97 0 00-.84 0c-.232.06-.043.11.42.11.462 0 .651-.05.42-.11zm-2.88-.24c-.23-.06-.661-.062-.96-.005-.299.058-.111.107.417.11.529.002.773-.045.544-.105zm206.52-.963c-.073-.073-.31-.063-.53.02-.33.127-.345.216-.088.526.279.335.331.333.53-.021.12-.216.16-.453.088-.525zm-17.059-1.415c.225-.474.598-.98.828-1.123.367-.23.302-.319-.534-.732-.524-.26-1.12-.728-1.326-1.041l-.373-.57-.416.783c-.23.43-.82 1.012-1.314 1.293l-.897.51.834.156c.46.086 1.252.47 1.763.855.51.384.95.705.978.715.026.009.232-.372.457-.846zm-107.68-.268c-.296-.057-.836-.058-1.202-.004-.365.056-.123.102.538.104.66.002.959-.044.663-.1zm-28.645-.558c5.086-.129 10.058-.252 11.048-.274.991-.023-.252-.12-2.762-.215-2.51-.096-4.941-.295-5.404-.444-.61-.196-1.727-.202-4.083-.022-4.469.341-17.275.953-20.775.993-1.715.019-2.541.096-2.041.19 1.01.19 11.35.093 24.017-.228zm-53.198-.65c.264-.084-1.627-.345-4.203-.582-14.034-1.292-26.976-3.965-36.103-7.457-1.033-.395-1.834-.762-1.78-.815.053-.054 1.654.218 3.558.603 7.87 1.592 20.383 3.515 29.82 4.583 5.188.587 5.72.59 4.024.028-.873-.29-2.745-.53-5.524-.708-15.173-.973-30.99-4.967-42.557-10.744-8.002-3.998-14.868-9.217-19.673-14.954-1.874-2.238-4.778-6.384-4.778-6.82 0-.118.636.577 1.414 1.542 3.807 4.727 11.756 11.216 18.16 14.826l.96.541-.72-.54c-1.5-1.128-4.13-3.988-4.64-5.048-.427-.889-.914-1.357-2.492-2.395-5.314-3.497-9.703-9.25-11.562-15.156-1.81-5.748-1.81-11.13 0-16.53.881-2.63 3.188-7.219 4.992-9.93.865-1.299 1.573-2.407 1.573-2.461 0-.054-.264-.099-.587-.099-.731 0-1.334-.821-1.334-1.817 0-2.112 2.798-7.556 5.577-10.852.695-.824.661-.808-.396.18-4.279 4-9.787 12.419-13.459 20.568l-1.327 2.946.515.872c.439.743.541 1.426.698 4.635.1 2.07.425 5.06.722 6.645.733 3.918.772 7.606.093 8.766-.379.647-.674.858-1.28.917-.7.069-.969-.111-2.45-1.64-.914-.944-1.663-1.647-1.663-1.564 0 .084.388 1.092.861 2.24 1.061 2.575 2.734 5.53 4.636 8.196l1.445 2.025 2.474 1.108c1.846.828 3.752 2.024 7.517 4.72 7.103 5.084 12.092 8.444 14.92 10.049 2.595 1.472 3.693 2.334 3.693 2.9 0 .923-5.56-.103-10.385-1.915-1.216-.457-2.258-.783-2.315-.726-.17.17 8.97 4.518 12.1 5.756 10.679 4.227 23.102 7.077 36.026 8.266 2.475.228 12.596.107 13.45-.16zm71.996.019c-.162-.066-.486-.07-.72-.01-.234.062-.1.116.296.12.396.005.587-.045.424-.11zm126.956-.857l.946-1.014-.637-.387c-.626-.38-.652-.37-1.502.584l-.865.972.505.422c.277.232.527.425.556.43.028.003.477-.449.997-1.007zm-147.075-.903c1.849-.147 4.064-.474 4.923-.728 1.96-.579 6.06-1.35 8.355-1.572.962-.093 1.719-.198 1.681-.232-.037-.034-4.607.083-10.155.261-5.548.179-11.276.315-12.73.304l-2.641-.021 2.762-.319c6.425-.74 22.738-2.016 32.661-2.554l5.646-.307-5.764-.148c-3.21-.083-6.136-.27-6.605-.422-.603-.196-1.518-.207-3.242-.038-8.77.858-24.495 1.671-33.144 1.713l-5.284.025 2.304.315c3.818.52 5.213 1.108 4.545 1.913-.736.887-5.334 1.518-12.733 1.75l-5.644.176 3.362.146c5.185.225 27.931.037 31.703-.262zm157.042-2.481c-.224-.129-.585.009-1.046.397l-.705.593.53.351c.494.328.564.302 1.045-.397.429-.622.459-.782.176-.944zm-206.157-1.823c2.443-.092 4.173-.234 3.842-.315-.33-.081-2.707-.322-5.283-.535-4.976-.41-11.382-1.25-15.732-2.062-3.605-.672-9.795-2.163-10.08-2.428-.14-.13.052-.167.48-.092 3.084.535 27.877 2.464 28.15 2.19.08-.08-.117-.144-.437-.144-.319 0-1.553-.27-2.742-.6-1.854-.515-2.809-.615-6.724-.706-9.15-.215-18.31-1.771-26.164-4.447-1.181-.402-2.208-.73-2.282-.729-.074.002.351.288.946.636 1.478.867 1.921 1.281 1.921 1.796 0 .64-.89.777-3.935.607-2.955-.165-6.762-.927-10.225-2.047-1.249-.404-2.305-.7-2.347-.659-.105.105 5.526 2.328 8.472 3.345 7.32 2.526 16.975 4.677 26.048 5.802 5.292.657 7.036.781 9.367.667 1.255-.06 4.28-.186 6.725-.279zm215.124-.718c.156-.25.218-.52.137-.6-.167-.168-1.026.545-1.026.852 0 .377.603.206.889-.252zm-121.456-.77c3.236-.133 12.747-.291 21.135-.351 11.95-.086 15.641-.185 17.052-.457 4.504-.868 11.975-1.567 16.767-1.569 2.07 0 3.144-.086 3.048-.241-.094-.152-3.066-.24-8.12-.241-10.315 0-34.965-.424-36.673-.629-1.23-.147-1.27-.172-.6-.361 2.27-.64 11.625-1.288 24.618-1.703 7.477-.238 9.08-.342 7.565-.49-1.057-.104-2.415-.331-3.019-.505-.862-.248-2.406-.275-7.205-.124-3.36.106-17.348.52-31.086.92s-30.598.897-37.467 1.104c-15.147.457-17.73.415-11.648-.191 2.311-.23 7.12-.66 10.684-.954 5.41-.447 6.303-.57 5.404-.751-.667-.134-2.86-.113-5.761.054-18.922 1.094-41.205.872-58.723-.585-8.759-.729-22.658-2.64-23.647-3.25-.26-.162-.121-.193.47-.105 1.528.228 9.051.846 9.999.823.519-.013-.502-.272-2.313-.587-4.636-.805-11.419-2.414-13.431-3.185-.188-.072-.1.11.195.406.295.295.495.665.444.822-.206.627-1.92.936-4.364.785-1.313-.081-2.337-.098-2.277-.038.17.169 7.48 2.203 10.307 2.868 6.993 1.644 18.208 3.551 21.135 3.593.99.014 5.206-.105 9.367-.266 12.586-.484 19.461-.341 26.378.55 3.264.42 4.45.718 4.983 1.252.373.373.366.428-.112.815-.979.792-4.959 1.354-11.628 1.64-3.157.136-.27.188 10.4.188 20.153 0 29.058-.408 32.83-1.501 5.627-1.631 12.52-2.36 22.41-2.37 9.206-.01 11.77.307 11.77 1.457 0 1.106-7.203 2.449-17.774 3.313l-4.203.344 3.603-.119c1.981-.065 6.25-.227 9.487-.36zm103.488-1.57c.794-.734.801-.758.285-.922-.291-.093-.895-.49-1.342-.881l-.812-.713-.367.71c-.201.39-.821 1.099-1.377 1.574-.555.476-.85.865-.655.865.196 0 .836.311 1.424.692l1.07.691.479-.631c.263-.348.846-.97 1.295-1.385zm-31.676.02c0-.072-.165-.45-.367-.84-.348-.674-.442-.708-1.921-.708-1.484 0-1.555.026-1.555.58 0 .525.138.6 1.501.809 1.913.294 2.342.323 2.342.16zm56.81-.844c.26-.418-.035-.507-.365-.11-.189.228-.207.366-.048.366.14 0 .327-.115.414-.256zm-64.89-.344c-.108-.283-.596-.36-2.273-.36-1.739 0-2.136.067-2.136.36 0 .295.412.36 2.274.36 1.923 0 2.253-.055 2.136-.36zm48.79-.12c.082-.134-.098-.239-.407-.237-.446.003-.484.05-.194.237.447.289.422.289.6 0zm11.339-5.434c.123-.375-.918-.608-1.3-.291-.172.143-.313.361-.313.486 0 .316 1.505.135 1.613-.195zm-228.635-1.216c-.23-.06-.661-.062-.96-.005-.299.057-.111.107.417.11.529.002.773-.045.543-.105zm236.087-2.76c-.464-.295-.53-.258-1.338.748l-.76.946.778.075c.677.066.832-.032 1.198-.752.326-.641.353-.87.122-1.017zm-18.37-.463c.363-.513 1.092-1.246 1.62-1.628l.96-.695-.843-.158c-.495-.093-1.238-.535-1.807-1.076l-.965-.919-.49 1.138c-.524 1.218-1.585 2.366-2.717 2.942l-.698.354.93.175c1.107.207 2.056.67 2.518 1.227.315.38.352.379.583-.01.136-.23.545-.837.908-1.35zm-101.96-1.8c-.08-.08-.287-.089-.46-.02-.192.077-.135.134.144.146.254.01.395-.047.316-.127zm-154.98-.3c-.125-.112-1.2-.864-2.39-1.67-4.374-2.97-8.21-6.334-11.919-10.456-1.304-1.449-2.37-2.732-2.37-2.851 0-.12.61.502 1.356 1.382 2.631 3.102 8.267 7.284 13.414 9.952 1.32.685 2.077.997 1.681.692-1.718-1.32-3.514-3.238-4.06-4.336-.446-.893-.995-1.47-2.229-2.337-3.019-2.124-5.496-4.815-7.498-8.147-.64-1.066-1.232-1.87-1.315-1.788-.082.082-.149.447-.149.811 0 .884-1.076 2.14-1.832 2.14-2.004 0-5.733-4.057-7.458-8.113l-.584-1.374.157 1.201c.335 2.563 2.109 7.196 3.768 9.84 1.477 2.354 3.754 5.082 6.24 7.474 2.434 2.343 2.57 2.434 4.053 2.726 1.041.204 3.077 1.067 6.33 2.68 4.695 2.328 5.268 2.588 4.805 2.174zm281.2-1.035c.619-1.933.183-2.177-.832-.467-.875 1.474-.865 1.564.182 1.678.14.016.433-.53.65-1.211zm-12.978-1.807l.728-.764-.812-.343c-.447-.19-1.017-.573-1.267-.854l-.454-.51-.537 1.137c-.295.626-.887 1.49-1.315 1.918-.646.648-.702.782-.33.787.247.004.881.202 1.41.44l.96.433.445-.74c.244-.407.772-1.083 1.172-1.504zm7.934-3.59l.827-1.234-.785-.374c-.432-.206-.856-.597-.942-.869-.178-.562-.605-.668-.605-.15 0 .188-.37 1.052-.822 1.92l-.823 1.58.642.003c.354.002.805.108 1.003.236.505.326.577.273 1.505-1.112zm5.738-4.822c.554-1.605.569-1.751.18-1.751-.232 0-.647-.285-.92-.633l-.498-.633-.006.813c-.004.447-.247 1.515-.54 2.374l-.535 1.561.857.01c.852.01.862-.002 1.462-1.741zm3.25-7.523c-.324-.464-.358-.406-.51.896-.09.766-.28 1.766-.424 2.221-.232.739-.205.866.254 1.17.283.189.53.518.549.733.019.215.134-.714.257-2.066.183-2.022.161-2.545-.125-2.954zM57.993 97.997c-.077-.192-.134-.135-.145.145-.01.253.046.395.126.315.08-.08.088-.287.019-.46zm8.166-1.922c-.077-.191-.134-.134-.145.145-.01.254.046.395.126.316.08-.08.088-.287.019-.46zm244.153 62.243c-.87-.35-.624-.713.48-.71 1.142.005 1.766.288 1.518.69-.195.316-1.236.326-1.998.02zm-3.423-1.59c-1.294-.446-2.642-1.415-2.642-1.897 0-.56 1.443-.42 2.84.276 1.375.685 1.995 1.458 1.448 1.804-.406.258-.353.264-1.646-.183zm-4.683-1.129c-.66-.308-1.35-.739-1.53-.958-.29-.35-.268-.399.173-.399.683 0 2.96 1.03 3.368 1.523.29.352.263.399-.24.397-.314 0-1.11-.255-1.771-.563zm5.294-2.459c-1.76-.644-2.97-2.285-2.48-3.36 1.03-2.259 6.673-.602 6.673 1.958 0 1.586-1.93 2.23-4.193 1.402zm-5.176-.078c-1.148-.358-2.092-.961-2.844-1.818-.84-.956-.885-1.1-.468-1.517 1.115-1.115 5.888 1.74 5.076 3.036-.289.46-.907.565-1.764.299zm-6.455-1.71c-.98-.71-1.696-1.766-1.399-2.063.31-.31 1.395.192 2.325 1.076 1.696 1.614.985 2.372-.926.987zm-3.638-1.15c-.297-.241-.496-.573-.441-.738.07-.212.292-.148.755.215.647.51.854.96.44.96-.117 0-.456-.196-.754-.437zm12.71-2.763c-2.536-.942-3.994-3.286-3.093-4.97.34-.636 1.814-1.003 2.876-.717 1.51.407 3.014 1.54 3.572 2.692.649 1.34.645 1.694-.026 2.475-.658.765-2.074.986-3.33.52zm-8.019-.8c-2.118-1.118-3.28-3.503-2.03-4.171 1.055-.565 3.55.956 4.227 2.576.413.988.408 1.155-.052 1.616-.475.474-1.218.467-2.145-.022zm-6.506-1.257c-.854-.52-1.78-1.617-1.78-2.107 0-.945 1.639-.411 2.733.89 1.192 1.416.604 2.166-.953 1.217zm-5.134-1.932c-.137-.255-.249-.58-.249-.72 0-.505.475-.243.841.464.327.632.329.72.015.72-.197 0-.47-.208-.607-.464zm23.842-13.72c-1.105-.335-2.374-1.636-2.72-2.787-1.054-3.52 2.782-6.44 6.165-4.693 2.789 1.44 2.838 5.61.082 7.015-1.145.585-2.53.767-3.527.465zm11.123-.805c-1.193-.443-2.704-1.916-3.054-2.975-.765-2.32.337-4.94 2.501-5.948 3.562-1.659 7.37.52 7.37 4.217 0 1.985-.968 3.58-2.724 4.487-1.008.521-2.994.628-4.093.219zm-31.15-.843c-.57-.572-.701-.907-.701-1.801 0-1.954 1.278-2.628 2.653-1.4 1.004.897 1.21 2.309.475 3.242-.685.87-1.53.855-2.426-.041zm-7.65-1.43c-.386-.721-.312-1.704.141-1.879.545-.208 1.328.8 1.236 1.59-.093.795-1.004.987-1.377.29zm25.919-9.123c-3.099-1.657-1.842-6.433 1.68-6.38.669.01 1.427.192 1.794.432 2.123 1.391 2.073 4.66-.09 5.875-1.134.638-2.28.663-3.384.073zm-10.296-.185c-.853-.597-1.257-1.768-.969-2.81.295-1.068 1.015-1.602 2.163-1.602 2.026 0 2.939 2.602 1.439 4.102-.802.801-1.769.915-2.633.31zm21.07-.56c-2.42-1.316-2.777-4.693-.695-6.574 2.702-2.442 6.737-.583 6.737 3.103 0 1.352-.573 2.442-1.738 3.304-.955.708-3.153.793-4.303.168zm-30.571-.302c-1.13-1.614.587-3.808 1.87-2.39.847.936.219 2.923-.923 2.923-.32 0-.738-.235-.947-.533zm-7.57-1.256c-.246-.297-.248-.444-.01-.732.165-.199.383-.36.485-.36.368 0 .486.813.164 1.135-.28.28-.376.273-.638-.043zm49.817-.103c-4.465-2.028-3.047-8.73 1.848-8.73 3.731 0 5.82 4.635 3.39 7.523-.779.925-2.282 1.648-3.427 1.648-.462 0-1.277-.199-1.811-.441zm-146.616-1.481c0-.523.96-6.067 1.07-6.18.035-.037 1.015-.176 2.177-.308 4.943-.561 8.688-2.704 10.26-5.87.34-.684.17-1.561-3.321-17.172-2.024-9.049-3.684-16.59-3.69-16.757-.01-.24 1.062-.292 4.964-.24l4.976.064 1.353 12.022c.744 6.612 1.4 12.16 1.456 12.33.056.168 2.144-5.133 4.64-11.782 2.497-6.65 4.641-12.224 4.767-12.39.169-.222 1.48-.3 5.081-.3 2.67 0 4.913.06 4.985.131.108.107-12.407 26.912-15.951 34.167-2.232 4.568-5.218 8.123-8.365 9.96-2.936 1.715-7.686 2.812-12.18 2.815-2.08.002-2.222-.03-2.222-.49zm157.556-1.319c-1.857-.835-2.884-2.457-2.884-4.554 0-5.628 7.436-6.468 8.906-1.007.957 3.555-2.79 7.014-6.022 5.561zm9.612-3.602c-1.11-.497-1.646-1.008-2.208-2.11-1.335-2.616-.465-5.892 1.885-7.099 2.008-1.031 4.845.98 5.257 3.726.561 3.742-2.133 6.736-4.934 5.483zm-43.55-3.612c-.833-.832-1.017-1.802-.534-2.82.705-1.487 2.368-1.801 3.506-.663.55.55.702.917.702 1.7 0 2.063-2.285 3.173-3.675 1.783zm-9.882-.156c-.766-1.092-.184-2.828.947-2.828 1.128 0 1.8 2.128.943 2.985a1.245 1.245 0 01-1.89-.157zm60.87-.367c-.614-.307-1.035-.808-1.56-1.86-1.725-3.45-.229-7.888 2.433-7.22 3.06.768 3.768 7.97.902 9.167-.97.405-.77.415-1.775-.087zm-69.611-.03c-.523-.332-.243-1.339.398-1.43.496-.07.548.007.48.703-.082.83-.356 1.057-.878.726zm29.205-.165c-1.8-.977-1.778-3.906.038-4.979a2.978 2.978 0 014.345 1.64c.59 1.786-.835 3.723-2.723 3.705-.551-.005-1.298-.17-1.66-.366zm10.677-1.293c-.78-.362-1.142-.725-1.496-1.506-.573-1.26-.59-1.821-.09-3.068.741-1.853 2.634-2.592 4.371-1.706 2.35 1.199 2.494 4.428.27 6.07-.917.677-1.9.744-3.055.21zm-185.227-1.101c-4.424-1.222-7.236-4.128-8.28-8.56-.532-2.254-.476-6.91.118-9.824 1.723-8.454 6.074-14.175 12.347-16.235 1.655-.544 2.471-.653 5.56-.743 2.827-.082 3.96-.02 5.164.286 3.513.89 6.014 2.814 7.37 5.669 1.091 2.3 1.336 3.975 1.198 8.21-.139 4.239-.735 6.963-2.3 10.509-2.41 5.462-5.58 8.556-10.489 10.238-1.708.585-2.334.666-5.644.736-2.789.059-4.054-.013-5.044-.286zm7.57-6.923c3.207-1.493 5.777-6.476 6.625-12.846.534-4.007-.14-7.36-1.709-8.496-.903-.654-2.791-.798-4.386-.334-2.582.75-4.848 3.586-6.162 7.71-.965 3.03-1.287 5.372-1.174 8.551.114 3.232.63 4.706 1.922 5.493 1.138.694 3.301.66 4.885-.078zm115.24 6.861c-2.909-1.04-4.205-3.017-4.356-6.642-.079-1.893.13-3.39 1.612-11.552.936-5.158 1.703-9.562 1.703-9.788 0-.362-.32-.409-2.762-.409h-2.762v-.66c0-.665.635-4.628.864-5.397.106-.356.525-.422 3.03-.48l2.908-.068.995-3.722.995-3.723 4.495-1.416c2.473-.778 4.543-1.368 4.602-1.31.09.09-1.297 8.143-1.68 9.75l-.128.541h3.848c2.92 0 3.846.073 3.843.3-.002.166-.413 1.598-.913 3.183l-.908 2.882-3.47.066-3.471.067-1.651 9.328c-1.757 9.928-1.888 11.028-1.377 11.643.451.544 2.114.504 5.195-.123 1.39-.284 2.565-.473 2.61-.42.145.162-1.077 6.808-1.292 7.027-.532.545-4.118 1.162-7.328 1.262-2.843.089-3.554.037-4.604-.339zm-166.788-.23c-.015-.1-.007-.451.016-.781.055-.758 7.661-44.206 7.81-44.613.143-.386 12.88-.422 15.66-.045 6.161.837 9.341 3.412 10.545 8.538.55 2.341.355 7.676-.371 10.177-.832 2.864-2.046 4.943-4.082 6.99-3.563 3.582-8.263 5.33-15.802 5.874-1.222.088-2.222.23-2.224.315 0 .085-.541 3.172-1.2 6.86-.66 3.687-1.199 6.74-1.199 6.784 0 .17-9.128.07-9.153-.1zm16.413-20.826c2.334-.495 3.61-1.135 5.135-2.578 2.245-2.122 3.27-4.784 3.311-8.6.031-2.822-.179-3.86-.973-4.805-1.055-1.254-1.836-1.505-5.066-1.63-1.618-.063-2.942-.033-2.942.067 0 .218-2.84 16.588-3.011 17.356-.11.495-.035.54.905.536.564-.002 1.752-.158 2.64-.346zm55.032 20.225c1.196-6.658 8.08-45.913 8.08-46.073 0-.126 2-.22 4.682-.22 2.744 0 4.684.092 4.684.224 0 .521-8.161 46.408-8.292 46.618-.083.135-2.044.231-4.718.231h-4.576zm49.603.6c-.074-.499.273-2.607 2.925-17.754 1.576-9.005 2.865-16.49 2.865-16.632 0-.173 1.182-.259 3.576-.259h3.575l.177 3.649.177 3.649.49-.707c.269-.389 1.418-1.635 2.552-2.769 1.667-1.666 2.474-2.265 4.206-3.122l2.143-1.06h3.26c2.956 0 3.37.054 4.417.574 1.53.76 2.513 1.778 3.268 3.387.568 1.21.618 1.577.601 4.325-.016 2.657-.257 4.348-2.093 14.72-1.14 6.444-2.138 11.82-2.217 11.948-.162.263-9.24.327-9.24.065 0-.092.91-5.414 2.024-11.829 1.113-6.414 2.092-12.099 2.174-12.633.167-1.08-.16-2.189-.786-2.664-.72-.547-2.703-.395-4.129.316-1.615.805-4.496 3.665-6.228 6.184l-1.3 1.891-1.513 8.67c-.832 4.769-1.576 9.022-1.653 9.45l-.14.781h-4.552c-2.504 0-4.565-.08-4.58-.18zm117.884-1.687c-.747-.463-1.616-2.059-1.608-2.952.009-1.014.87-2.57 1.645-2.97.4-.207 1.178-.376 1.728-.376.837 0 1.15.148 1.902.9 1.191 1.192 1.436 2.47.763 3.99-.762 1.723-2.85 2.386-4.43 1.408zm24.992-.285c-1.451-1.141-2.364-5.57-1.549-7.515.312-.744.497-.9 1.068-.9.878 0 1.622.78 2.203 2.308.92 2.42.917 5.194-.004 6.115-.586.586-.966.584-1.718-.008zm-15.968-2.642c-2.428-1.48-2.401-6.165.04-6.97 3.132-1.034 5.39 4.601 2.738 6.833-.866.729-1.736.772-2.778.137zm18.47-3.801c-1.619-3.037-2.022-6.949-.596-5.776.541.445 1.635 2.936 1.987 4.524.619 2.79-.185 3.514-1.391 1.252zm-57.957-.026c-.483-.391-.528-.551-.322-1.14.43-1.229 2.272-.993 2.272.29 0 .487-.77 1.306-1.228 1.306-.088 0-.413-.205-.722-.456zm46.475-.003c-1.104-.673-1.894-2.45-1.894-4.26 0-1.769.486-2.487 1.683-2.487 1.9 0 3.752 3.608 3.008 5.861-.455 1.379-1.465 1.699-2.797.886zm-55.573-.248c0-.647.454-.864.892-.426s.22.892-.426.892c-.301 0-.466-.165-.466-.466zm18.253-.735c-.264-.264-.48-.797-.48-1.184 0-1.784 2.496-2.265 3.128-.603.617 1.623-1.43 3.005-2.648 1.787zm9.695-1.001c-1.14-.552-1.4-2.511-.459-3.453.947-.947 2.306-.765 2.902.388.542 1.048.434 1.859-.35 2.644-.736.734-1.237.835-2.093.42zm8.427-2.71c-.772-.773-.831-2.532-.109-3.254.99-.99 2.629-.416 3.127 1.096.697 2.109-1.497 3.678-3.018 2.157zm23.836.103c-1.401-1.102-2.418-4.663-1.61-5.637.479-.577.973-.428 1.93.578 2.386 2.508 2.104 6.965-.32 5.059zm6.728-1.616c-1-2.152-1.3-3.182-.926-3.182.31 0 1.892 3.22 2.105 4.285.267 1.337-.284.822-1.179-1.103zm-22.295-.901c-1.278-.695-1.903-3.444-.973-4.285.587-.532 1.045-.501 1.839.123 1.215.956 1.687 2.937.95 3.99-.429.611-.921.658-1.816.172zm18.127-2.126c-.751-.632-1.906-2.568-2.253-3.777-.16-.56-.126-.758.151-.864.486-.186 1.336.656 2.124 2.103 1.286 2.363 1.275 3.63-.022 2.538zm-12.632-1.59c-1.282-1.008-1.893-3.655-.915-3.965 1.373-.436 3.446 2.201 3.031 3.856-.186.74-1.244.795-2.116.11zm-32.02-.99c-.212-.342.49-1.043.832-.832.457.283.307 1.095-.203 1.095-.257 0-.54-.118-.63-.263zm8.091-1.158c-.172-.107-.277-.452-.232-.767.105-.743 1.01-.801 1.113-.072.087.603-.444 1.108-.881.839zm35.685-1.508c-1.289-1.721-1.807-3.325-.92-2.85.516.276 1.872 2.314 1.991 2.993.135.77-.445.693-1.07-.143zm-8.158-.373c-.713-.743-1.372-2.188-1.208-2.642.31-.856 1.988.288 2.622 1.788.631 1.493-.277 2.041-1.414.854zm-20.696-.197c-.5-.5-.48-1.235.043-1.503.864-.445 1.732.519 1.26 1.4-.308.577-.79.615-1.303.103zm6.135-2.405c-.61-.774-.656-1.5-.11-1.709.523-.2 1.575 1.007 1.476 1.695-.107.747-.784.754-1.366.014zm15.985-1.297c-1.392-1.222-1.513-2.565-.16-1.766.878.518 1.653 1.885 1.282 2.257-.191.19-.5.055-1.122-.49zm-11.636-1.338c-.69-.484-.731-1.548-.059-1.548.566 0 1.317 1.046 1.12 1.56-.175.458-.393.455-1.06-.012zm11.37-2.167c-.497-.497-.927-1.311-.773-1.465.378-.378 1.839.973 1.839 1.7 0 .288-.697.134-1.066-.235zm-8.974-.87c-.349-.349-.382-1.152-.048-1.152.384 0 1.233.955 1.076 1.21-.196.316-.68.29-1.028-.058zm6.437-2.954c-.245-.295-.228-.36.09-.36.215 0 .39.162.39.36 0 .198-.04.36-.09.36-.05 0-.226-.162-.39-.36zm-5.61-.24c-.077-.198-.048-.36.064-.36s.338.162.502.36c.244.293.232.36-.065.36-.2 0-.426-.162-.502-.36z"/></svg>