<svg xmlns="http://www.w3.org/2000/svg" width="400" height="174"><path fill="#fff" d="M268.417 136.794l-22.164-22.206v-1.964l13.962 13.95c7.679 7.672 17.678 17.723 22.22 22.335l8.259 8.386-.056.852-.057.853zm8.2 2.49c-30.462-30.593-30.349-30.478-30.474-31.106-.064-.325-.062-.734.004-.91.095-.247 5.01 4.571 22.324 21.884l22.201 22.2v.873c0 .48-.068.872-.15.872-.083 0-6.34-6.216-13.905-13.813zm9.606 3.922c-2.397-2.358-12.376-12.367-22.175-22.242l-17.816-17.955.059-.883.06-.883 15.463 15.51c8.505 8.53 18.483 18.582 22.172 22.336l6.709 6.825-.057.79-.057.79zm1.972-3.717c-1.313-1.257-11.266-11.231-22.118-22.165l-19.732-19.88-.056-1-.055-1.002 20.985 21.072c11.542 11.59 21.546 21.663 22.231 22.384 1.185 1.247 1.243 1.35 1.189 2.094l-.058.782zM275.746 121.3a7618.615 7618.615 0 01-22.082-22.293l-7.616-7.743.057-.868.056-.867 22.164 22.323 22.164 22.323v.834c0 .459-.062.835-.137.838-.076.002-6.649-6.544-14.606-14.547zm12.265 6.585c-1.312-1.253-11.265-11.251-22.118-22.218l-19.732-19.94-.056-.823c-.098-1.446-2.96-4.203 26.82 25.834l17.585 17.738-.056.844-.056.843zm-19.823-25.683l-22.027-22.21-.043-.938-.044-.939 22.206 22.302 22.206 22.302.002.769c0 .423-.06.804-.136.846-.076.042-10.05-9.917-22.164-22.132zm-88.106 8.862c-3.567-.302-8.404-1.35-11.019-2.39-7.984-3.17-14.32-9.207-16.302-15.53-.895-2.855-1.09-4.287-.988-7.208.11-3.1.575-5.099 1.789-7.69 2.156-4.6 6.337-8.883 11.376-11.651 7.993-4.39 18.891-5.56 28.635-3.072 4.885 1.247 10.335 4.16 13.551 7.244l1.356 1.3-2.48 1.877c-1.365 1.032-2.525 1.877-2.58 1.877-.053 0-.577-.421-1.164-.935-3.582-3.142-9.803-6.082-14.183-6.703-2.338-.331-6.993-.32-9.276.022-5.6.84-10.654 3.213-14.65 6.879-3.633 3.331-5.649 8.103-5.392 12.76.216 3.909 1.399 6.442 4.53 9.702 4.207 4.382 10.744 7.052 18.706 7.64 3.614.268 7.072-.195 11.215-1.499 1.81-.57 5.525-2.288 6.992-3.233l.844-.544.106-1.768c.058-.973.058-3.337 0-5.253l-.106-3.485h-28.707l-.122-1.73c-.067-.95-.067-2.313 0-3.028l.12-1.3h36.069l.122 2.983c.068 1.64.097 5.956.066 9.59l-.057 6.609-1.614 1.212c-4.711 3.538-11.14 6.121-17.476 7.02-2.552.362-6.975.506-9.361.304zm38.576-7.756c-.067-3.862-.121-14.517-.122-23.679V62.972h7.342v10.05c0 5.527.055 16.182.122 23.678l.122 13.629h-7.343zm44.217-12.242c-10.594-10.594-19.319-19.227-19.389-19.184-.07.044-.083 8.67-.03 19.171l.099 19.092h-7.398v-6.654c0-3.66-.055-14.273-.122-23.586l-.122-16.933h8.413l19.09 19.09c10.498 10.499 19.196 19.09 19.328 19.09.197 0 .216-3.413.109-18.999l-.131-18.998h7.4v8.414c0 4.627.055 15.24.122 23.586l.122 15.174h-8.229zm37.338 17.014c-.002-1.236-.121-10.766-.263-21.176-.142-10.41-.21-20.013-.151-21.338l.107-2.41h10.333l23.81 23.448 23.81 23.45-1.7.117c-2.29.157-7.317.162-7.697.007-.169-.07-5.07-4.826-10.89-10.57l-10.585-10.446-3.87.12c-2.128.067-6.499.121-9.713.121h-5.844v4.65c0 2.559-.055 7.267-.122 10.463l-.121 5.812h-7.1l-.004-2.248zm18.806-24.893l1.823-.116-6.55-6.424c-3.604-3.534-6.633-6.452-6.734-6.486-.208-.07-.252 7.81-.061 11.12l.119 2.065 4.79-.021c2.635-.012 5.61-.074 6.613-.138zM42.141 86.555V62.964l20.145.05 20.145.05 1.788.619c8.397 2.908 12.128 11.021 8.27 17.987-.838 1.514-2.883 3.657-4.558 4.777-2.333 1.561-5.95 2.59-9.103 2.59-.795 0-1.445.073-1.445.162 0 .09 4.667 4.792 10.371 10.45 5.704 5.658 10.37 10.334 10.37 10.391 0 .058-2.051.105-4.56.105h-4.56l-10.66-10.554-10.66-10.554h-3.472c-1.91 0-5.964.054-9.009.12l-5.536.122v20.866H42.14zm39.395-4.047c1.114-.308 2.925-1.474 3.753-2.416.999-1.138 1.347-2.14 1.356-3.904.006-1.308-.07-1.725-.47-2.578-.888-1.894-2.433-3.196-4.587-3.866-1.059-.33-1.916-.348-16.417-.348-11.34 0-15.333.055-15.43.212-.153.247-.14 12.509.014 12.993.099.312.837.324 15.472.247 12.489-.065 15.545-.13 16.309-.34zm20.81 4.142V63.155h49.202l-.05 2.983-.05 2.983-20.926.092-20.925.091.065 6.884c.036 3.786.105 6.924.153 6.975.048.05 8.459.114 18.69.14l18.603.05.06 2.888c.035 1.588.035 2.95.003 3.025-.032.076-8.48.138-18.77.138h-18.713v14.85l.597.113c.328.061 9.744.086 20.925.054l20.329-.058v5.782h-49.192zm155.596-13.914L235.95 50.74l.059-.814.058-.813 21.994 21.934 21.995 21.935-.06.874-.06.874zm0-5.69L235.95 45.05l.059-.813.058-.814 21.993 21.935 21.993 21.935-.059.874-.058.874zm20.892 15.198c-.606-.54-10.497-10.361-21.98-21.827l-20.88-20.848v-.872c0-.48.062-.872.138-.872.076 0 9.993 9.856 22.038 21.901l21.901 21.902-.058.797-.058.798zm-20.718-26.402c-12-11.997-21.896-21.95-21.991-22.12-.095-.169-.147-.637-.116-1.041l.057-.734 21.992 21.994 21.992 21.995-.058.86-.057.858zm-.163-5.904l-21.98-21.936V26.17l22.04 22.038 22.038 22.039-.06.814-.06.813zm-.09-5.67l-21.89-21.865v-1.924l21.947 21.946 21.946 21.947-.057.88-.058.88zm0-5.66l-21.89-21.812V15l2.616 2.537c1.439 1.395 11.313 11.257 21.944 21.915l19.327 19.377-.054.795-.055.795z"/></svg>