<svg xmlns="http://www.w3.org/2000/svg" width="438.49738" height="200"><path fill="#fff" d="M314.27226 169.158102l-30.78351-30.8419V135.589012l19.39136 19.37451c10.66527 10.65597 24.55311 24.61548 30.86191 31.02112l11.47051 11.64661-.0784 1.18438-.0784 1.18437zm11.3901 3.4591c-42.30955-42.49122-42.1523-42.33071-42.32591-43.20377-.0898-.45137-.0869-1.0195.006-1.2625.13221-.34454 6.95939 6.34785 31.005 30.39284l30.83542 30.83468v1.21134c0 .66623-.0943 1.21134-.20951 1.21134-.1152 0-8.80533-8.63277-19.31137-19.18393zm13.34052 5.44667c-3.32908-3.27541-17.18824-17.17682-30.79812-30.89202l-24.74523-24.93673.0822-1.22669.0822-1.2267 21.47759 21.54209c11.81266 11.84814 25.67044 25.80797 30.79506 31.02182l9.31753 9.47974-.0792 1.0969-.0792 1.09689zm2.73872-5.16267c-1.82279-1.74584-15.64669-15.59894-30.71978-30.78467l-27.40561-27.61042-.0768-1.39059-.0769-1.39059 29.14604 29.26706c16.03032 16.09688 29.92468 30.08673 30.87633 31.08856 1.64518 1.73189 1.72638 1.87495 1.65058 2.9082l-.0797 1.0867zm-17.28952-25.26235c-11.05158-11.11498-24.85342-25.04818-30.6707-30.96268l-10.57694-10.75364.0784-1.20523.0784-1.20523 30.78351 31.00466 30.78351 31.00466v1.15788c0 .63683-.086 1.1603-.1912 1.16325-.10516.003-9.23342-9.0887-20.28502-20.20367zm17.03459 9.14583c-1.82279-1.74042-15.64669-15.62672-30.71978-30.85844l-27.40561-27.69404-.0777-1.14349c-.13644-2.00793-4.11158-5.83704 37.2493 35.88083l24.42478 24.6356-.0784 1.17197-.0784 1.17197zm-27.53308-35.67103l-30.59231-30.84603-.0601-1.3039-.0601-1.30392 30.84129 30.97472 30.8413 30.97471.003 1.06843c0 .58764-.0837 1.11649-.18886 1.17523-.10516.0587-13.95774-13.77393-30.78351-30.73924zm-122.36924 12.30865c-4.9535-.41904-11.67162-1.87584-15.30321-3.31847-11.08921-4.4051-19.88917-12.78893-22.64191-21.57121-1.24284-3.96514-1.5153-5.95337-1.37187-10.01092.1522-4.30547.79781-7.0814 2.48366-10.6789 2.99466-6.39044 8.80191-12.33812 15.80111-16.18321 11.1007-6.0983 26.23725-7.72241 39.76993-4.26721 6.78548 1.73248 14.35434 5.77863 18.82143 10.06151l1.88325 1.80559-3.44516 2.60681c-1.89485 1.43375-3.50659 2.60682-3.58167 2.60682-.0751 0-.80282-.5844-1.61722-1.29866-4.97574-4.36394-13.61562-8.4467-19.69983-9.30913-3.24674-.46022-9.7119-.44471-12.88307.0309-7.777 1.1664-14.79639 4.46205-20.34726 9.55319-5.04511 4.62727-7.84538 11.25445-7.48829 17.722.29978 5.42954 1.94247 8.9486 6.29077 13.47641 5.84423 6.0855 14.92285 9.79336 25.98087 10.61102 5.02022.37121 9.82263-.27084 15.57638-2.08248 2.51322-.79131 7.67405-3.1776 9.71202-4.49069l1.17168-.75491.14652-2.45597c.0806-1.35077.0807-4.63406.00025-7.29619l-.14618-4.84024h-39.87172l-.1688-2.40127c-.0928-1.3207-.0933-3.2136-.001-4.20644l.16778-1.80517h50.09488l.1703 4.14271c.0937 2.27849.13456 8.27267.0909 13.3204l-.0794 9.17769-2.24132 1.68343c-6.54292 4.91429-15.47317 8.50173-24.27201 9.75047-3.54375.50294-9.68814.70242-13.00173.42212zm53.5783-10.77254c-.0927-5.36321-.16867-20.16224-.16887-32.88673l-.00036-23.13544h10.19744l.00018 13.95774c.0001 7.67676.0763 22.47579.1694 32.88674l.1692 18.92899h-10.19848zm61.41266-17.0021c-14.71386-14.71437-26.83188-26.70433-26.92893-26.64435-.0971.06-.11541 12.04165-.0408 26.62593l.13563 26.51688h-10.27392l-.00015-9.24142c-.00008-5.08279-.0764-19.82446-.16951-32.75927l-.16933-23.51784H280.81286l26.51241 26.51334c14.58183 14.58233 26.66238 26.51333 26.84567 26.51333.2734 0 .30055-4.73847.15113-26.38587l-.18213-26.38586h10.27851v11.68491c0 6.4267.0763 21.16837.16946 32.75926l.16943 21.07436h-11.42952zm51.85794 23.63043c-.004-1.71763-.16805-14.95284-.36532-29.41159-.19727-14.45874-.29167-27.79508-.20979-29.6363l.14889-3.34767h14.35192l33.06922 32.56806 33.06921 32.56806-2.36195.16267c-3.18081.21906-10.16167.226-10.69015.0106-.23388-.0953-7.04039-6.70167-15.12558-14.6808l-14.7004-14.50751-5.37412.16737c-2.95578.0921-9.02672.16737-13.49098.16737h-8.11686v6.45929c0 3.55262-.0759 10.09172-.16864 14.53135l-.16864 8.07206h-9.86015l-.007-3.12297zm26.12002-34.57376l2.5318-.16126-9.09831-8.92275c-5.00406-4.90752-9.21216-8.961-9.35133-9.00774-.28976-.0973-.35031 10.84827-.0854 15.44487l.16527 2.86803 6.65312-.03c3.65922-.0165 7.79242-.10251 9.1849-.1912zM0 99.381412v-32.7647l27.979217.0692 27.979218.0692 2.483973.86019c11.662465 4.03866 16.843342 15.30744 11.485664 24.98214-1.164471 2.10276-4.004511 5.07954-6.330393 6.63518-3.240822 2.16759-8.26307 3.59592-12.643889 3.59592-1.103352 0-2.006093.1016-2.006093.22577s6.481746 6.65517 14.40388 14.51333c7.922133 7.85816 14.403883 14.35303 14.403883 14.43305 0 .08-2.850246.14548-6.333877.14548h-6.333872l-14.8057-14.65881-14.805697-14.65882h-4.822365c-2.652302 0-8.282687.0759-12.511971.16858l-7.689605.16858v28.98047H0zm54.714929-5.62043c1.547568-.42715 4.063135-2.04669 5.212741-3.35602 1.387476-1.58025 1.870977-2.97221 1.883349-5.42198.0092-1.81593-.09647-2.39597-.652174-3.58074-1.233263-2.62934-3.379219-4.43781-6.370811-5.3689-1.470771-.45776-2.662089-.48299-22.801244-.48299-15.751306 0-21.296319.0759-21.430764.29347-.21235.34359-.19465 17.37359.01876 18.04598.137657.43372 1.163209.45011 21.489424.34353 17.34506-.0909 21.589572-.17947 22.650723-.47235zm28.904051 5.75334v-32.63179h68.33546l-.0701 4.14271-.0701 4.1427-29.06269.12747-29.0627.12747.0909 9.5601c.05 5.25805.14558 9.61746.21239 9.68756.0668.0701 11.74809.15827 25.9584.19592l25.83693.0685.0847 4.01052c.0466 2.20579.0479 4.09656.003 4.20172-.045.10516-11.77665.1912-26.07028.1912H93.81648v20.62671l.82854.15531c.4557.0854 13.53393.1193 29.06275.0753l28.2342-.08-.00005 4.01524-.00005 4.01524H83.61898zm216.105-19.32581l-30.5455-30.548804.0807-1.129888.0807-1.129889 30.54793 30.464841 30.54792 30.46484-.0831 1.21385-.0831 1.21385zm0-7.90301l-30.5455-30.548807.0807-1.129889.0807-1.129889 30.54574 30.464845 30.54573 30.46484-.0809 1.21385-.0809 1.21385zm29.01589 21.10829c-.84129-.74824-14.57915-14.39002-30.52858-30.31506l-28.99896-28.95463v-1.211367c0-.666249.0862-1.211363.19161-1.211363.10537 0 13.87953 13.688295 30.60924 30.41843l30.41763 30.41844-.0807 1.108-.0807 1.10799zm-28.77456-36.66873c-16.66731-16.662228-30.41169-30.487054-30.54309-30.721829-.13139-.234776-.20367-.885704-.16066-1.446507l.0782-1.019639 30.54449 30.548046 30.54448 30.548049-.0796 1.19343-.0796 1.19343zm-.22692-8.200237l-30.52606-30.467162v-2.544457l30.60924 30.609248 30.60927 30.609248-.0832 1.13014-.0832 1.13014zm-.12495-7.875213l-30.40111-30.367608V7.610193l30.48075 30.480757 30.48078 30.480762-.0797 1.22275-.0796 1.22276zm0-7.861459L269.21233 2.494098V0l3.63284 3.523517c1.99806 1.937934 15.71252 15.634556 30.47657 30.436936l26.84373 26.913419-.0755 1.10417-.0755 1.10417z"/></svg>