<svg xmlns="http://www.w3.org/2000/svg" width="400" height="174"><path fill="#fff" d="M236.41 158.1l-8.5-24.94-10.56-30.91c-1.94-5.68-2.3-6.9-2.03-6.89.18 0 1.78.17 3.55.38 3.55.41 7.48.49 9.98.18 15.36-1.86 24.71-10.97 24.75-24.12.01-3.16-.24-4.42-1.31-6.62-1.33-2.71-4.08-4.85-7.58-5.9-3-.9-4.24-.96-18.64-.96h-13.52l-.19 1.09-6.14 36.85-5.96 35.76H176.4l.1-.42c.14-.58 3.05-17.8 7.8-46.12l5.57-33.15 1.66-9.88h29.15c27.2 0 29.32.02 31.72.35 9.33 1.27 15.8 4.04 20.24 8.7a20.11 20.11 0 015.14 10.08c.5 2.33.45 7.27-.11 10.32-2.14 11.61-6.87 19.42-15.08 24.91-4.74 3.17-11.92 6.07-19.26 7.79-1.28.3-2.33.63-2.33.75 0 .11.28.92.63 1.8.68 1.7 20.62 49.67 21.22 51.04l.35.81h-26.5zm-76.26-.16l1.16-3.33 1.04-3.03-2.16-2.42a24.18 24.18 0 01-2.09-2.5c.04-.04 1.67-.34 3.62-.66l3.54-.58 1.92-2.98c1.06-1.64 1.97-3.02 2.03-3.08.06-.06.56 1.23 1.12 2.88l1.05 3.03c.02.03 1.5.26 3.3.5 1.8.26 3.3.5 3.34.53a38 38 0 01-2.76 2.49l-2.83 2.42-.05 3.49-.05 3.48-2.83-1.57-2.83-1.57-2.27 1.13c-3.47 1.74-4.38 2.12-4.25 1.77zm-26.67-.02c0-.06.43-1.43.95-3.04s.95-3.11.95-3.33c0-.23-.69-1.15-1.66-2.22-2.2-2.41-2.4-2.66-2.3-2.77.05-.05 1.66-.35 3.58-.66 1.91-.32 3.5-.6 3.52-.62l2-3.06c1.07-1.65 2-2.93 2.08-2.85.07.09.54 1.35 1.04 2.82.5 1.46.99 2.75 1.08 2.87.1.12.96.31 1.92.43 3 .37 4.7.65 4.69.77a50 50 0 01-2.86 2.48l-2.84 2.38.12 3.46c.07 1.91.07 3.47 0 3.47-.08 0-1.38-.68-2.89-1.52a33.47 33.47 0 00-2.93-1.52c-.1 0-1.27.55-2.6 1.21-2.72 1.36-3.85 1.86-3.85 1.7zm54.14.07l1.05-3.17a45.05 45.05 0 001.04-3.37c0-.13-.92-1.27-2.04-2.53a41.32 41.32 0 01-2.1-2.47c-.04-.1.13-.18.38-.18.24 0 1.87-.22 3.62-.5l3.17-.5 1.93-3.01a30.86 30.86 0 012.06-3.02c.07 0 .58 1.32 1.13 2.93l1 2.92 2.03.3c1.12.17 2.6.36 3.3.43.71.07 1.3.16 1.3.2 0 .12-2.23 2.16-3.9 3.57l-1.52 1.3-.1 3.56-.1 3.57-2.7-1.5c-1.5-.83-2.85-1.5-3-1.5-.16 0-1.49.6-2.97 1.34-2.54 1.27-3.58 1.74-3.58 1.63zm-45.97-26.51c0-.26 1.94-11.89 3.42-20.54 5.54-32.32 13.3-77.99 13.3-78.26 0-.14-5.66-.2-18.25-.2h-18.26l.11-.52c.06-.3.54-3.05 1.06-6.13.53-3.08 1.18-6.78 1.45-8.22l.5-2.61h48.99c26.94 0 48.99.05 48.99.1 0 .24-1.56 9.73-2.18 13.3a182.6 182.6 0 00-.67 3.94c0 .07-8.23.14-18.29.14h-18.28l-8.33 49.15c-4.58 27.04-8.37 49.35-8.43 49.59l-.1.42h-12.51c-7.17 0-12.52-.07-12.52-.16z"/></svg>