<svg xmlns="http://www.w3.org/2000/svg" width="200" height="184.29155"><path fill="#fff" d="M146.59701 183.136752c-.21132-.635174-5.11066-14.994967-10.88742-31.910652-5.77675-16.915685-11.8555-34.72182866-13.50833-39.5692087-2.47726-7.2652493-2.93255-8.8127273-2.59186-8.8094893.22731.0022 2.27323.220805 4.54648.485873 4.53261.528519 9.57135.620587 12.77064.233346 19.65994-2.379635 31.62359-14.039311 31.67596-30.871116.0126-4.047805-.30803-5.659596-1.68673-8.479138-1.69466-3.465728-5.21116-6.202806-9.69436-7.545624-3.84929-1.15295-5.42218-1.23442-23.86142-1.235947l-17.29695-.0015-.24264 1.397991c-.13346.768894-3.6732 21.994037-7.86609 47.166983l-7.62344 45.768992H69.80733l.12971-.54704c.17361-.732221 3.90413-22.779083 9.98662-59.019511 2.74931-16.380801 5.95595-35.472488 7.12587-42.425971l2.12713-12.642697h37.3046c34.81043 0 37.52406.02979 40.58685.445492 11.9519 1.622207 20.21966 5.17655 25.90892 11.13835 3.34141 3.501474 5.44456 7.623234 6.58241 12.900182.64263 2.980299.57244 9.301795-.14658 13.200937-2.74073 14.862661-8.79191 24.860535-19.2991 31.886373-6.05845 4.0510992-15.255 7.7685504-24.65327 9.965394-1.6371.3826725-2.97735.8136912-2.97833.95781794-.00097.14412674.3646 1.18350226.8124 2.30972336.86406 2.173141 26.38268 63.5655907 27.15196 65.3219387l.45259 1.033297h-33.91788zm-97.59481-.199932c.0797-.207771.7449-2.124148 1.47818-4.258619l1.33323-3.880858-2.76706-3.093768c-1.52189-1.701573-2.72248-3.13968-2.66798-3.195794.0545-.05611 2.13694-.439039 4.62762-.850951l4.52852-.748924 2.46071-3.80931c1.3534-2.095121 2.5231-3.871563 2.59935-3.947648.0762-.07609.72307 1.583401 1.43738 3.687746.71431 2.104345 1.31762 3.853562 1.34068 3.887148.0231.03359 1.92723.32347 4.23148.644191 2.30424.320719 4.2258.621464 4.27014.668322.0443.04686-1.54692 1.480808-3.53612 3.186555l-3.61672 3.101363-.0661 4.457443-.0661 4.457445-3.62271-2.011173-3.62271-2.011171-2.90117 1.454311c-4.44388 2.227641-5.61345 2.714283-5.44054 2.263692zm-34.1327-.02549c0-.0769.54704-1.829347 1.21564-3.894325.66861-2.064978 1.21565-3.982225 1.21565-4.260552 0-.296031-.8829-1.475972-2.12738-2.843102-2.8094-3.086306-3.07665-3.407841-2.94322-3.541263.0622-.06224 2.12164-.44406 4.57644-.84848 2.45482-.404421 4.48733-.763104 4.5167-.797074.0293-.03397 1.17604-1.791129 2.54816-3.904803 1.37212-2.113674 2.57077-3.754794 2.66367-3.646932.0929.107862.69384 1.727821 1.33543 3.599913.64162 1.872092 1.26279 3.526466 1.38036 3.676389.11761.149923 1.22413.398405 2.45898.552182 3.83327.477366 6.0144.833849 5.99597.979982-.01.07715-1.65439 1.507879-3.65483 3.17939l-3.63718 3.039109.16182 4.437101c.089 2.440405.0836 4.4371-.0119 4.4371-.0956 0-1.75566-.875264-3.68904-1.94503-1.93338-1.069767-3.62182-1.945031-3.75209-1.945031-.13024 0-1.63051.698388-3.33395 1.551974-3.47761 1.742647-4.91915 2.379567-4.91915 2.173452zm69.2917.08955c0-.03468.60174-1.860822 1.3372-4.058103.73547-2.197282 1.33721-4.136907 1.33721-4.310282 0-.173375-1.17613-1.634224-2.61363-3.246331-1.4375-1.612107-2.65011-3.033046-2.69468-3.157642-.0446-.124596.17424-.224899.48626-.222893.31201.0019 2.39641-.284967 4.63199-.637717l4.06468-.641364 2.46583-3.860166c1.3562-2.12309 2.543-3.860165 2.63732-3.860165.0943 0 .74791 1.684202 1.45239 3.742673l1.28089 3.742671 2.5932.388357c1.42626.213596 3.33171.459141 4.23432.545656.90262.08651 1.64112.20064 1.64112.25361 0 .151732-2.84789 2.765634-4.98414 4.574639l-1.94503 1.647073-.12156 4.566304-.12157 4.566303-3.47347-1.923797c-1.9104-1.058092-3.63504-1.923801-3.83251-1.923801-.19748 0-1.90568.774791-3.79601 1.721756-3.25252 1.629361-4.57981 2.236007-4.57981 2.093219zm-58.83716-33.935725c0-.327728 2.47714-15.209691 4.37524-26.2851261C36.78676 81.424327 46.71937 22.97425 46.71937 22.622494c0-.175681-7.24407-.254651-23.35969-.254651H0l.13766-.668604c.0757-.367732.6873-3.896138 1.35907-7.840899.67176-3.94476 1.5061-8.67666 1.8541-10.51532L3.98357 0h62.69979c34.48489 0 62.69979.061 62.69979.13554 0 .29835-1.99504 12.44463-2.7931 17.005035-.46801 2.674416-.85158 4.944631-.85238 5.044922-.00073.100291-10.53197.18245-23.4026.182577l-23.40114.00023-10.66022 62.909342c-5.86312 34.6001377-10.71628 63.155508-10.7848 63.45638l-.1246.54704H41.34418c-9.17169 0-16.02014-.0923-16.02014-.215911z"/></svg>