<svg xmlns="http://www.w3.org/2000/svg" viewBox="0 0 205 205"><path fill="#fff" d="M119.58 67.71l-15.71 92.59H71.28c.74-4.47 1.75-11.11 2.47-15.41 4.91-29.23 9.74-59.81 14.65-89.04l2.13-11.43c20.99.07 45.88-.08 66.87 0 4.38.02 8.85.56 13.2 1.08 6.22.75 12.58 2.62 17.98 5.93 8.18 5.02 13.68 13.62 13.72 23.16.05 12.41-3.07 23.78-11.56 33.18-6.46 7.14-14.94 12.59-23.93 15.47-3.55 1.14-7.22 1.89-11.03 2.97 9.32 22.43 28.78 68.03 28.25 68.03h-36.1c-1.44-3.4-1.32-3.04-1.44-3.4-8.64-25.51-17.12-50.11-25.79-75.6-.14-.42-1.26-3.48-1.41-4.12 3.11.33 8.91.94 11.82 1.12 8.53.51 16.24-1.53 23.41-5.18 10.41-6.29 14.52-14.1 13.94-26.35-.82-6.71-4.51-11.76-13.18-12.82-4.02-.49-7.94-.25-12-.29-7.5-.08-15 .03-22.5-.06h-1.18l-.02.17z"/><path fill="#fff" d="M82.35 37.89c.38-2.31.61-2.98.61-2.98l46.15.04 4-24.56H6.46l-4.08 24.5c15.5 0 30.66.12 46.03.12-7.09 41.6-14.17 83.7-21.24 125.15h34.65L82.35 37.89zM30.7 164.68l-6.17 9.26-11.57 2.08 6.68 7.37-3.32 11.23 10.59-5.23 9 4.76v-10.68l8.81-7.8-10.84-1.64zm33.65 0l-6.18 9.26-11.56 2.08 6.68 7.37-3.32 11.23 10.59-5.23 9 4.76v-10.68l8.8-7.8-10.83-1.64zm34.56 0l-6.18 9.26-11.56 2.08 6.68 7.37-3.32 11.23 10.58-5.23 9 4.76v-10.68l8.81-7.8-10.84-1.64z"/></svg>