<svg xmlns="http://www.w3.org/2000/svg" width="400" height="174"><g fill="#fff"><path d="M34.86 111.25v17.97c0 3.92-1.07 6.78-3.09 8.8-2.02 1.9-5.11 2.86-9.28 2.86-4.16 0-7.37-.96-9.4-2.86-2.02-1.9-3.09-4.88-3.09-8.8v-17.97h6.07v17.01c-.12 1.9.35 3.81 1.54 5.36a5.86 5.86 0 004.76 1.78c1.79.12 3.57-.6 4.76-1.78a7.98 7.98 0 001.67-5.36v-17zm6.31 28.8v-28.8h6.42l12.73 16.78c.48.6.84 1.3 1.2 2.02.47.83.95 1.9 1.42 3.1l-.36-2.5c-.11-.84-.11-1.91-.11-3.22v-16.18h5.94v28.8h-6.06L49.26 122.9c-.48-.6-.83-1.3-1.19-2.02-.48-.83-.95-1.9-1.43-3.1l.36 2.5c.12.84.12 1.9.12 3.22v16.41zm33.79-28.8h6.18v28.8h-6.18zm23.55 5.24v23.55h-6.18V116.5H85.3v-5.24h20.22v5.24zm11.07 23.55v-28.79h17.01v5.24h-10.83v5.94h10.83v5.24h-10.83v7.14h10.83v5.23zm29.15-5.11h3.45c3.2 0 5.59-.72 7.02-2.14 1.42-1.43 2.26-3.81 2.26-7.02 0-3.22-.72-5.48-2.26-7.02-1.43-1.43-3.81-2.26-7.02-2.26h-3.45zm-6.2 5.11v-28.79h7.86c2.5-.12 4.88.12 7.38.72a12.26 12.26 0 018.68 7.01 17.85 17.85 0 010 13.57 12.41 12.41 0 01-4.04 4.88c-1.31.95-2.86 1.66-4.4 2.02-2.38.47-4.64.71-7.02.6zm38.91-28.79h6.19v28.8h-6.19zm12.73 28.8v-28.8h6.43l12.73 16.78c.47.6.83 1.3 1.19 2.02.47.83.95 1.9 1.3 3.1l-.35-2.5c-.12-.84-.12-1.91-.12-3.22v-16.18h5.95v28.8h-6.07l-13.09-17.14c-.47-.6-.83-1.3-1.19-2.02-.47-.83-.95-1.9-1.42-3.1l.35 2.5c.12.84.12 1.9.12 3.22v16.41zm33.79-28.8h6.19v28.8h-6.19zm23.56 5.24v23.55h-6.19V116.5h-7.14v-5.24h20.35v5.24zm11.06-5.24h6.19v28.8h-6.19zm27.72 17.85l-3.21-9.28a5.93 5.93 0 01-.36-1.43c-.12-.71-.24-1.43-.47-2.5-.12.95-.36 1.79-.48 2.5a5.93 5.93 0 01-.36 1.43l-3.1 9.16zm-18.32 10.94l10.94-28.79h7.02l11.19 28.8h-7.02l-2.38-6.2h-11.19l-2.02 6.2zm40.8-23.55v23.55h-6.18V116.5h-7.14v-5.24h20.35v5.24zm24.51 18.91c2.5.12 4.76-.95 6.43-2.73a10.5 10.5 0 000-13.8 8.83 8.83 0 00-12.5-.36l-.35.36a10.5 10.5 0 000 13.8 8.05 8.05 0 006.42 2.73m15.23-9.63c0 2.02-.36 4.04-1.19 5.83a14.85 14.85 0 01-3.33 4.87 17.48 17.48 0 01-5 3.33 15.12 15.12 0 01-10.94.24 15.01 15.01 0 01-4.64-2.61 14.53 14.53 0 01-5.6-11.66c0-2.03.36-4.05 1.2-5.83.71-1.79 1.9-3.45 3.33-4.88 2.97-2.86 6.9-4.4 10.94-4.4 2.03 0 4.05.35 5.83 1.19 1.9.71 3.57 1.9 5 3.33a14.85 14.85 0 013.33 4.88 13.2 13.2 0 011.07 5.7m11.42-2.25h.95c2.5 0 4.17-.24 4.88-.84a3.33 3.33 0 001.2-2.85 3.22 3.22 0 00-1.32-2.98 9.96 9.96 0 00-4.87-.95h-.96v7.62zm14.64 16.53h-7.14l-7.5-13.56v13.44h-6.18v-28.67h8.8c3.45 0 6.19.72 7.85 2.02a7.63 7.63 0 012.62 6.2c0 1.9-.6 3.68-1.78 5.1a7.21 7.21 0 01-4.64 2.5zm1.78-3.57l3.45-3.8a4.88 4.88 0 002.14 2.5c.95.59 2.03.95 3.21.95a4.78 4.78 0 003.45-1.07 3.56 3.56 0 001.31-2.74c0-1.3-1.42-2.74-4.16-4.05l-2.14-1.07a16.96 16.96 0 01-5.24-3.8 6.85 6.85 0 01-1.42-4.52 7 7 0 012.85-5.83 11.56 11.56 0 017.38-2.26c1.54 0 3.09.23 4.52.95 1.3.71 2.5 1.66 3.33 2.85l-3.69 3.45a4.33 4.33 0 00-1.66-1.9 4.07 4.07 0 00-2.62-.6c-1.07 0-2.14.24-2.98.96-.71.6-1.19 1.42-1.07 2.38 0 1.54 1.43 2.97 4.4 4.16l1.31.6c2.03.83 3.93 2.14 5.48 3.8a6.96 6.96 0 011.78 4.76 8.46 8.46 0 01-2.74 6.54 11.2 11.2 0 01-7.37 2.38c-1.9 0-3.93-.35-5.71-1.19a9.86 9.86 0 01-3.8-3.45M220.92 35.6c14.4 17.49-24.98 38.54-56.5 44.97 13.44 8.68 43.54 13.68 68.28.24 13.33-8.21 17.13-18.09 13.2-27.25-4.27-9.75-16.65-15.7-24.98-17.96"/><path d="M155.26 74.25c.12 0 33.9-9.52 43.78-23.8 9.05-13.55-14.63-16.3-17.25-16.53-8.8 2.02-22.13 7.5-28.2 17.25-5.94 10.11-2.5 17.6 1.67 23.08"/><path fill-opacity=".6" d="M190.72 33.45a87 87 0 0117.6-.24c5.12 1.3 20.7 7.61 3.7 22.24-17.26 14.4-44.62 20.11-52.12 21.9-.71-.6-1.54-1.43-1.78-1.67 7.14-2.14 30.1-10 40.33-20.94 8.68-9.4 5.35-17.73-7.73-21.3"/></g></svg>