<svg xmlns="http://www.w3.org/2000/svg" width="148.22856" height="200"><path fill="#fff" d="M123.7853 199.794975c-8.53208-1.39994-15.04741-7.24737-17.30414-15.53026-.4376-1.60614-.50902-2.38151-.49127-5.33355.0184-3.06295.0878-3.67605.61286-5.41271 2.133-7.05558 7.7321-12.45304 15.01122-14.4706 1.47038-.40754 2.32874-.48111 5.63454-.48291 3.62703-.002 4.03945.0408 5.89419.61127 2.12182.65263 4.90121 1.96392 6.57213 3.10065 1.71448 1.16636 4.10934 3.74364 5.32684 5.7326 2.21984 3.6264 3.17542 6.96816 3.18679 11.14455.0159 5.82294-1.8232 10.44986-5.71458 14.37732-3.16205 3.19137-6.17096 4.92766-10.2512 5.91545-2.34327.56728-6.18136.72492-8.47738.34819zm7.64602-8.654c1.49987-.61534 3.35315-1.80728 4.80047-3.08743l.89829-.79453-1.04087-.7475c-.57248-.41112-1.03789-.80571-1.03425-.87686.004-.0712.60204-.47029 1.32977-.88698.72772-.41669 1.63715-1.01977 2.02094-1.34017.69577-.58085.69776-.58885.6846-2.7398-.0117-1.91973-.38731-5.07933-.60376-5.07933-.16026 0-1.66302 2.47771-2.44717 4.03483l-.79767 1.58395-2.64919-.15917-2.6492-.15918-.14147.63686c-.44388 1.99811-1.92899 5.42817-2.35024 5.42817-.0769 0-.26224-.89626-.41194-1.99169l-.27218-1.99169-1.208-.50069c-.66441-.27538-1.20801-.57759-1.20801-.67157 0-.094.1062-.66607.236-1.27131l.236-1.10044 2.32107-.0859c1.42669-.0528 2.42633-.19117 2.59422-.35907.21563-.21563.14836-.27315-.31945-.27315-.32593 0-1.35279-.11306-2.28192-.25125-1.66368-.24744-1.68327-.25796-1.29051-.69227.21936-.24256.77489-.63295 1.23452-.86754.45964-.23458.8357-.506.8357-.60315 0-.0971-.2936-.45791-.65244-.8017-.64372-.61672-.64763-.63513-.293-1.3788.19769-.41456.46144-.75374.58611-.75374.12468 0 .55211.31541.94984.70092l.72317.70091 1.51596-.90601c.83379-.49832 2.04943-1.30683 2.70144-1.79671l1.18546-.89068-.96261-.56365c-3.44229-2.01561-5.98647-2.40217-9.14781-1.38989-1.01373.3246-2.59527.96384-3.51453 1.42053-1.82915.90871-1.82809.90662-1.46821 2.89765l.17227.95305-.91199-.14584c-.89733-.14349-.912-.13507-.912.52335 0 .36805-.0627.98257-.13929 1.36559-.12018.60091-.0759.69642.32294.69642.40008 0 .66019-.26114 1.7694-1.77637.14922-.20383.45295.51176.59544 1.40286.14233.8901.12117.92537-1.58688 2.64349-1.55059 1.55974-1.81884 1.74135-2.57206 1.74135-.46251 0-.84092.0442-.84092.0982 0 .054.26422.83117.58716 1.7271.92648 2.5703 2.70715 5.42397 3.12563 5.00909.10291-.10203.22226-1.48092.26521-3.06422.043-1.58329.14323-2.87845.22285-2.87814.12902.00045 2.69529 1.49002 2.90177 1.68424.14442.13584-1.11277 2.16365-2.23518 3.6053l-1.08235 1.3902.94881.69214c1.29669.94589 3.28694 1.93329 4.68706 2.32534 1.8017.5045 4.83832.32661 6.573-.38505zm-65.63426 7.45707l-5.40416-.0638V160.434475l13.20398.002c7.56441.001 14.05622.0995 15.19934.23041 2.17329.24896 5.41393 1.23762 6.88769 2.1013 2.87333 1.68388 4.29096 4.85121 3.73009 8.33391-.33735 2.09478-1.02458 3.23808-3.07501 5.11573l-1.82732 1.67335 1.45797.85199c2.99463 1.74996 4.18553 3.08363 5.12176 5.73575 1.15764 3.27936.33463 6.90139-2.11593 9.31199-2.03239 1.99926-7.18516 4.21391-11.02075 4.73669-1.62297.22121-7.75466.24076-22.15766.0707zm23.2111-9.44657c1.25204-.57046 1.62308-3.25763.59216-4.28855-.66267-.66268-2.0577-.77861-9.54073-.79288l-6.96412-.0133v5.34845h7.67791c5.26688 0 7.85278-.0797 8.23478-.25373zm-6.6031-14.00576l4.96397-.003.23707-.61284c.49834-1.28822.748-2.95981.50078-3.35298-.61364-.97591-1.4059-1.15808-5.67581-1.30506-2.25422-.0776-5.27691-.0668-6.71709.0241l-2.61851.16516v5.06288l1.7271.08c.94991.044 1.92767.0496 2.17281.0124.24514-.0372 2.67949-.069 5.40968-.0706zm-69.65754 22.50008c-3.45301-.90463-6.19873-2.96703-7.50142-5.63454-1.37794-2.8216-1.45762-3.84894-1.45762-18.79554v-13.23403l6.18415.0592 6.18414.0592.11143 13.30939.11142 13.3094.50725.50743c.44114.4413.77767.51733 2.58221.58342l2.07496.076.29776-1.52453c.21893-1.12097.32061-4.77532.38411-13.80512l.0864-12.28058 1.82499-.14208c2.33415-.18172 9.02357-.187 9.91939-.008l.68456.13691.0774 12.50994c.0585 9.4604.15041 12.8223.37689 13.79134l.29949 1.2814h1.6517c1.80451 0 2.76812-.3488 3.23863-1.17228.22054-.386.2997-3.43373.3493-13.44786l.0641-12.94875 1.83011-.14247c2.36307-.18397 6.5349-.18445 8.7049-.001l1.70501.14413v13.68209c0 14.89592-.0651 15.83011-1.26941 18.20665-1.25325 2.47315-4.526 4.79552-7.86752 5.58282-1.84319.43428-5.27062.43845-7.09388.009-2.72207-.64171-5.3519-2.03556-7.17131-3.80089l-1.0055-.97561-1.75898 1.43062c-2.25253 1.83204-4.44532 2.93542-6.66796 3.35523-2.39923.45316-5.45499.40369-7.4567-.12073zm58.45371-44.34916c-9.69007-.66065-20.71482-6.3659-29.03572-15.02582-5.09909-5.30686-9.03337-11.1803-13.58163-20.27586-8.00309-16.00448-11.1052-24.02774-22.26202-57.578062C2.84484 49.960934 0 41.250617 0 41.060635c0-.238342.1209-.298276.38999-.193335.2145.08365 6.83659 1.785866 14.71576 3.782706 7.87917 1.996845 14.35955 3.669023 14.40085 3.715953.0413.04693.44288 4.748512.89242 10.447952 3.09581 39.249764 3.47658 42.686294 5.50154 49.652914 3.12735 10.75929 7.44425 19.43255 12.99113 26.10106 5.74092 6.90178 12.44922 11.94841 19.7106 14.82821 2.68532 1.06497 5.5207 1.75675 10.07549 2.45821 4.1812.64394 4.95721.78912 4.84065.90568-.12001.12001-4.79226.49802-7.52588.60889-1.28698.0522-3.44307.0197-4.79132-.0722zm23.95659-3.89666c-3.3855-.59119-6.69267-1.7447-11.58318-4.0401l-2.78052-1.30506 4.89762-.1423c4.49341-.13056 5.10912-.19831 7.46041-.82084 6.62851-1.75497 11.44818-4.56924 16.19996-9.45936 4.43566-4.5648 7.17775-9.81151 8.20427-15.698.38992-2.23598.4371-7.30188.0912-9.78907-.7162-5.14924-3.52733-10.40427-7.65243-14.30517-6.54517-6.18945-15.76329-8.57758-25.95336-6.72372-1.39494.25378-2.56735.43031-2.60537.3923-.038-.038 1.24103-1.62107 2.84232-3.5179 1.60128-1.89682 8.04977-9.866909 14.32997-17.711301 6.28019-7.84439 11.80847-14.695371 12.28507-15.2244l.86655-.96187 4.6367 2.79831c5.31307 3.206509 6.02923 3.678886 8.61799 5.684466 6.71561 5.202759 12.20644 12.004789 16.20263 20.071783 2.69891 5.448202 4.0291 10.078992 4.54501 15.822492.35364 3.93696.14994 9.37039-.47204 12.59114-2.92992 15.17175-7.60239 23.60093-17.40876 31.40558-7.24424 5.76552-15.30715 9.48824-23.67198 10.92957-2.37117.40857-6.72263.41023-9.05203.003zm14.38214-67.05026c1.57207-.71971 2.65912-1.74426 3.35092-3.158243.50831-1.038966.579-1.426473.5036-2.760805-.0725-1.283067-.20397-1.717624-.75825-2.506267-2.19949-3.129497-7.30511-3.787488-9.89396-1.275093-2.03955 1.979315-2.59186 4.786522-1.40031 7.117275 1.50789 2.949523 4.99659 4.048793 8.198 2.583133zm-40.29277 56.41237c-2.38806-1.64215-4.66573-3.73883-5.82233-5.35968-6.13501-8.59761-7.38199-25.78091-3.24573-44.72632 3.01655-13.816824 6.80898-24.859635 17.37319-50.587413C88.85184 10.570191 93.02307.500822 93.23436.232184c.46404-.589972 3.03957-.08648 9.54384 1.865735 3.46933 1.041297 10.79555 3.167745 16.2805 4.725439 5.48495 1.557695 9.97263 2.923687 9.97263 3.035539 0 .51865-4.19987 6.128719-10.03922 13.410114-6.08374 7.58614-22.83717 29.508474-29.63348 38.776256-4.09159 5.579481-6.91184 10.096744-11.96543 19.165278-6.93622 12.44687-10.553 21.92437-12.24637 32.09069-.57639 3.46047-.5838 12.28273-.0127 15.08815.70203 3.44841 2.00116 6.09397 4.76531 9.70414.77423 1.01119 1.32701 1.83853 1.2284 1.83853-.0986 0-.94492-.52649-1.88069-1.16997zm-9.19659-.57636c-.36329-.4702-1.56308-1.60531-2.6662-2.52246-6.04848-5.02882-10.57125-12.97009-13.14862-23.08689-1.6391-6.43382-3.66356-20.36354-4.44517-30.58585-1.02431-13.396503-.99325-26.303569.0974-40.453133 1.10426-14.326663 2.28382-26.065736 2.65913-26.464017.20895-.221732 3.7643.853026 14.83729 4.485205 4.90274 1.608204 9.74142 3.137012 10.75261 3.397348 1.81376.46696 1.83848.482765 1.83466 1.173192-.008 1.435939-.68724 3.835527-2.01593 7.121195-5.6967 14.087103-10.85257 32.256274-13.22865 46.617446-1.58164 9.559514-2.47142 20.975684-2.45773 31.533564.01 7.57921.26909 10.18332 1.46401 14.70475 1.51552 5.73453 3.40401 9.51212 6.34135 12.68481.95122 1.02743 1.21036 1.45055 1.10046 1.79683-.20133.63434-.37064.57382-1.12458-.40199z"/></svg>