<svg xmlns="http://www.w3.org/2000/svg" width="400" height="174"><path fill="#fff" d="M235.763 158.852c-6.143-1.008-10.834-5.218-12.459-11.181-.315-1.157-.366-1.715-.354-3.84.014-2.206.064-2.647.442-3.898 1.535-5.08 5.567-8.966 10.808-10.419 1.058-.293 1.676-.346 4.057-.347 2.611-.001 2.908.03 4.243.44 1.528.47 3.53 1.414 4.732 2.232 1.235.84 2.96 2.696 3.836 4.128 1.598 2.61 2.286 5.017 2.294 8.024.012 4.192-1.312 7.524-4.114 10.352-2.277 2.297-4.443 3.547-7.381 4.259-1.687.408-4.45.522-6.104.25zm5.505-6.23c1.08-.444 2.415-1.302 3.457-2.223l.646-.573-.749-.538c-.412-.296-.747-.58-.745-.631.003-.051.434-.339.958-.639s1.178-.734 1.455-.965c.5-.418.502-.424.493-1.972-.008-1.382-.28-3.657-.435-3.657-.115 0-1.197 1.784-1.762 2.905l-.574 1.14-1.908-.114-1.907-.115-.102.458c-.32 1.44-1.389 3.909-1.692 3.909-.056 0-.189-.646-.297-1.434l-.196-1.434-.87-.36c-.478-.199-.87-.417-.87-.484 0-.068.077-.48.17-.916l.17-.792 1.672-.062c1.027-.038 1.747-.137 1.868-.258.155-.156.106-.197-.23-.197-.235 0-.974-.081-1.643-.18-1.198-.179-1.212-.187-.93-.5.158-.174.558-.455.89-.624.33-.169.601-.364.601-.434s-.211-.33-.47-.577c-.463-.444-.466-.458-.21-.993.142-.299.332-.543.421-.543.09 0 .398.227.684.505l.52.504 1.092-.652c.6-.359 1.476-.94 1.945-1.293l.854-.642-.693-.406c-2.479-1.45-4.31-1.73-6.587-1-.73.233-1.868.694-2.53 1.022-1.317.655-1.316.653-1.057 2.087l.124.686-.657-.105c-.646-.103-.656-.097-.656.377 0 .265-.045.707-.1.983-.087.433-.055.501.232.501.288 0 .475-.188 1.274-1.279.107-.146.326.369.429 1.01.102.641.087.667-1.143 1.904-1.116 1.123-1.31 1.254-1.852 1.254-.333 0-.605.031-.605.07 0 .04.19.599.422 1.244.667 1.85 1.95 3.905 2.25 3.606.075-.073.16-1.066.192-2.206.03-1.14.103-2.072.16-2.072.093 0 1.94 1.073 2.09 1.212.103.098-.802 1.558-1.61 2.596l-.78 1.001.684.499c.934.68 2.367 1.392 3.375 1.674 1.297.363 3.483.235 4.732-.277zm-47.256 5.369l-3.891-.046v-27.432h9.506c5.447.002 10.12.072 10.944.167 1.565.179 3.898.89 4.96 1.513 2.068 1.212 3.089 3.493 2.685 6-.243 1.508-.738 2.332-2.214 3.683l-1.316 1.205 1.05.614c2.156 1.26 3.013 2.22 3.688 4.13.833 2.36.24 4.968-1.524 6.704-1.463 1.44-5.173 3.034-7.935 3.41-1.168.16-5.583.174-15.953.051zm16.712-6.802c.901-.41 1.168-2.345.426-3.088-.477-.477-1.482-.56-6.87-.57l-5.014-.01v3.85h5.529c3.792 0 5.654-.057 5.929-.182zm-4.755-10.084l3.574-.002.171-.441c.359-.928.539-2.131.36-2.414-.441-.703-1.012-.834-4.086-.94-1.623-.056-3.8-.048-4.836.017l-1.886.12v3.644l1.244.058c.684.032 1.388.036 1.564.009.177-.027 1.93-.05 3.895-.05zm-50.153 16.2c-2.486-.651-4.463-2.136-5.401-4.057-.992-2.031-1.05-2.771-1.05-13.533v-9.528l4.453.042 4.453.043.08 9.583.08 9.583.365.365c.318.318.56.372 1.86.42l1.493.055.215-1.098c.157-.807.23-3.438.276-9.94l.063-8.842 1.314-.102c1.68-.13 6.496-.135 7.141-.006l.493.099.056 9.007c.042 6.811.108 9.232.271 9.93l.216.922h1.19c1.299 0 1.992-.251 2.331-.844.159-.278.216-2.472.252-9.682l.046-9.323 1.317-.103c1.702-.133 4.706-.133 6.268 0l1.228.103v9.851c0 10.725-.047 11.398-.914 13.109-.903 1.78-3.26 3.453-5.665 4.02-1.327.312-3.795.315-5.108.006-1.96-.463-3.853-1.466-5.163-2.737l-.724-.703-1.266 1.03c-1.622 1.32-3.201 2.114-4.801 2.416-1.728.327-3.928.29-5.37-.087zm42.087-31.931c-6.977-.476-14.915-4.584-20.906-10.819-3.671-3.821-6.504-8.05-9.779-14.599-5.762-11.523-7.996-17.3-16.029-41.456-2.503-7.528-4.551-13.8-4.551-13.936 0-.172.087-.215.28-.14.155.06 4.923 1.286 10.596 2.724 5.673 1.438 10.339 2.642 10.368 2.675.03.034.32 3.42.643 7.523 2.229 28.26 2.503 30.734 3.961 35.75 2.252 7.747 5.36 13.992 9.354 18.793 4.133 4.97 8.963 8.603 14.191 10.676 1.934.767 3.975 1.265 7.255 1.77 3.01.464 3.569.568 3.485.652-.086.087-3.45.359-5.419.439-.926.037-2.479.014-3.45-.052zm17.248-2.806c-2.437-.426-4.818-1.256-8.34-2.909l-2.002-.94 3.527-.102c3.235-.094 3.678-.143 5.371-.591 4.773-1.264 8.243-3.29 11.664-6.81 3.194-3.287 5.168-7.065 5.907-11.303.281-1.61.315-5.258.066-7.048-.516-3.708-2.54-7.491-5.51-10.3-4.712-4.457-11.35-6.176-18.686-4.841-1.005.182-1.849.31-1.876.282-.027-.027.894-1.167 2.046-2.533 1.153-1.365 5.796-7.104 10.318-12.752 4.522-5.648 8.502-10.58 8.845-10.961l.624-.693 3.339 2.015c3.825 2.309 4.34 2.649 6.205 4.093 4.835 3.746 8.788 8.643 11.665 14.451 1.944 3.923 2.901 7.257 3.273 11.393.254 2.834.108 6.746-.34 9.065-2.11 10.924-5.474 16.993-12.534 22.612-5.216 4.151-11.021 6.832-17.044 7.87-1.707.294-4.84.295-6.518.002zm10.355-48.276c1.132-.518 1.915-1.256 2.413-2.274.366-.748.417-1.027.363-1.988-.052-.924-.147-1.237-.546-1.804-1.584-2.254-5.26-2.727-7.124-.918-1.468 1.425-1.866 3.446-1.008 5.124 1.086 2.124 3.597 2.915 5.902 1.86zm-29.01 40.617c-1.72-1.183-3.36-2.692-4.192-3.86-4.418-6.19-5.315-18.562-2.337-32.202 2.172-9.948 4.902-17.9 12.508-36.423 8.136-19.813 11.14-27.063 11.291-27.257.335-.425 2.189-.062 6.872 1.344 2.498.75 7.773 2.28 11.722 3.402 3.95 1.121 7.18 2.105 7.18 2.185 0 .374-3.024 4.413-7.228 9.656-4.38 5.462-16.443 21.246-21.336 27.919-2.946 4.017-4.977 7.27-8.615 13.799-4.994 8.961-7.598 15.785-8.818 23.105-.415 2.491-.42 8.843-.009 10.863.506 2.483 1.441 4.388 3.431 6.987.558.728.956 1.324.885 1.324-.071 0-.68-.379-1.354-.842zm-6.622-.415c-.261-.339-1.125-1.156-1.92-1.816-4.354-3.621-7.61-9.339-9.467-16.623-1.18-4.632-2.637-14.662-3.2-22.022-.738-9.645-.715-18.938.07-29.126.795-10.315 1.644-18.767 1.915-19.054.15-.16 2.71.614 10.682 3.23 3.53 1.157 7.014 2.258 7.742 2.445 1.306.336 1.324.348 1.321.845-.006 1.034-.494 2.762-1.451 5.127-4.102 10.143-7.814 23.225-9.525 33.565-1.139 6.883-1.78 15.102-1.77 22.704.008 5.457.194 7.332 1.055 10.587 1.09 4.13 2.45 6.85 4.566 9.133.684.74.871 1.045.792 1.294-.145.457-.267.413-.81-.29z"/></svg>