<svg xmlns="http://www.w3.org/2000/svg" viewBox="0 0 265.5 248">
  <path fill="#009ddc" d="M234.8 68v1H112c-2.5 3.1-4.6 6.5-6.5 10H64.8c-5.7 0-10.4-4.4-10.9-10 0-.3-.1-.7-.1-1 0-3 1.2-5.8 3.2-7.8s4.8-3.2 7.8-3.2h159c6 0 11 4.9 11 11zm-44.4 151h-159c-6.1 0-11-4.9-11-11s4.9-11 11-11h159c6.1 0 11 4.9 11 11s-4.9 11-11 11zm6.6-28H38c-6.1 0-11-4.9-11-11s4.9-11 11-11h159c6.1 0 11 4.9 11 11 0 6-4.9 11-11 11zm31-95c0 .5 0 1-.1 1.5H99.1c-.5 2.5-.7 5.1-.9 7.8v1.7H58c-5.6 0-10.2-4.1-10.9-9.5 0-.5-.1-1-.1-1.5 0-3 1.2-5.8 3.2-7.8S54.9 85 58 85h159c6.1 0 11 4.9 11 11zm-6.9 30.5H101c1 3 2.1 5.8 3.5 8.5H51.4c-5.2 0-9.6-3.6-10.7-8.5-.2-.8-.3-1.6-.3-2.5 0-3 1.2-5.8 3.2-7.8s4.7-3.2 7.8-3.2h159c6.1 0 11 4.9 11 11 0 .9-.1 1.7-.3 2.5zm-6.4 25.5c0 .5 0 1-.1 1.5-.3 2.4-1.4 4.6-3.1 6.3-2 2-4.8 3.2-7.8 3.2h-8.6l4.4-8.7h-78.6c5.1 3.2 9.6 6.5 15.9 8.7H44.7c-5.6 0-10.2-4.1-10.9-9.5-.1-.5-.1-1-.1-1.5 0-3 1.2-5.8 3.2-7.8s4.7-3.2 7.8-3.2h159c.5 0 1 0 1.5.1 5.3.7 9.5 5.3 9.5 10.9zm30.4-115.2c0 2.1-.9 4.1-2.3 5.5-1.4 1.4-3.3 2.3-5.5 2.3h-78.2c-1.6.1-3.1.2-4.7.3-7.2.9-14.1 3-20.5 6.2H71.4c-4.5 0-8.3-2.7-10-6.5-.6-1.4-1-2.9-1-4.5 0-3 1.2-5.8 3.2-7.8s4.7-3.2 7.8-3.2h165.9c4.3-.1 7.8 3.4 7.8 7.7z"/>
</svg>
