<svg xmlns="http://www.w3.org/2000/svg" width="493.947" height="142.293"><path d="M36.23 19.35V36.4H17.052V19.35H0v46.678h17.052V48.253H36.23v17.775h17.052V19.35H36.23m58.24 0v30.11c0 4.61-1.572 5.078-8.293 5.078-6.905 0-9.707-.174-9.707-4.533V19.35H59.419v30.895c0 11.225 2.531 16.144 26.758 16.144 16.052 0 25.344-2.64 25.344-16.144V19.351H94.47m66.414-.001s.83 30.681.913 33.79l-16.394-33.79h-27.648v46.678h17.07l-.916-33.77c1.263 2.637 16.158 33.77 16.158 33.77h27.886V19.35h-17.069m22.035 0v11.854h15.088v34.824h17.052V31.204h15.876V19.351h-48.016M233.73 33.5c0 13.142 8.298 13.58 22.046 14.304l5.627.294c7.065.344 7.065.404 7.065 3.54 0 2.98-1.37 3.504-9.156 3.504-8.03 0-9.237-.593-9.237-4.533v-.667H233.65v.667c0 15.781 11.324 15.781 25.661 15.781 12.399 0 19.824-1.651 23.368-5.198 2.844-2.846 2.841-6.488 2.839-10.01v-.33c0-10.93-4.774-12.748-22.399-13.725l-6.524-.363c-4.521-.262-5.815-.465-5.815-3.325 0-1.86 0-3.202 8.531-3.202 6.58 0 8.133.146 8.133 3.988v.667h16.424v-2.54c0-13.364-11.929-13.364-24.557-13.364-15.917 0-25.583.977-25.583 14.512m104.291-14.15s-9.874 26.304-10.51 28.003l-11.052-28.002h-26.033v46.677h17.083l-1.495-33.058 14.35 33.058h14.471s12.798-29.79 14.276-33.236l-1.502 33.236h17.084V19.35h-26.672m73.5 0h-24.8l-18.202 46.678h17.786l2.906-7.8h20.224l3.066 7.8h17.468zm-20.344 30.052l7.634-20.983h1.09l7.804 20.983h-16.528m85.698-30.052l.916 33.794-16.394-33.793h-27.648v46.677h17.068s-.83-30.628-.914-33.77l16.155 33.77h27.888V19.35h-17.07M0-.007v9.673h493.941V-.007H0m0 75.729v9.672h493.941v-9.672H0m0 34.538h17.165v2.02H2.368v8.983h13.857v2.018H2.368v9.82h14.97v2.019H0v-24.86m20.193 6.894h2.193v3.099h.07c.801-2.159 3.203-3.621 5.745-3.621 5.048 0 6.58 2.646 6.58 6.93v11.558h-2.193v-11.212c0-3.097-1.01-5.43-4.56-5.43-3.482 0-5.572 2.646-5.642 6.162v10.48h-2.193v-17.966m18.732 0h2.02v4.214h.068c1.115-2.89 3.552-4.597 6.79-4.457v2.193c-3.97-.21-6.685 2.716-6.685 6.441v9.575h-2.193v-17.966m11-6.894h2.195v3.516h-2.195zm0 6.894h2.195v17.966h-2.195v-17.966m19.08 5.641c-.591-2.681-2.228-4.318-5.083-4.318-4.213 0-6.302 3.83-6.302 7.66s2.089 7.66 6.302 7.66c2.715 0 4.944-2.124 5.223-5.118h2.193c-.592 4.317-3.413 6.964-7.416 6.964-5.502 0-8.495-4.352-8.495-9.505 0-5.154 2.993-9.506 8.495-9.506 3.83 0 6.789 2.054 7.277 6.163h-2.194m5.362-12.535h2.193v9.993h.07c.8-2.159 3.203-3.621 5.745-3.621 5.048 0 6.58 2.646 6.58 6.93v11.558h-2.194v-11.212c0-3.097-1.01-5.43-4.56-5.43-3.482 0-5.57 2.646-5.64 6.162v10.48h-2.194v-24.86m18.765 0h2.194v3.516h-2.194zm0 6.894h2.194v17.966h-2.194v-17.966m6.372 0h2.193v3.099h.07c.8-2.159 3.203-3.621 5.744-3.621 5.05 0 6.581 2.646 6.581 6.93v11.558h-2.194v-11.212c0-3.097-1.01-5.43-4.561-5.43-3.481 0-5.57 2.646-5.64 6.162v10.48h-2.193v-17.966m33.911 16.504c-.035 5.362-2.09 8.635-7.973 8.635-3.586 0-7.138-1.602-7.45-5.431h2.192c.487 2.645 2.82 3.585 5.258 3.585 4.038 0 5.779-2.402 5.779-6.789v-2.438h-.07c-1.01 2.194-3.133 3.691-5.709 3.691-5.745 0-8.112-4.108-8.112-9.226 0-4.944 2.924-9.053 8.112-9.053 2.61 0 4.84 1.636 5.71 3.62h.069v-3.098h2.194zm-2.194-7.73c0-3.517-1.636-7.45-5.779-7.45-4.178 0-5.92 3.725-5.92 7.45 0 3.622 1.881 7.138 5.92 7.138 3.794 0 5.779-3.482 5.779-7.137m16.086-15.669h2.193v24.86h-2.193v-24.86m6.441 0h2.193v3.516h-2.193zm0 6.894h2.193v17.966h-2.193v-17.966m4.387 0h2.437l5.64 15.773h.07l5.57-15.773h2.264l-6.72 17.966h-2.333l-6.928-17.966m19.428 9.575c.034 3.203 1.706 7.068 5.918 7.068 3.203 0 4.944-1.88 5.64-4.595h2.194c-.94 4.073-3.308 6.44-7.834 6.44-5.709 0-8.112-4.386-8.112-9.504 0-4.736 2.403-9.506 8.112-9.506 5.779 0 8.079 5.049 7.904 10.097zm11.629-1.845c-.105-3.307-2.159-6.407-5.71-6.407-3.587 0-5.573 3.134-5.92 6.407h11.63m15.911-2.473c-.106-2.715-2.195-3.934-4.702-3.934-1.949 0-4.246.766-4.246 3.1 0 1.95 2.228 2.646 3.725 3.029l2.924.661c2.508.383 5.119 1.846 5.119 4.979 0 3.9-3.866 5.397-7.207 5.397-4.179 0-7.035-1.95-7.383-6.337h2.195c.175 2.96 2.367 4.491 5.292 4.491 2.053 0 4.908-.905 4.908-3.412 0-2.089-1.95-2.785-3.935-3.272l-2.82-.628c-2.854-.765-5.013-1.74-5.013-4.804 0-3.656 3.587-5.05 6.756-5.05 3.585 0 6.44 1.881 6.58 5.78h-2.193m19.147-5.257h3.655V119h-3.656v12.116c0 1.427.21 2.263 1.776 2.368.628 0 1.256-.034 1.88-.105v1.88c-.661 0-1.288.07-1.949.07-2.924 0-3.933-.975-3.899-4.038V119h-3.133v-1.846h3.133v-5.397h2.192v5.397m6.791-6.894h2.193v9.993h.071c.8-2.159 3.201-3.621 5.743-3.621 5.049 0 6.581 2.646 6.581 6.93v11.558h-2.193v-11.212c0-3.097-1.011-5.43-4.562-5.43-3.482 0-5.569 2.646-5.64 6.162v10.48h-2.193v-24.86m18.732 6.894h2.019v4.214h.07c1.112-2.89 3.548-4.597 6.79-4.457v2.193c-3.972-.21-6.687 2.716-6.687 6.441v9.575h-2.192v-17.966m26.431 8.984c0 5.153-2.994 9.505-8.496 9.505-5.5 0-8.495-4.352-8.495-9.505 0-5.154 2.995-9.506 8.495-9.506 5.502 0 8.496 4.352 8.496 9.506zm-14.798 0c0 3.83 2.091 7.659 6.302 7.659 4.213 0 6.302-3.83 6.302-7.66s-2.089-7.66-6.302-7.66c-4.211 0-6.302 3.83-6.302 7.66m32.623 8.983h-2.019v-3.238h-.07c-1.148 2.403-3.515 3.76-6.198 3.76-4.526 0-6.302-2.646-6.302-6.824v-11.664h2.192v11.7c.105 3.237 1.326 4.943 4.808 4.943 3.761 0 5.396-3.551 5.396-7.207v-9.436h2.193v17.966m19.322-1.462c-.033 5.362-2.089 8.635-7.974 8.635-3.585 0-7.135-1.602-7.448-5.431h2.193c.487 2.645 2.818 3.585 5.255 3.585 4.04 0 5.781-2.402 5.781-6.789v-2.438h-.07c-1.01 2.194-3.132 3.691-5.711 3.691-5.741 0-8.112-4.108-8.112-9.226 0-4.944 2.927-9.053 8.112-9.053 2.612 0 4.841 1.636 5.71 3.62h.071v-3.098h2.194zm-2.193-7.73c0-3.517-1.634-7.45-5.781-7.45-4.176 0-5.916 3.725-5.916 7.45 0 3.622 1.88 7.138 5.916 7.138 3.797 0 5.781-3.482 5.781-7.137m6.336-15.669h2.192v9.993h.074c.8-2.159 3.201-3.621 5.742-3.621 5.05 0 6.582 2.646 6.582 6.93v11.558h-2.194v-11.212c0-3.097-1.01-5.43-4.562-5.43-3.482 0-5.568 2.646-5.642 6.162v10.48h-2.192v-24.86m28.446 0h2.196v3.516h-2.196zm0 6.894h2.196v17.966h-2.196v-17.966m6.373 0h2.192v3.099h.07c.8-2.159 3.203-3.621 5.745-3.621 5.048 0 6.581 2.646 6.581 6.93v11.558h-2.193v-11.212c0-3.097-1.01-5.43-4.562-5.43-3.482 0-5.57 2.646-5.641 6.162v10.48h-2.192v-17.966m18.695 0h2.193v3.099h.07c.8-2.159 3.2-3.621 5.745-3.621 5.046 0 6.577 2.646 6.577 6.93v11.558H383.4v-11.212c0-3.097-1.008-5.43-4.56-5.43-3.483 0-5.57 2.646-5.64 6.162v10.48h-2.193v-17.966m34.814 8.984c0 5.153-2.994 9.505-8.494 9.505s-8.495-4.352-8.495-9.505c0-5.154 2.995-9.506 8.495-9.506 5.5 0 8.494 4.352 8.494 9.506zm-14.797 0c0 3.83 2.092 7.659 6.303 7.659 4.212 0 6.302-3.83 6.302-7.66s-2.09-7.66-6.302-7.66c-4.211 0-6.303 3.83-6.303 7.66m16.051-8.983h2.437l5.64 15.773h.07l5.571-15.773h2.263l-6.719 17.966h-2.333l-6.93-17.966m17.933 5.502c.208-4.214 3.169-6.024 7.276-6.024 3.169 0 6.617.974 6.617 5.78v9.54c0 .836.417 1.323 1.287 1.323.244 0 .522-.07.697-.139v1.845c-.487.105-.836.139-1.43.139-2.226 0-2.575-1.252-2.575-3.133h-.07c-1.532 2.333-3.097 3.656-6.545 3.656-3.307 0-6.023-1.637-6.023-5.258 0-5.049 4.91-5.222 9.646-5.78 1.81-.208 2.818-.452 2.818-2.437 0-2.96-2.122-3.69-4.701-3.69-2.713 0-4.735 1.253-4.804 4.178zm11.698 2.646h-.068c-.278.522-1.256.695-1.846.8-3.727.662-8.358.627-8.358 4.144 0 2.193 1.951 3.551 4.006 3.551 3.341 0 6.302-2.124 6.266-5.64v-2.855m10.062-8.148h3.657V119h-3.657v12.116c0 1.427.209 2.263 1.776 2.368.625 0 1.253-.034 1.881-.105v1.88c-.665 0-1.29.07-1.95.07-2.926 0-3.935-.975-3.9-4.038V119h-3.133v-1.846h3.134v-5.397h2.192v5.397m6.857-6.894h2.195v3.516h-2.195zm0 6.894h2.195v17.966h-2.195v-17.966m22.492 8.984c0 5.153-2.992 9.505-8.495 9.505-5.5 0-8.494-4.352-8.494-9.505 0-5.154 2.994-9.506 8.494-9.506 5.503 0 8.495 4.352 8.495 9.506zm-14.797 0c0 3.83 2.092 7.659 6.302 7.659 4.214 0 6.303-3.83 6.303-7.66s-2.09-7.66-6.303-7.66c-4.21 0-6.302 3.83-6.302 7.66m18.037-8.983h2.192v3.099h.07c.8-2.159 3.203-3.621 5.746-3.621 5.047 0 6.577 2.646 6.577 6.93v11.558h-2.189v-11.212c0-3.097-1.01-5.43-4.563-5.43-3.482 0-5.57 2.646-5.641 6.162v10.48h-2.192v-17.966" fill="#fff"/></svg>