<svg xmlns="http://www.w3.org/2000/svg" viewBox="0 0 324 93.6"><path fill="#fff" d="M23.4 67.7v15.1c0 3.3-.9 5.7-2.6 7.4-1.7 1.6-4.3 2.4-7.8 2.4s-6.2-.8-7.9-2.4c-1.7-1.6-2.6-4.1-2.6-7.4V67.7h5.1V82c-.1 1.6.3 3.2 1.3 4.5 1 1.1 2.5 1.6 4 1.5 1.5.1 3-.5 4-1.5 1-1.3 1.5-2.9 1.4-4.5V67.7h5.1zm5.3 24.2V67.7h5.4l10.7 14.1c.4.5.7 1.1 1 1.7.4.7.8 1.6 1.2 2.6l-.3-2.1c-.1-.7-.1-1.6-.1-2.7V67.7h5v24.2h-5.1l-11-14.4c-.4-.5-.7-1.1-1-1.7-.4-.7-.8-1.6-1.2-2.6l.3 2.1c.1.7.1 1.6.1 2.7v13.8l-5 .1zm28.4-24.2h5.2v24.2h-5.2zm19.8 4.4v19.8h-5.2V72.1h-5.9v-4.4h17v4.4zm9.3 19.8V67.7h14.3v4.4h-9.1v5h9.1v4.4h-9.1v6h9.1v4.4zm24.5-4.3h2.9c2.7 0 4.7-.6 5.9-1.8 1.2-1.2 1.9-3.2 1.9-5.9s-.6-4.6-1.9-5.9c-1.2-1.2-3.2-1.9-5.9-1.9h-2.9v15.5zm-5.2 4.3V67.7h6.6c2.1-.1 4.1.1 6.2.6 1.4.3 2.8.9 4 1.8 1.4 1.1 2.6 2.5 3.3 4.1 1.5 3.6 1.5 7.7 0 11.4-.8 1.6-1.9 3.1-3.4 4.1-1.1.8-2.4 1.4-3.7 1.7-2 .4-3.9.6-5.9.5h-7.1zM138.2 67.7h5.2v24.2h-5.2zm10.7 24.2V67.7h5.4L165 81.8c.4.5.7 1.1 1 1.7.4.7.8 1.6 1.1 2.6l-.3-2.1c-.1-.7-.1-1.6-.1-2.7V67.7h5v24.2h-5.1l-11-14.4c-.4-.5-.7-1.1-1-1.7-.4-.7-.8-1.6-1.2-2.6l.3 2.1c.1.7.1 1.6.1 2.7v13.8l-4.9.1zm28.4-24.2h5.2v24.2h-5.2zm19.8 4.4v19.8h-5.2V72.1h-6v-4.4H203v4.4zm9.3-4.4h5.2v24.2h-5.2zm23.3 15l-2.7-7.8c-.1-.2-.2-.6-.3-1.2s-.2-1.2-.4-2.1c-.1.8-.3 1.5-.4 2.1s-.2 1-.3 1.2l-2.6 7.7 6.7.1zm-15.4 9.2l9.2-24.2h5.9l9.4 24.2h-5.9l-2-5.2h-9.4l-1.7 5.2h-5.5zm34.3-19.8v19.8h-5.2V72.1h-6v-4.4h17.1v4.4zM269.2 88c2.1.1 4-.8 5.4-2.3 2.9-3.3 2.9-8.3 0-11.6-2.8-3-7.5-3.1-10.5-.3l-.3.3c-2.9 3.3-2.9 8.3 0 11.6 1.3 1.5 3.3 2.4 5.4 2.3m12.8-8.1c0 1.7-.3 3.4-1 4.9-.6 1.5-1.6 2.9-2.8 4.1-1.2 1.2-2.7 2.1-4.2 2.8-3 1.2-6.2 1.3-9.2.2-1.4-.5-2.7-1.2-3.9-2.2-3-2.4-4.8-6-4.7-9.8 0-1.7.3-3.4 1-4.9.6-1.5 1.6-2.9 2.8-4.1 2.5-2.4 5.8-3.7 9.2-3.7 1.7 0 3.4.3 4.9 1 1.6.6 3 1.6 4.2 2.8 1.2 1.2 2.2 2.6 2.8 4.1.6 1.5 1 3.1.9 4.8m9.6-1.9h.8c2.1 0 3.5-.2 4.1-.7.7-.6 1.1-1.5 1-2.4.1-1-.3-1.9-1.1-2.5-1.3-.6-2.7-.9-4.1-.8h-.8V78zm12.3 13.9h-6l-6.3-11.4v11.3h-5.2V67.7h7.4c2.9 0 5.2.6 6.6 1.7 1.5 1.3 2.3 3.2 2.2 5.2 0 1.6-.5 3.1-1.5 4.3-1 1.2-2.4 1.9-3.9 2.1l6.7 10.9zm1.5-3l2.9-3.2c.3.9 1 1.6 1.8 2.1s1.7.8 2.7.8c1 .1 2-.2 2.9-.9.7-.6 1.1-1.4 1.1-2.3 0-1.1-1.2-2.3-3.5-3.4l-1.8-.9c-1.7-.8-3.2-1.9-4.4-3.2-.8-1.1-1.3-2.4-1.2-3.8 0-1.9.8-3.8 2.4-4.9 1.8-1.3 3.9-2 6.2-1.9 1.3 0 2.6.2 3.8.8 1.1.6 2.1 1.4 2.8 2.4l-3.1 2.9c-.3-.7-.8-1.2-1.4-1.6-.7-.4-1.4-.6-2.2-.5-.9 0-1.8.2-2.5.8-.6.5-1 1.2-.9 2 0 1.3 1.2 2.5 3.7 3.5l1.1.5c1.7.7 3.3 1.8 4.6 3.2 1 1.1 1.5 2.5 1.5 4 .1 2.1-.8 4.1-2.3 5.5-1.8 1.4-4 2.1-6.2 2-1.6 0-3.3-.3-4.8-1-1.5-.8-2.5-1.8-3.2-2.9M179.8 4.1c12.1 14.7-21 32.4-47.5 37.8 11.3 7.3 36.6 11.5 57.4.2 11.2-6.9 14.4-15.2 11.1-22.9-3.6-8.2-14-13.2-21-15.1"/><path fill="#fff" d="M124.6 36.6c.1 0 28.5-8 36.8-20C169 5.2 149.1 2.9 146.9 2.7c-7.4 1.7-18.6 6.3-23.7 14.5-5 8.5-2.1 14.8 1.4 19.4"/><path fill="#fff" fill-opacity=".6" d="M154.4 2.3c4.9-.6 9.8-.6 14.8-.2 4.3 1.1 17.4 6.4 3.1 18.7-14.5 12.1-37.5 16.9-43.8 18.4-.6-.5-1.3-1.2-1.5-1.4 6-1.8 25.3-8.4 33.9-17.6 7.3-7.9 4.5-14.9-6.5-17.9"/></svg>