<svg xmlns="http://www.w3.org/2000/svg" viewBox="0 0 475.312 475.312">
  <path fill="#fff" d="M407.997 244.716l55.997-55.997 11.313 11.314-55.996 55.997z"/>
  <path fill="#fff" d="M423.312 280.684l-79.768-79.768a104.662 104.662 0 0015.768-12.92l28-28L376 148.684l-28 28c-34.455 34.374-90.233 34.374-124.688 0l-12-12a8 8 0 00-10.968-.32l-21.272 18.896c-22.968 20.382-57.168 21.6-81.528 2.904l107.736-101a39.83 39.83 0 0127.36-10.824h94.4a23.825 23.825 0 0016.976-7.032l43.312-43.312L376 12.684l-43.312 43.312a8 8 0 01-5.664 2.344h-94.4a55.802 55.802 0 00-38.304 15.152L80.184 180.508A8 8 0 0080 191.996c29.968 29.909 78.043 31.311 109.704 3.2l15.624-13.88L212 187.98c30.756 30.774 77.425 39.135 116.952 20.952L412 291.996c7.797 8.047 7.594 20.891-.453 28.688-7.868 7.623-20.367 7.623-28.235 0l-20-20L352 311.996l20 20c7.912 7.926 7.912 20.762 0 28.688-8.033 7.649-20.655 7.649-28.688 0l-20-20L312 351.996l20 20c7.912 7.926 7.912 20.762 0 28.688-8.033 7.649-20.655 7.649-28.688 0l-20-20L272 391.996l20 20c7.912 7.926 7.912 20.762 0 28.688-8.033 7.649-20.655 7.649-28.688 0L248.8 426.172c13.247-14.827 11.966-37.585-2.861-50.831a36.001 36.001 0 00-28.411-8.881c2.45-19.642-11.487-37.55-31.129-40a35.875 35.875 0 00-8.871 0c2.45-19.642-11.487-37.55-31.129-40a35.875 35.875 0 00-8.871 0c2.435-19.733-11.588-37.703-31.32-40.138a36.001 36.001 0 00-28.384 8.874l-66.512-66.512L0 199.996l66.344 66.344L52 280.684c-14.169 14.154-14.182 37.116-.027 51.285a36.262 36.262 0 0025.683 10.635 37.822 37.822 0 004.128-.392c-2.426 19.734 11.605 37.698 31.339 40.123 1.504.185 3.018.275 4.533.269a37.822 37.822 0 004.128-.392c-2.426 19.734 11.605 37.698 31.339 40.123 1.504.185 3.018.275 4.533.269a37.822 37.822 0 004.128-.392c-2.332 19.843 11.863 37.819 31.706 40.151a36.177 36.177 0 0029.822-10.367l14.344-14.344L252 451.996c14.16 14.17 37.126 14.178 51.296.017a36.275 36.275 0 0010.416-29.617c19.899 2.193 37.807-12.161 40-32.06a36.217 36.217 0 000-7.94c19.899 2.193 37.807-12.161 40-32.06a36.217 36.217 0 000-7.94c19.913 2.187 37.828-12.182 40.016-32.095a36.272 36.272 0 00-10.416-29.617zM92 320.684c-7.93 7.903-20.758 7.903-28.688 0-7.912-7.926-7.912-20.762 0-28.688l24-24c8.047-7.797 20.891-7.594 28.688.453 7.624 7.868 7.624 20.367 0 28.235l-24 24zm40 40c-7.93 7.903-20.758 7.903-28.688 0-7.912-7.926-7.912-20.762 0-28.688l24-24c8.047-7.797 20.891-7.594 28.688.452 7.624 7.868 7.624 20.367 0 28.236l-24 24zm11.312 40c-7.912-7.926-7.912-20.762 0-28.688l24-24c8.047-7.797 20.891-7.594 28.688.452 7.624 7.868 7.624 20.367 0 28.236l-24 24c-7.93 7.903-20.758 7.903-28.688 0zm92.688 16l-24 24c-8.047 7.797-20.891 7.594-28.688-.453-7.624-7.868-7.624-20.367 0-28.235l24-24c8.047-7.797 20.891-7.594 28.688.452 7.624 7.868 7.624 20.368 0 28.236zM148.288 58.34a8 8 0 01-5.664-2.344L99.312 12.684 88 23.996l43.312 43.312a23.825 23.825 0 0016.976 7.032h25.368v-16h-25.368z"/>
</svg>
