<svg xmlns="http://www.w3.org/2000/svg" viewBox="0 0 480.004 480.004"><path fill="#fff" d="M474.132 342.942a34.055 34.055 0 00-27.684-14.94 33.67 33.67 0 00-15.912 4l-35.888 19.328-115.152-115.144A55.578 55.578 0 00248 220.474v-28.472h8c48.577-.057 87.943-39.423 88-88a8 8 0 00-8-8h-16a87.92 87.92 0 00-72 37.6v-53.6h8c39.746-.044 71.956-32.254 72-72a8 8 0 00-8-8h-16a72.002 72.002 0 00-64 39.2 72.002 72.002 0 00-64-39.2h-16a8 8 0 00-8 8c.044 39.746 32.254 71.956 72 72h8v53.6a87.92 87.92 0 00-72-37.6h-16a8 8 0 00-8 8c.057 48.577 39.423 87.943 88 88h8v28.44a55.587 55.587 0 00-31.576 15.632l-80.648 80.176a94.954 94.954 0 00-18.528 11.752H0v16h96v120H0v16h313.472a55.747 55.747 0 0031.056-9.408l120.528-80.352c15.568-10.556 19.631-31.732 9.076-47.3zM320 112.002h7.552c-4.116 36.419-34.901 63.955-71.552 64h-7.552c4.116-36.42 34.901-63.956 71.552-64zm-16-96h7.432c-4.013 27.535-27.606 47.965-55.432 48h-7.432c4.013-27.535 27.606-47.966 55.432-48zm-80 48c-27.826-.035-51.419-20.465-55.432-48H176c27.826.035 51.419 20.465 55.432 48H224zm0 112c-36.651-.045-67.436-27.581-71.552-64H160c36.651.045 67.436 27.581 71.552 64H224zm-12.296 71.416c15.651-15.498 40.877-15.459 56.48.088l111.752 111.752-40.136 21.6c9.309-17.568 2.614-39.357-14.954-48.666a36.005 36.005 0 00-16.846-4.19h-89.112A93.601 93.601 0 00151.2 307.57l60.504-60.152zM464 362.322a17.51 17.51 0 01-7.824 14.608l-120.52 80.352a39.828 39.828 0 01-22.184 6.72H112V339.794c29.224-23.018 70.672-22.058 98.8 2.288a8.001 8.001 0 005.2 1.92h92c11.046 0 20 8.954 20 20s-8.954 20-20 20h-84a8 8 0 000 16h112a8.054 8.054 0 003.792-.952l98.336-52.952a17.608 17.608 0 018.32-2.096c9.804.105 17.666 8.138 17.56 17.942-.001.126-.004.252-.008.378z"/><path fill="#fff" d="M56 400.002c-13.255 0-24 10.745-24 24s10.745 24 24 24 24-10.745 24-24-10.745-24-24-24zm0 32a8 8 0 110-16 8 8 0 010 16zm152-160h16v16h-16zm56 8h16v16h-16zm-32 16h16v16h-16zM127.866 38.668a8 8 0 00-6.554-6.554A30.944 30.944 0 0195.888 6.69a8 8 0 00-15.776 0 30.944 30.944 0 01-25.424 25.424 8 8 0 000 15.776 30.944 30.944 0 0125.424 25.424 8 8 0 0015.776 0 30.944 30.944 0 0125.424-25.424 8 8 0 006.554-9.222zM88 51.426a46.958 46.958 0 00-11.424-11.424A46.958 46.958 0 0088 28.578a46.958 46.958 0 0011.424 11.424A46.94 46.94 0 0088 51.426z"/></svg>