<svg xmlns="http://www.w3.org/2000/svg" viewBox="0 0 480 480"><path fill="#fff" d="M400 358.88v-18.328A118.544 118.544 0 00456 240a8 8 0 00-8-8h-32a8 8 0 00-8 8 72.304 72.304 0 01-16.592 45.824c.376-1.919.574-3.869.592-5.824v-16c0-17.673-14.327-32-32-32-17.673 0-32 14.327-32 32v16c.018 1.955.216 3.905.592 5.824A72.304 72.304 0 01312 240a7.779 7.779 0 01-.312-2.192L280 126.88v-18.328A118.544 118.544 0 00336 8a8 8 0 00-8-8h-32a8 8 0 00-8 8 72.304 72.304 0 01-16.592 45.824c.376-1.919.574-3.869.592-5.824V32c0-17.673-14.327-32-32-32-17.673 0-32 14.327-32 32v16c.018 1.955.216 3.905.592 5.824A72.304 72.304 0 01192 8a8 8 0 00-8-8h-32a8 8 0 00-8 8 118.663 118.663 0 0056 100.536V134.8l-31.648 102.848a8.199 8.199 0 00-.056.872A7.686 7.686 0 00168 240a72.304 72.304 0 01-16.592 45.824c.376-1.919.574-3.869.592-5.824v-16c0-17.673-14.327-32-32-32s-32 14.327-32 32v16c.018 1.955.216 3.905.592 5.824A72.304 72.304 0 0172 240a8 8 0 00-8-8H32a8 8 0 00-8 8 118.663 118.663 0 0056 100.536V366.8L48.352 469.648A8 8 0 0056 480h32a8.001 8.001 0 007.52-5.264L120 407.408l24.48 67.328A8.001 8.001 0 00152 480h32a8 8 0 007.688-10.192L160 358.88v-18.328a118.528 118.528 0 0055.952-99L240 175.408l24.048 66.144A118.681 118.681 0 00320 340.536V366.8l-31.648 102.848A8 8 0 00296 480h32a8.001 8.001 0 007.52-5.264L360 407.408l24.48 67.328A8.001 8.001 0 00392 480h32a8 8 0 007.688-10.192L400 358.88zM344 264c0-8.837 7.163-16 16-16s16 7.163 16 16v16c0 8.837-7.163 16-16 16s-16-7.163-16-16v-16zM224 32c0-8.837 7.163-16 16-16s16 7.163 16 16v16c0 8.837-7.163 16-16 16s-16-7.163-16-16V32zM104 264c0-8.837 7.163-16 16-16s16 7.163 16 16v16c0 8.837-7.163 16-16 16s-16-7.163-16-16v-16zm44 65.072a8 8 0 00-4 6.928v24c-.001.742.104 1.48.312 2.192L173.392 464H157.6l-30.08-82.736a8 8 0 00-15.04 0L82.4 464H66.832l28.8-93.648A8.085 8.085 0 0096 368v-32a8.802 8.802 0 00-4.464-7.2A102.527 102.527 0 0140.32 248h16.048A88.512 88.512 0 0091.2 310.4 7.998 7.998 0 0096 312h48a7.998 7.998 0 004.8-1.6 88.512 88.512 0 0034.832-62.4h16.048A102.825 102.825 0 01148 329.072zm99.52-179.808a8 8 0 00-15.04 0L202.4 232h-15.568l28.8-93.648A8.085 8.085 0 00216 136v-32a8.802 8.802 0 00-4.464-7.2A102.527 102.527 0 01160.32 16h16.048A88.512 88.512 0 00211.2 78.4 7.998 7.998 0 00216 80h48a7.998 7.998 0 004.8-1.6A88.512 88.512 0 00303.632 16h16.048A102.825 102.825 0 01268 97.072a8 8 0 00-4 6.928v24c-.001.742.104 1.48.312 2.192L293.392 232H277.6l-30.08-82.736zM397.6 464l-30.08-82.736a8 8 0 00-15.04 0L322.4 464h-15.568l28.8-93.648A8.085 8.085 0 00336 368v-32a8.802 8.802 0 00-4.464-7.2A102.527 102.527 0 01280.32 248h16.048a88.512 88.512 0 0034.832 62.4 7.998 7.998 0 004.8 1.6h48a7.998 7.998 0 004.8-1.6 88.512 88.512 0 0034.832-62.4h16.048A102.825 102.825 0 01388 329.072a8 8 0 00-4 6.928v24c-.001.742.104 1.48.312 2.192L413.392 464H397.6z"/></svg>